G04 #@! TF.GenerationSoftware,KiCad,Pcbnew,5.0.2-bee76a0~70~ubuntu18.04.1*
G04 #@! TF.CreationDate,2019-07-28T23:16:02-04:00*
G04 #@! TF.ProjectId,knuth-gateway,6b6e7574-682d-4676-9174-657761792e6b,rev?*
G04 #@! TF.SameCoordinates,Original*
G04 #@! TF.FileFunction,Copper,L2,Bot*
G04 #@! TF.FilePolarity,Positive*
%FSLAX46Y46*%
G04 Gerber Fmt 4.6, Leading zero omitted, Abs format (unit mm)*
G04 Created by KiCad (PCBNEW 5.0.2-bee76a0~70~ubuntu18.04.1) date Sun 28 Jul 2019 11:16:02 PM EDT*
%MOMM*%
%LPD*%
G01*
G04 APERTURE LIST*
G04 #@! TA.AperFunction,ComponentPad*
%ADD10R,1.700000X1.700000*%
G04 #@! TD*
G04 #@! TA.AperFunction,ComponentPad*
%ADD11O,1.700000X1.700000*%
G04 #@! TD*
G04 #@! TA.AperFunction,ComponentPad*
%ADD12O,1.600000X1.600000*%
G04 #@! TD*
G04 #@! TA.AperFunction,ComponentPad*
%ADD13C,1.600000*%
G04 #@! TD*
G04 #@! TA.AperFunction,ComponentPad*
%ADD14C,2.400000*%
G04 #@! TD*
G04 #@! TA.AperFunction,ComponentPad*
%ADD15R,2.400000X2.400000*%
G04 #@! TD*
G04 #@! TA.AperFunction,ViaPad*
%ADD16C,3.000000*%
G04 #@! TD*
G04 #@! TA.AperFunction,ViaPad*
%ADD17C,1.778000*%
G04 #@! TD*
G04 #@! TA.AperFunction,Conductor*
%ADD18C,1.905000*%
G04 #@! TD*
G04 APERTURE END LIST*
D10*
G04 #@! TO.P,R_Delay1,1*
G04 #@! TO.N,GND*
X246380000Y-81280000D03*
D11*
G04 #@! TO.P,R_Delay1,2*
G04 #@! TO.N,Net-(R_Delay1-Pad2)*
X246380000Y-83820000D03*
G04 #@! TD*
D10*
G04 #@! TO.P,U4,1*
G04 #@! TO.N,SWITCHED_LOAD*
X252730000Y-78740000D03*
D11*
G04 #@! TO.P,U4,2*
G04 #@! TO.N,GND*
X252730000Y-81280000D03*
G04 #@! TO.P,U4,3*
G04 #@! TO.N,Net-(R_Delay1-Pad2)*
X252730000Y-83820000D03*
G04 #@! TO.P,U4,4*
G04 #@! TO.N,VBUS*
X252730000Y-86360000D03*
G04 #@! TO.P,U4,5*
G04 #@! TO.N,D10*
X252730000Y-88900000D03*
G04 #@! TD*
G04 #@! TO.P,1-Wire1,3*
G04 #@! TO.N,D5*
X252730000Y-116840000D03*
G04 #@! TO.P,1-Wire1,2*
G04 #@! TO.N,+3V3*
X252730000Y-114300000D03*
D10*
G04 #@! TO.P,1-Wire1,1*
G04 #@! TO.N,GND*
X252730000Y-111760000D03*
G04 #@! TD*
G04 #@! TO.P,EC-5,1*
G04 #@! TO.N,A0*
X252730000Y-99060000D03*
D11*
G04 #@! TO.P,EC-5,2*
G04 #@! TO.N,GND*
X252730000Y-101600000D03*
G04 #@! TO.P,EC-5,3*
G04 #@! TO.N,+3V3*
X252730000Y-104140000D03*
G04 #@! TD*
D10*
G04 #@! TO.P,J1,1*
G04 #@! TO.N,N/C*
X218440000Y-102870000D03*
D11*
G04 #@! TO.P,J1,2*
X218440000Y-100330000D03*
G04 #@! TO.P,J1,3*
G04 #@! TO.N,VBUS*
X218440000Y-97790000D03*
G04 #@! TO.P,J1,4*
G04 #@! TO.N,N/C*
X218440000Y-95250000D03*
G04 #@! TO.P,J1,5*
X218440000Y-92710000D03*
G04 #@! TO.P,J1,6*
X218440000Y-90170000D03*
G04 #@! TO.P,J1,7*
G04 #@! TO.N,D10*
X218440000Y-87630000D03*
G04 #@! TO.P,J1,8*
G04 #@! TO.N,N/C*
X218440000Y-85090000D03*
G04 #@! TO.P,J1,9*
X218440000Y-82550000D03*
G04 #@! TO.P,J1,10*
G04 #@! TO.N,D5*
X218440000Y-80010000D03*
G04 #@! TO.P,J1,11*
G04 #@! TO.N,N/C*
X218440000Y-77470000D03*
G04 #@! TO.P,J1,12*
X218440000Y-74930000D03*
G04 #@! TD*
D10*
G04 #@! TO.P,J2,1*
G04 #@! TO.N,N/C*
X238760000Y-113030000D03*
D11*
G04 #@! TO.P,J2,2*
G04 #@! TO.N,+3V3*
X238760000Y-110490000D03*
G04 #@! TO.P,J2,3*
G04 #@! TO.N,N/C*
X238760000Y-107950000D03*
G04 #@! TO.P,J2,4*
G04 #@! TO.N,GND*
X238760000Y-105410000D03*
G04 #@! TO.P,J2,5*
G04 #@! TO.N,A0*
X238760000Y-102870000D03*
G04 #@! TO.P,J2,6*
G04 #@! TO.N,A1*
X238760000Y-100330000D03*
G04 #@! TO.P,J2,7*
G04 #@! TO.N,N/C*
X238760000Y-97790000D03*
G04 #@! TO.P,J2,8*
X238760000Y-95250000D03*
G04 #@! TO.P,J2,9*
X238760000Y-92710000D03*
G04 #@! TO.P,J2,10*
G04 #@! TO.N,A5*
X238760000Y-90170000D03*
G04 #@! TO.P,J2,11*
G04 #@! TO.N,N/C*
X238760000Y-87630000D03*
G04 #@! TO.P,J2,12*
X238760000Y-85090000D03*
G04 #@! TO.P,J2,13*
X238760000Y-82550000D03*
G04 #@! TO.P,J2,14*
X238760000Y-80010000D03*
G04 #@! TO.P,J2,15*
X238760000Y-77470000D03*
G04 #@! TO.P,J2,16*
X238760000Y-74930000D03*
G04 #@! TD*
D10*
G04 #@! TO.P,switch1,1*
G04 #@! TO.N,LOAD*
X266395200Y-67360800D03*
D11*
G04 #@! TO.P,switch1,2*
G04 #@! TO.N,SWITCHED_LOAD*
X263855200Y-67360800D03*
G04 #@! TO.P,switch1,3*
G04 #@! TO.N,N/C*
X261315200Y-67360800D03*
G04 #@! TD*
D12*
G04 #@! TO.P,RD1,2*
G04 #@! TO.N,A5*
X244348000Y-77216000D03*
D13*
G04 #@! TO.P,RD1,1*
G04 #@! TO.N,BATT*
X244348000Y-69596000D03*
G04 #@! TD*
G04 #@! TO.P,RD2,1*
G04 #@! TO.N,A5*
X245110000Y-95250000D03*
D12*
G04 #@! TO.P,RD2,2*
G04 #@! TO.N,GND*
X245110000Y-102870000D03*
G04 #@! TD*
D13*
G04 #@! TO.P,RP1,1*
G04 #@! TO.N,D5*
X245110000Y-116205000D03*
D12*
G04 #@! TO.P,RP1,2*
G04 #@! TO.N,+3V3*
X245110000Y-108585000D03*
G04 #@! TD*
D10*
G04 #@! TO.P,J3,1*
G04 #@! TO.N,BATT*
X249428000Y-66802000D03*
D11*
G04 #@! TO.P,J3,2*
G04 #@! TO.N,GND*
X249428000Y-69342000D03*
G04 #@! TD*
G04 #@! TO.P,J4,2*
G04 #@! TO.N,GND*
X255422400Y-69291200D03*
D10*
G04 #@! TO.P,J4,1*
G04 #@! TO.N,LOAD*
X255422400Y-66751200D03*
G04 #@! TD*
D14*
G04 #@! TO.P,J5,3*
G04 #@! TO.N,GND*
X259080000Y-110856000D03*
G04 #@! TO.P,J5,2*
G04 #@! TO.N,+3V3*
X259080000Y-114356000D03*
D15*
G04 #@! TO.P,J5,1*
G04 #@! TO.N,D5*
X259080000Y-117856000D03*
G04 #@! TD*
D14*
G04 #@! TO.P,J6,3*
G04 #@! TO.N,A0*
X259080000Y-98664000D03*
G04 #@! TO.P,J6,2*
G04 #@! TO.N,GND*
X259080000Y-102164000D03*
D15*
G04 #@! TO.P,J6,1*
G04 #@! TO.N,+3V3*
X259080000Y-105664000D03*
G04 #@! TD*
D10*
G04 #@! TO.P,J7,1*
G04 #@! TO.N,EXT_BAT*
X244348000Y-54419500D03*
D11*
G04 #@! TO.P,J7,2*
G04 #@! TO.N,GND*
X241808000Y-54419500D03*
G04 #@! TO.P,J7,3*
G04 #@! TO.N,5V_OUT*
X239268000Y-54419500D03*
G04 #@! TD*
G04 #@! TO.P,J8,2*
G04 #@! TO.N,GND*
X254762000Y-51752500D03*
D10*
G04 #@! TO.P,J8,1*
G04 #@! TO.N,EXT_BAT*
X254762000Y-54292500D03*
G04 #@! TD*
G04 #@! TO.P,J9,1*
G04 #@! TO.N,5V_OUT*
X228346000Y-54419500D03*
D11*
G04 #@! TO.P,J9,2*
G04 #@! TO.N,GND*
X228346000Y-51879500D03*
G04 #@! TD*
D14*
G04 #@! TO.P,J10,2*
G04 #@! TO.N,EXT_BAT*
X260025000Y-52514500D03*
D15*
G04 #@! TO.P,J10,1*
G04 #@! TO.N,GND*
X263525000Y-52514500D03*
G04 #@! TD*
G04 #@! TO.P,J11,1*
G04 #@! TO.N,5V_OUT*
X221869000Y-52895500D03*
D14*
G04 #@! TO.P,J11,2*
G04 #@! TO.N,GND*
X218369000Y-52895500D03*
G04 #@! TD*
D13*
G04 #@! TO.P,RE1,1*
G04 #@! TO.N,EXT_BAT*
X211709000Y-68834000D03*
D12*
G04 #@! TO.P,RE1,2*
G04 #@! TO.N,A1*
X221869000Y-68834000D03*
G04 #@! TD*
G04 #@! TO.P,RE2,2*
G04 #@! TO.N,GND*
X232791000Y-69723000D03*
D13*
G04 #@! TO.P,RE2,1*
G04 #@! TO.N,A1*
X232791000Y-79883000D03*
G04 #@! TD*
D16*
G04 #@! TO.N,*
X270954500Y-121666000D03*
X210947000Y-121666000D03*
X211010500Y-51625500D03*
X271018000Y-51625500D03*
D17*
G04 #@! TO.N,GND*
X265303000Y-84963000D03*
X261683500Y-79756000D03*
G04 #@! TD*
D18*
G04 #@! TO.N,GND*
X252730000Y-81280000D02*
X246380000Y-81280000D01*
X245110000Y-105410000D02*
X245110000Y-102870000D01*
X245110000Y-105410000D02*
X238760000Y-105410000D01*
X253634000Y-110856000D02*
X252730000Y-111760000D01*
X259080000Y-110856000D02*
X253634000Y-110856000D01*
X259080000Y-102164000D02*
X261168000Y-102164000D01*
X261168000Y-102164000D02*
X262636000Y-103632000D01*
X262636000Y-103632000D02*
X262636000Y-108712000D01*
X261224000Y-108712000D02*
X259080000Y-110856000D01*
X262636000Y-108712000D02*
X261224000Y-108712000D01*
X259080000Y-102164000D02*
X255580000Y-102164000D01*
X255016000Y-101600000D02*
X252730000Y-101600000D01*
X255580000Y-102164000D02*
X255016000Y-101600000D01*
X246380000Y-80264000D02*
X247396000Y-79248000D01*
X246380000Y-81280000D02*
X246380000Y-80264000D01*
X247396000Y-79248000D02*
X247396000Y-76200000D01*
X234950000Y-105410000D02*
X238760000Y-105410000D01*
X254762000Y-51752500D02*
X253912001Y-50902501D01*
X263525000Y-52514500D02*
X263525000Y-50736500D01*
X263525000Y-50736500D02*
X261620000Y-48831500D01*
X257683000Y-48831500D02*
X254762000Y-51752500D01*
X261620000Y-48831500D02*
X257683000Y-48831500D01*
X218369000Y-51198444D02*
X219075000Y-50492444D01*
X218369000Y-52895500D02*
X218369000Y-51198444D01*
X219075000Y-50492444D02*
X219075000Y-50228500D01*
X219075000Y-50228500D02*
X219964000Y-49339500D01*
X225806000Y-49339500D02*
X228346000Y-51879500D01*
X219964000Y-49339500D02*
X225806000Y-49339500D01*
X245745000Y-73025000D02*
X249428000Y-69342000D01*
X245745000Y-74549000D02*
X245745000Y-73025000D01*
X245745000Y-74549000D02*
X243840000Y-72644000D01*
X247396000Y-76200000D02*
X245745000Y-74549000D01*
X249555000Y-69469000D02*
X249428000Y-69342000D01*
X228981000Y-99441000D02*
X228981000Y-84963000D01*
X234950000Y-105410000D02*
X228981000Y-99441000D01*
X228981000Y-84963000D02*
X223012000Y-78994000D01*
X223012000Y-78994000D02*
X223012000Y-74422000D01*
X223012000Y-74422000D02*
X218567000Y-69977000D01*
X218567000Y-69977000D02*
X218567000Y-67818000D01*
X218567000Y-67818000D02*
X220726000Y-65659000D01*
X231991001Y-68923001D02*
X232791000Y-69723000D01*
X220726000Y-65659000D02*
X220799010Y-65732010D01*
X243840000Y-72644000D02*
X242824000Y-72644000D01*
X239903000Y-69723000D02*
X232791000Y-69723000D01*
X242824000Y-72644000D02*
X239903000Y-69723000D01*
X252730000Y-81280000D02*
X259334000Y-81280000D01*
X231991001Y-68923001D02*
X227673001Y-68923001D01*
X224409000Y-65659000D02*
X220726000Y-65659000D01*
X227673001Y-68923001D02*
X224409000Y-65659000D01*
X263525000Y-53022500D02*
X263525000Y-52514500D01*
X251527919Y-101600000D02*
X250257919Y-102870000D01*
X252730000Y-101600000D02*
X251527919Y-101600000D01*
X250257919Y-102870000D02*
X245110000Y-102870000D01*
X229195999Y-51029501D02*
X229195999Y-50966001D01*
X228346000Y-51879500D02*
X229195999Y-51029501D01*
X229195999Y-50966001D02*
X230505000Y-49657000D01*
X252666500Y-49657000D02*
X254762000Y-51752500D01*
X241681000Y-53090419D02*
X241681000Y-49657000D01*
X230505000Y-49657000D02*
X241681000Y-49657000D01*
X241808000Y-53217419D02*
X241681000Y-53090419D01*
X241808000Y-54419500D02*
X241808000Y-53217419D01*
X241681000Y-49657000D02*
X252666500Y-49657000D01*
X259334000Y-81280000D02*
X260159500Y-81280000D01*
X260159500Y-81280000D02*
X261683500Y-79756000D01*
X265303000Y-84963000D02*
X266928600Y-84963000D01*
X266928600Y-84963000D02*
X273558000Y-78333600D01*
X273558000Y-78333600D02*
X273558000Y-60452000D01*
X273558000Y-60452000D02*
X265938000Y-52832000D01*
X263842500Y-52832000D02*
X263525000Y-52514500D01*
X265938000Y-52832000D02*
X263842500Y-52832000D01*
X249478800Y-69291200D02*
X249428000Y-69342000D01*
X255422400Y-69291200D02*
X249478800Y-69291200D01*
G04 #@! TO.N,Net-(R_Delay1-Pad2)*
X252730000Y-83820000D02*
X246380000Y-83820000D01*
G04 #@! TO.N,+3V3*
X243205000Y-110490000D02*
X245110000Y-108585000D01*
X238760000Y-110490000D02*
X243205000Y-110490000D01*
X252730000Y-114300000D02*
X250825000Y-114300000D01*
X252730000Y-104140000D02*
X248666000Y-108204000D01*
X245745000Y-108204000D02*
X245237000Y-108712000D01*
X248666000Y-108204000D02*
X245745000Y-108204000D01*
X250825000Y-114300000D02*
X245237000Y-108712000D01*
X245237000Y-108712000D02*
X245110000Y-108585000D01*
X259024000Y-114300000D02*
X259080000Y-114356000D01*
X252730000Y-114300000D02*
X259024000Y-114300000D01*
X254254000Y-105664000D02*
X252730000Y-104140000D01*
X259080000Y-105664000D02*
X254254000Y-105664000D01*
G04 #@! TO.N,D5*
X253746000Y-117856000D02*
X252730000Y-116840000D01*
X259080000Y-117856000D02*
X253746000Y-117856000D01*
X245745000Y-116840000D02*
X245110000Y-116205000D01*
X252730000Y-116840000D02*
X245745000Y-116840000D01*
X221615000Y-81915000D02*
X219710000Y-80010000D01*
X221615000Y-83947000D02*
X221615000Y-81915000D01*
X219710000Y-80010000D02*
X218440000Y-80010000D01*
X243967000Y-116205000D02*
X242316000Y-117856000D01*
X231648000Y-117856000D02*
X224917000Y-111125000D01*
X242316000Y-117856000D02*
X231648000Y-117856000D01*
X245110000Y-116205000D02*
X243967000Y-116205000D01*
X224917000Y-87249000D02*
X221615000Y-83947000D01*
X224917000Y-111125000D02*
X224917000Y-87249000D01*
G04 #@! TO.N,A0*
X240665000Y-102870000D02*
X238760000Y-102870000D01*
X252730000Y-99060000D02*
X244475000Y-99060000D01*
X244475000Y-99060000D02*
X240665000Y-102870000D01*
X253126000Y-98664000D02*
X252730000Y-99060000D01*
X259080000Y-98664000D02*
X253126000Y-98664000D01*
G04 #@! TO.N,D10*
X259715000Y-88900000D02*
X252730000Y-88900000D01*
X262255000Y-91440000D02*
X260731000Y-89916000D01*
X260731000Y-89916000D02*
X259715000Y-88900000D01*
X218440000Y-87630000D02*
X220472000Y-87630000D01*
X220472000Y-87630000D02*
X221869000Y-89027000D01*
X221869000Y-112649000D02*
X224663000Y-115443000D01*
X221869000Y-89027000D02*
X221869000Y-112649000D01*
X223520000Y-114300000D02*
X224663000Y-115443000D01*
X231267000Y-122047000D02*
X230378000Y-121158000D01*
X266192000Y-95377000D02*
X266192000Y-118681500D01*
X224663000Y-115443000D02*
X230378000Y-121158000D01*
X260731000Y-89916000D02*
X266192000Y-95377000D01*
X266192000Y-118681500D02*
X262826500Y-122047000D01*
X262826500Y-122047000D02*
X231267000Y-122047000D01*
G04 #@! TO.N,A5*
X241300000Y-90170000D02*
X238760000Y-90170000D01*
X242405001Y-89064999D02*
X241300000Y-90170000D01*
X241300000Y-91440000D02*
X245110000Y-95250000D01*
X241300000Y-90170000D02*
X241300000Y-91440000D01*
X242405001Y-79158999D02*
X244348000Y-77216000D01*
X242405001Y-89064999D02*
X242405001Y-79158999D01*
G04 #@! TO.N,VBUS*
X217932000Y-62357000D02*
X224282000Y-62357000D01*
X223393000Y-62357000D02*
X224282000Y-62357000D01*
X217237919Y-97790000D02*
X213360000Y-93912081D01*
X214630000Y-65659000D02*
X217932000Y-62357000D01*
X214630000Y-70739000D02*
X214630000Y-65659000D01*
X213360000Y-93912081D02*
X213360000Y-72009000D01*
X218440000Y-97790000D02*
X217237919Y-97790000D01*
X213360000Y-72009000D02*
X214630000Y-70739000D01*
X229235000Y-63627000D02*
X227965000Y-62357000D01*
X244094000Y-63627000D02*
X229235000Y-63627000D01*
X270052800Y-75793600D02*
X270052800Y-62433200D01*
X267055600Y-59436000D02*
X248285000Y-59436000D01*
X259461000Y-86360000D02*
X268160500Y-77660500D01*
X252730000Y-86360000D02*
X259461000Y-86360000D01*
X268160500Y-77660500D02*
X268185900Y-77660500D01*
X268185900Y-77660500D02*
X270052800Y-75793600D01*
X227965000Y-62357000D02*
X224282000Y-62357000D01*
X248285000Y-59436000D02*
X244094000Y-63627000D01*
X270052800Y-62433200D02*
X267055600Y-59436000D01*
G04 #@! TO.N,BATT*
X247142000Y-66802000D02*
X244348000Y-69596000D01*
X249428000Y-66802000D02*
X247142000Y-66802000D01*
G04 #@! TO.N,LOAD*
X255563000Y-63855600D02*
X255422400Y-63996200D01*
X265645000Y-63855600D02*
X255563000Y-63855600D01*
X255422400Y-63996200D02*
X255422400Y-66751200D01*
X266395200Y-64605800D02*
X265645000Y-63855600D01*
X266395200Y-67360800D02*
X266395200Y-64605800D01*
G04 #@! TO.N,SWITCHED_LOAD*
X255485000Y-78740000D02*
X252730000Y-78740000D01*
X262001000Y-72224000D02*
X255485000Y-78740000D01*
X262001000Y-72224000D02*
X262141600Y-72224000D01*
X263855200Y-70510400D02*
X263855200Y-67360800D01*
X262141600Y-72224000D02*
X263855200Y-70510400D01*
G04 #@! TO.N,A1*
X237557919Y-100330000D02*
X237430919Y-100203000D01*
X238760000Y-100330000D02*
X237557919Y-100330000D01*
X237430919Y-100203000D02*
X236982000Y-100203000D01*
X221869000Y-68961000D02*
X232791000Y-79883000D01*
X221869000Y-68834000D02*
X221869000Y-68961000D01*
X237430919Y-100203000D02*
X235585000Y-100203000D01*
X232791000Y-97409000D02*
X232791000Y-79883000D01*
X235585000Y-100203000D02*
X232791000Y-97409000D01*
G04 #@! TO.N,EXT_BAT*
X244475000Y-54292500D02*
X244348000Y-54419500D01*
X254762000Y-54292500D02*
X244475000Y-54292500D01*
X258247000Y-54292500D02*
X260025000Y-52514500D01*
X254762000Y-54292500D02*
X258247000Y-54292500D01*
X216789000Y-59182000D02*
X211709000Y-64262000D01*
X211709000Y-64262000D02*
X211709000Y-68834000D01*
X228854000Y-59182000D02*
X216789000Y-59182000D01*
X244348000Y-57721500D02*
X244348000Y-54419500D01*
X242404000Y-59665500D02*
X244348000Y-57721500D01*
X229337500Y-59665500D02*
X228854000Y-59182000D01*
X242404000Y-59665500D02*
X229337500Y-59665500D01*
G04 #@! TO.N,5V_OUT*
X223393000Y-54419500D02*
X228346000Y-54419500D01*
X221869000Y-52895500D02*
X223393000Y-54419500D01*
X239268000Y-54419500D02*
X228346000Y-54419500D01*
G04 #@! TD*
M02*
