G04 #@! TF.GenerationSoftware,KiCad,Pcbnew,5.1.2-f72e74a~84~ubuntu18.04.1*
G04 #@! TF.CreationDate,2019-07-30T15:07:21-04:00*
G04 #@! TF.ProjectId,knuth-gateway,6b6e7574-682d-4676-9174-657761792e6b,rev?*
G04 #@! TF.SameCoordinates,Original*
G04 #@! TF.FileFunction,Legend,Top*
G04 #@! TF.FilePolarity,Positive*
%FSLAX46Y46*%
G04 Gerber Fmt 4.6, Leading zero omitted, Abs format (unit mm)*
G04 Created by KiCad (PCBNEW 5.1.2-f72e74a~84~ubuntu18.04.1) date 2019-07-30 15:07:21*
%MOMM*%
%LPD*%
G04 APERTURE LIST*
%ADD10C,0.300000*%
%ADD11C,0.120000*%
%ADD12C,0.150000*%
G04 APERTURE END LIST*
D10*
X243577371Y-61798685D02*
X245077371Y-61298685D01*
X243577371Y-60798685D01*
X244291657Y-60298685D02*
X244291657Y-59798685D01*
X245077371Y-59584400D02*
X245077371Y-60298685D01*
X243577371Y-60298685D01*
X243577371Y-59584400D01*
X243577371Y-59084400D02*
X245077371Y-58084400D01*
X243577371Y-58084400D02*
X245077371Y-59084400D01*
X243577371Y-57727257D02*
X243577371Y-56870114D01*
X245077371Y-57298685D02*
X243577371Y-57298685D01*
X241058000Y-60070857D02*
X240986571Y-60213714D01*
X240986571Y-60428000D01*
X241058000Y-60642285D01*
X241200857Y-60785142D01*
X241343714Y-60856571D01*
X241629428Y-60928000D01*
X241843714Y-60928000D01*
X242129428Y-60856571D01*
X242272285Y-60785142D01*
X242415142Y-60642285D01*
X242486571Y-60428000D01*
X242486571Y-60285142D01*
X242415142Y-60070857D01*
X242343714Y-59999428D01*
X241843714Y-59999428D01*
X241843714Y-60285142D01*
X242486571Y-59356571D02*
X240986571Y-59356571D01*
X242486571Y-58499428D01*
X240986571Y-58499428D01*
X242486571Y-57785142D02*
X240986571Y-57785142D01*
X240986571Y-57428000D01*
X241058000Y-57213714D01*
X241200857Y-57070857D01*
X241343714Y-56999428D01*
X241629428Y-56928000D01*
X241843714Y-56928000D01*
X242129428Y-56999428D01*
X242272285Y-57070857D01*
X242415142Y-57213714D01*
X242486571Y-57428000D01*
X242486571Y-57785142D01*
X238497371Y-62169371D02*
X238497371Y-62883657D01*
X239211657Y-62955085D01*
X239140228Y-62883657D01*
X239068800Y-62740800D01*
X239068800Y-62383657D01*
X239140228Y-62240800D01*
X239211657Y-62169371D01*
X239354514Y-62097942D01*
X239711657Y-62097942D01*
X239854514Y-62169371D01*
X239925942Y-62240800D01*
X239997371Y-62383657D01*
X239997371Y-62740800D01*
X239925942Y-62883657D01*
X239854514Y-62955085D01*
X238497371Y-61669371D02*
X239997371Y-61169371D01*
X238497371Y-60669371D01*
X238497371Y-59883657D02*
X238497371Y-59597942D01*
X238568800Y-59455085D01*
X238711657Y-59312228D01*
X238997371Y-59240800D01*
X239497371Y-59240800D01*
X239783085Y-59312228D01*
X239925942Y-59455085D01*
X239997371Y-59597942D01*
X239997371Y-59883657D01*
X239925942Y-60026514D01*
X239783085Y-60169371D01*
X239497371Y-60240800D01*
X238997371Y-60240800D01*
X238711657Y-60169371D01*
X238568800Y-60026514D01*
X238497371Y-59883657D01*
X238497371Y-58597942D02*
X239711657Y-58597942D01*
X239854514Y-58526514D01*
X239925942Y-58455085D01*
X239997371Y-58312228D01*
X239997371Y-58026514D01*
X239925942Y-57883657D01*
X239854514Y-57812228D01*
X239711657Y-57740800D01*
X238497371Y-57740800D01*
X238497371Y-57240800D02*
X238497371Y-56383657D01*
X239997371Y-56812228D02*
X238497371Y-56812228D01*
X262902000Y-60070857D02*
X262830571Y-60213714D01*
X262830571Y-60428000D01*
X262902000Y-60642285D01*
X263044857Y-60785142D01*
X263187714Y-60856571D01*
X263473428Y-60928000D01*
X263687714Y-60928000D01*
X263973428Y-60856571D01*
X264116285Y-60785142D01*
X264259142Y-60642285D01*
X264330571Y-60428000D01*
X264330571Y-60285142D01*
X264259142Y-60070857D01*
X264187714Y-59999428D01*
X263687714Y-59999428D01*
X263687714Y-60285142D01*
X264330571Y-59356571D02*
X262830571Y-59356571D01*
X264330571Y-58499428D01*
X262830571Y-58499428D01*
X264330571Y-57785142D02*
X262830571Y-57785142D01*
X262830571Y-57428000D01*
X262902000Y-57213714D01*
X263044857Y-57070857D01*
X263187714Y-56999428D01*
X263473428Y-56928000D01*
X263687714Y-56928000D01*
X263973428Y-56999428D01*
X264116285Y-57070857D01*
X264259142Y-57213714D01*
X264330571Y-57428000D01*
X264330571Y-57785142D01*
X259274571Y-61392285D02*
X260774571Y-60892285D01*
X259274571Y-60392285D01*
X259988857Y-59892285D02*
X259988857Y-59392285D01*
X260774571Y-59178000D02*
X260774571Y-59892285D01*
X259274571Y-59892285D01*
X259274571Y-59178000D01*
X259274571Y-58678000D02*
X260774571Y-57678000D01*
X259274571Y-57678000D02*
X260774571Y-58678000D01*
X259274571Y-57320857D02*
X259274571Y-56463714D01*
X260774571Y-56892285D02*
X259274571Y-56892285D01*
X255154857Y-47764000D02*
X255012000Y-47692571D01*
X254797714Y-47692571D01*
X254583428Y-47764000D01*
X254440571Y-47906857D01*
X254369142Y-48049714D01*
X254297714Y-48335428D01*
X254297714Y-48549714D01*
X254369142Y-48835428D01*
X254440571Y-48978285D01*
X254583428Y-49121142D01*
X254797714Y-49192571D01*
X254940571Y-49192571D01*
X255154857Y-49121142D01*
X255226285Y-49049714D01*
X255226285Y-48549714D01*
X254940571Y-48549714D01*
X252348514Y-57039771D02*
X252848514Y-58539771D01*
X253348514Y-57039771D01*
X253848514Y-57754057D02*
X254348514Y-57754057D01*
X254562800Y-58539771D02*
X253848514Y-58539771D01*
X253848514Y-57039771D01*
X254562800Y-57039771D01*
X255062800Y-57039771D02*
X256062800Y-58539771D01*
X256062800Y-57039771D02*
X255062800Y-58539771D01*
X256419942Y-57039771D02*
X257277085Y-57039771D01*
X256848514Y-58539771D02*
X256848514Y-57039771D01*
X227697600Y-48730742D02*
X227626171Y-48873600D01*
X227626171Y-49087885D01*
X227697600Y-49302171D01*
X227840457Y-49445028D01*
X227983314Y-49516457D01*
X228269028Y-49587885D01*
X228483314Y-49587885D01*
X228769028Y-49516457D01*
X228911885Y-49445028D01*
X229054742Y-49302171D01*
X229126171Y-49087885D01*
X229126171Y-48945028D01*
X229054742Y-48730742D01*
X228983314Y-48659314D01*
X228483314Y-48659314D01*
X228483314Y-48945028D01*
X227727771Y-62575771D02*
X227727771Y-63290057D01*
X228442057Y-63361485D01*
X228370628Y-63290057D01*
X228299200Y-63147200D01*
X228299200Y-62790057D01*
X228370628Y-62647200D01*
X228442057Y-62575771D01*
X228584914Y-62504342D01*
X228942057Y-62504342D01*
X229084914Y-62575771D01*
X229156342Y-62647200D01*
X229227771Y-62790057D01*
X229227771Y-63147200D01*
X229156342Y-63290057D01*
X229084914Y-63361485D01*
X227727771Y-62075771D02*
X229227771Y-61575771D01*
X227727771Y-61075771D01*
X227727771Y-60290057D02*
X227727771Y-60004342D01*
X227799200Y-59861485D01*
X227942057Y-59718628D01*
X228227771Y-59647200D01*
X228727771Y-59647200D01*
X229013485Y-59718628D01*
X229156342Y-59861485D01*
X229227771Y-60004342D01*
X229227771Y-60290057D01*
X229156342Y-60432914D01*
X229013485Y-60575771D01*
X228727771Y-60647200D01*
X228227771Y-60647200D01*
X227942057Y-60575771D01*
X227799200Y-60432914D01*
X227727771Y-60290057D01*
X227727771Y-59004342D02*
X228942057Y-59004342D01*
X229084914Y-58932914D01*
X229156342Y-58861485D01*
X229227771Y-58718628D01*
X229227771Y-58432914D01*
X229156342Y-58290057D01*
X229084914Y-58218628D01*
X228942057Y-58147200D01*
X227727771Y-58147200D01*
X227727771Y-57647200D02*
X227727771Y-56790057D01*
X229227771Y-57218628D02*
X227727771Y-57218628D01*
X221428571Y-62829771D02*
X221428571Y-63544057D01*
X222142857Y-63615485D01*
X222071428Y-63544057D01*
X222000000Y-63401200D01*
X222000000Y-63044057D01*
X222071428Y-62901200D01*
X222142857Y-62829771D01*
X222285714Y-62758342D01*
X222642857Y-62758342D01*
X222785714Y-62829771D01*
X222857142Y-62901200D01*
X222928571Y-63044057D01*
X222928571Y-63401200D01*
X222857142Y-63544057D01*
X222785714Y-63615485D01*
X221428571Y-62329771D02*
X222928571Y-61829771D01*
X221428571Y-61329771D01*
X221428571Y-60544057D02*
X221428571Y-60258342D01*
X221500000Y-60115485D01*
X221642857Y-59972628D01*
X221928571Y-59901200D01*
X222428571Y-59901200D01*
X222714285Y-59972628D01*
X222857142Y-60115485D01*
X222928571Y-60258342D01*
X222928571Y-60544057D01*
X222857142Y-60686914D01*
X222714285Y-60829771D01*
X222428571Y-60901200D01*
X221928571Y-60901200D01*
X221642857Y-60829771D01*
X221500000Y-60686914D01*
X221428571Y-60544057D01*
X221428571Y-59258342D02*
X222642857Y-59258342D01*
X222785714Y-59186914D01*
X222857142Y-59115485D01*
X222928571Y-58972628D01*
X222928571Y-58686914D01*
X222857142Y-58544057D01*
X222785714Y-58472628D01*
X222642857Y-58401200D01*
X221428571Y-58401200D01*
X221428571Y-57901200D02*
X221428571Y-57044057D01*
X222928571Y-57472628D02*
X221428571Y-57472628D01*
X217639200Y-60426457D02*
X217567771Y-60569314D01*
X217567771Y-60783600D01*
X217639200Y-60997885D01*
X217782057Y-61140742D01*
X217924914Y-61212171D01*
X218210628Y-61283600D01*
X218424914Y-61283600D01*
X218710628Y-61212171D01*
X218853485Y-61140742D01*
X218996342Y-60997885D01*
X219067771Y-60783600D01*
X219067771Y-60640742D01*
X218996342Y-60426457D01*
X218924914Y-60355028D01*
X218424914Y-60355028D01*
X218424914Y-60640742D01*
X219067771Y-59712171D02*
X217567771Y-59712171D01*
X219067771Y-58855028D01*
X217567771Y-58855028D01*
X219067771Y-58140742D02*
X217567771Y-58140742D01*
X217567771Y-57783600D01*
X217639200Y-57569314D01*
X217782057Y-57426457D01*
X217924914Y-57355028D01*
X218210628Y-57283600D01*
X218424914Y-57283600D01*
X218710628Y-57355028D01*
X218853485Y-57426457D01*
X218996342Y-57569314D01*
X219067771Y-57783600D01*
X219067771Y-58140742D01*
X255111500Y-77918571D02*
X255611500Y-79418571D01*
X256111500Y-77918571D01*
X256611500Y-79418571D02*
X256611500Y-77918571D01*
X256968642Y-77918571D01*
X257182928Y-77990000D01*
X257325785Y-78132857D01*
X257397214Y-78275714D01*
X257468642Y-78561428D01*
X257468642Y-78775714D01*
X257397214Y-79061428D01*
X257325785Y-79204285D01*
X257182928Y-79347142D01*
X256968642Y-79418571D01*
X256611500Y-79418571D01*
X258111500Y-79418571D02*
X258111500Y-77918571D01*
X258468642Y-77918571D01*
X258682928Y-77990000D01*
X258825785Y-78132857D01*
X258897214Y-78275714D01*
X258968642Y-78561428D01*
X258968642Y-78775714D01*
X258897214Y-79061428D01*
X258825785Y-79204285D01*
X258682928Y-79347142D01*
X258468642Y-79418571D01*
X258111500Y-79418571D01*
X256006742Y-80720500D02*
X255863885Y-80649071D01*
X255649600Y-80649071D01*
X255435314Y-80720500D01*
X255292457Y-80863357D01*
X255221028Y-81006214D01*
X255149600Y-81291928D01*
X255149600Y-81506214D01*
X255221028Y-81791928D01*
X255292457Y-81934785D01*
X255435314Y-82077642D01*
X255649600Y-82149071D01*
X255792457Y-82149071D01*
X256006742Y-82077642D01*
X256078171Y-82006214D01*
X256078171Y-81506214D01*
X255792457Y-81506214D01*
X256721028Y-82149071D02*
X256721028Y-80649071D01*
X257578171Y-82149071D01*
X257578171Y-80649071D01*
X258292457Y-82149071D02*
X258292457Y-80649071D01*
X258649600Y-80649071D01*
X258863885Y-80720500D01*
X259006742Y-80863357D01*
X259078171Y-81006214D01*
X259149600Y-81291928D01*
X259149600Y-81506214D01*
X259078171Y-81791928D01*
X259006742Y-81934785D01*
X258863885Y-82077642D01*
X258649600Y-82149071D01*
X258292457Y-82149071D01*
X255226714Y-84752571D02*
X255226714Y-83252571D01*
X255583857Y-83252571D01*
X255798142Y-83324000D01*
X255941000Y-83466857D01*
X256012428Y-83609714D01*
X256083857Y-83895428D01*
X256083857Y-84109714D01*
X256012428Y-84395428D01*
X255941000Y-84538285D01*
X255798142Y-84681142D01*
X255583857Y-84752571D01*
X255226714Y-84752571D01*
X256726714Y-83966857D02*
X257226714Y-83966857D01*
X257441000Y-84752571D02*
X256726714Y-84752571D01*
X256726714Y-83252571D01*
X257441000Y-83252571D01*
X258798142Y-84752571D02*
X258083857Y-84752571D01*
X258083857Y-83252571D01*
X259226714Y-84324000D02*
X259941000Y-84324000D01*
X259083857Y-84752571D02*
X259583857Y-83252571D01*
X260083857Y-84752571D01*
X260869571Y-84038285D02*
X260869571Y-84752571D01*
X260369571Y-83252571D02*
X260869571Y-84038285D01*
X261369571Y-83252571D01*
X255452785Y-87102071D02*
X255452785Y-85602071D01*
X255809928Y-85602071D01*
X256024214Y-85673500D01*
X256167071Y-85816357D01*
X256238500Y-85959214D01*
X256309928Y-86244928D01*
X256309928Y-86459214D01*
X256238500Y-86744928D01*
X256167071Y-86887785D01*
X256024214Y-87030642D01*
X255809928Y-87102071D01*
X255452785Y-87102071D01*
X257809928Y-87102071D02*
X257309928Y-86387785D01*
X256952785Y-87102071D02*
X256952785Y-85602071D01*
X257524214Y-85602071D01*
X257667071Y-85673500D01*
X257738500Y-85744928D01*
X257809928Y-85887785D01*
X257809928Y-86102071D01*
X257738500Y-86244928D01*
X257667071Y-86316357D01*
X257524214Y-86387785D01*
X256952785Y-86387785D01*
X258238500Y-85602071D02*
X258738500Y-87102071D01*
X259238500Y-85602071D01*
X255357642Y-89705571D02*
X255357642Y-88205571D01*
X255714785Y-88205571D01*
X255929071Y-88277000D01*
X256071928Y-88419857D01*
X256143357Y-88562714D01*
X256214785Y-88848428D01*
X256214785Y-89062714D01*
X256143357Y-89348428D01*
X256071928Y-89491285D01*
X255929071Y-89634142D01*
X255714785Y-89705571D01*
X255357642Y-89705571D01*
X257143357Y-88205571D02*
X257429071Y-88205571D01*
X257571928Y-88277000D01*
X257714785Y-88419857D01*
X257786214Y-88705571D01*
X257786214Y-89205571D01*
X257714785Y-89491285D01*
X257571928Y-89634142D01*
X257429071Y-89705571D01*
X257143357Y-89705571D01*
X257000500Y-89634142D01*
X256857642Y-89491285D01*
X256786214Y-89205571D01*
X256786214Y-88705571D01*
X256857642Y-88419857D01*
X257000500Y-88277000D01*
X257143357Y-88205571D01*
X258429071Y-89705571D02*
X258429071Y-88205571D01*
X259286214Y-89705571D01*
X259286214Y-88205571D01*
X260000500Y-88919857D02*
X260500500Y-88919857D01*
X260714785Y-89705571D02*
X260000500Y-89705571D01*
X260000500Y-88205571D01*
X260714785Y-88205571D01*
X248881200Y-74802857D02*
X248809771Y-74945714D01*
X248809771Y-75160000D01*
X248881200Y-75374285D01*
X249024057Y-75517142D01*
X249166914Y-75588571D01*
X249452628Y-75660000D01*
X249666914Y-75660000D01*
X249952628Y-75588571D01*
X250095485Y-75517142D01*
X250238342Y-75374285D01*
X250309771Y-75160000D01*
X250309771Y-75017142D01*
X250238342Y-74802857D01*
X250166914Y-74731428D01*
X249666914Y-74731428D01*
X249666914Y-75017142D01*
X250309771Y-74088571D02*
X248809771Y-74088571D01*
X250309771Y-73231428D01*
X248809771Y-73231428D01*
X250309771Y-72517142D02*
X248809771Y-72517142D01*
X248809771Y-72160000D01*
X248881200Y-71945714D01*
X249024057Y-71802857D01*
X249166914Y-71731428D01*
X249452628Y-71660000D01*
X249666914Y-71660000D01*
X249952628Y-71731428D01*
X250095485Y-71802857D01*
X250238342Y-71945714D01*
X250309771Y-72160000D01*
X250309771Y-72517142D01*
X253708114Y-64381771D02*
X252993828Y-64381771D01*
X252993828Y-62881771D01*
X254493828Y-62881771D02*
X254779542Y-62881771D01*
X254922400Y-62953200D01*
X255065257Y-63096057D01*
X255136685Y-63381771D01*
X255136685Y-63881771D01*
X255065257Y-64167485D01*
X254922400Y-64310342D01*
X254779542Y-64381771D01*
X254493828Y-64381771D01*
X254350971Y-64310342D01*
X254208114Y-64167485D01*
X254136685Y-63881771D01*
X254136685Y-63381771D01*
X254208114Y-63096057D01*
X254350971Y-62953200D01*
X254493828Y-62881771D01*
X255708114Y-63953200D02*
X256422400Y-63953200D01*
X255565257Y-64381771D02*
X256065257Y-62881771D01*
X256565257Y-64381771D01*
X257065257Y-64381771D02*
X257065257Y-62881771D01*
X257422400Y-62881771D01*
X257636685Y-62953200D01*
X257779542Y-63096057D01*
X257850971Y-63238914D01*
X257922400Y-63524628D01*
X257922400Y-63738914D01*
X257850971Y-64024628D01*
X257779542Y-64167485D01*
X257636685Y-64310342D01*
X257422400Y-64381771D01*
X257065257Y-64381771D01*
X265592571Y-89226400D02*
X265592571Y-89583542D01*
X263449714Y-89583542D01*
X263449714Y-89226400D01*
X263592571Y-88869257D02*
X263592571Y-88012114D01*
X265092571Y-88440685D02*
X263592571Y-88440685D01*
X265092571Y-87512114D02*
X263592571Y-87512114D01*
X263592571Y-86940685D01*
X263664000Y-86797828D01*
X263735428Y-86726400D01*
X263878285Y-86654971D01*
X264092571Y-86654971D01*
X264235428Y-86726400D01*
X264306857Y-86797828D01*
X264378285Y-86940685D01*
X264378285Y-87512114D01*
X265092571Y-85297828D02*
X265092571Y-86012114D01*
X263592571Y-86012114D01*
X263592571Y-84083542D02*
X263592571Y-84797828D01*
X264306857Y-84869257D01*
X264235428Y-84797828D01*
X264164000Y-84654971D01*
X264164000Y-84297828D01*
X264235428Y-84154971D01*
X264306857Y-84083542D01*
X264449714Y-84012114D01*
X264806857Y-84012114D01*
X264949714Y-84083542D01*
X265021142Y-84154971D01*
X265092571Y-84297828D01*
X265092571Y-84654971D01*
X265021142Y-84797828D01*
X264949714Y-84869257D01*
X265092571Y-82583542D02*
X265092571Y-83440685D01*
X265092571Y-83012114D02*
X263592571Y-83012114D01*
X263806857Y-83154971D01*
X263949714Y-83297828D01*
X264021142Y-83440685D01*
X265092571Y-81154971D02*
X265092571Y-82012114D01*
X265092571Y-81583542D02*
X263592571Y-81583542D01*
X263806857Y-81726400D01*
X263949714Y-81869257D01*
X264021142Y-82012114D01*
X263592571Y-80226400D02*
X263592571Y-80083542D01*
X263664000Y-79940685D01*
X263735428Y-79869257D01*
X263878285Y-79797828D01*
X264164000Y-79726400D01*
X264521142Y-79726400D01*
X264806857Y-79797828D01*
X264949714Y-79869257D01*
X265021142Y-79940685D01*
X265092571Y-80083542D01*
X265092571Y-80226400D01*
X265021142Y-80369257D01*
X264949714Y-80440685D01*
X264806857Y-80512114D01*
X264521142Y-80583542D01*
X264164000Y-80583542D01*
X263878285Y-80512114D01*
X263735428Y-80440685D01*
X263664000Y-80369257D01*
X263592571Y-80226400D01*
X265592571Y-79226400D02*
X265592571Y-78869257D01*
X263449714Y-78869257D01*
X263449714Y-79226400D01*
X229168971Y-91343085D02*
X229168971Y-91700228D01*
X227026114Y-91700228D01*
X227026114Y-91343085D01*
X227668971Y-90985942D02*
X227668971Y-90414514D01*
X228668971Y-90771657D02*
X227383257Y-90771657D01*
X227240400Y-90700228D01*
X227168971Y-90557371D01*
X227168971Y-90414514D01*
X228597542Y-89343085D02*
X228668971Y-89485942D01*
X228668971Y-89771657D01*
X228597542Y-89914514D01*
X228454685Y-89985942D01*
X227883257Y-89985942D01*
X227740400Y-89914514D01*
X227668971Y-89771657D01*
X227668971Y-89485942D01*
X227740400Y-89343085D01*
X227883257Y-89271657D01*
X228026114Y-89271657D01*
X228168971Y-89985942D01*
X228668971Y-87985942D02*
X227883257Y-87985942D01*
X227740400Y-88057371D01*
X227668971Y-88200228D01*
X227668971Y-88485942D01*
X227740400Y-88628800D01*
X228597542Y-87985942D02*
X228668971Y-88128800D01*
X228668971Y-88485942D01*
X228597542Y-88628800D01*
X228454685Y-88700228D01*
X228311828Y-88700228D01*
X228168971Y-88628800D01*
X228097542Y-88485942D01*
X228097542Y-88128800D01*
X228026114Y-87985942D01*
X227668971Y-87485942D02*
X227668971Y-86914514D01*
X227168971Y-87271657D02*
X228454685Y-87271657D01*
X228597542Y-87200228D01*
X228668971Y-87057371D01*
X228668971Y-86914514D01*
X228668971Y-86414514D02*
X227168971Y-86414514D01*
X228668971Y-85771657D02*
X227883257Y-85771657D01*
X227740400Y-85843085D01*
X227668971Y-85985942D01*
X227668971Y-86200228D01*
X227740400Y-86343085D01*
X227811828Y-86414514D01*
X228597542Y-84485942D02*
X228668971Y-84628800D01*
X228668971Y-84914514D01*
X228597542Y-85057371D01*
X228454685Y-85128800D01*
X227883257Y-85128800D01*
X227740400Y-85057371D01*
X227668971Y-84914514D01*
X227668971Y-84628800D01*
X227740400Y-84485942D01*
X227883257Y-84414514D01*
X228026114Y-84414514D01*
X228168971Y-85128800D01*
X228668971Y-83771657D02*
X227668971Y-83771657D01*
X227954685Y-83771657D02*
X227811828Y-83700228D01*
X227740400Y-83628800D01*
X227668971Y-83485942D01*
X227668971Y-83343085D01*
X228668971Y-81485942D02*
X228597542Y-81628800D01*
X228454685Y-81700228D01*
X227168971Y-81700228D01*
X228668971Y-80700228D02*
X228597542Y-80843085D01*
X228526114Y-80914514D01*
X228383257Y-80985942D01*
X227954685Y-80985942D01*
X227811828Y-80914514D01*
X227740400Y-80843085D01*
X227668971Y-80700228D01*
X227668971Y-80485942D01*
X227740400Y-80343085D01*
X227811828Y-80271657D01*
X227954685Y-80200228D01*
X228383257Y-80200228D01*
X228526114Y-80271657D01*
X228597542Y-80343085D01*
X228668971Y-80485942D01*
X228668971Y-80700228D01*
X228668971Y-79557371D02*
X227668971Y-79557371D01*
X227954685Y-79557371D02*
X227811828Y-79485942D01*
X227740400Y-79414514D01*
X227668971Y-79271657D01*
X227668971Y-79128800D01*
X228668971Y-77985942D02*
X227883257Y-77985942D01*
X227740400Y-78057371D01*
X227668971Y-78200228D01*
X227668971Y-78485942D01*
X227740400Y-78628800D01*
X228597542Y-77985942D02*
X228668971Y-78128800D01*
X228668971Y-78485942D01*
X228597542Y-78628800D01*
X228454685Y-78700228D01*
X228311828Y-78700228D01*
X228168971Y-78628800D01*
X228097542Y-78485942D01*
X228097542Y-78128800D01*
X228026114Y-77985942D01*
X229168971Y-77414514D02*
X229168971Y-77057371D01*
X227026114Y-77057371D01*
X227026114Y-77414514D01*
X248473257Y-63392857D02*
X248687542Y-63464285D01*
X248758971Y-63535714D01*
X248830400Y-63678571D01*
X248830400Y-63892857D01*
X248758971Y-64035714D01*
X248687542Y-64107142D01*
X248544685Y-64178571D01*
X247973257Y-64178571D01*
X247973257Y-62678571D01*
X248473257Y-62678571D01*
X248616114Y-62750000D01*
X248687542Y-62821428D01*
X248758971Y-62964285D01*
X248758971Y-63107142D01*
X248687542Y-63250000D01*
X248616114Y-63321428D01*
X248473257Y-63392857D01*
X247973257Y-63392857D01*
X249401828Y-63750000D02*
X250116114Y-63750000D01*
X249258971Y-64178571D02*
X249758971Y-62678571D01*
X250258971Y-64178571D01*
X250544685Y-62678571D02*
X251401828Y-62678571D01*
X250973257Y-64178571D02*
X250973257Y-62678571D01*
X254723200Y-74599657D02*
X254651771Y-74742514D01*
X254651771Y-74956800D01*
X254723200Y-75171085D01*
X254866057Y-75313942D01*
X255008914Y-75385371D01*
X255294628Y-75456800D01*
X255508914Y-75456800D01*
X255794628Y-75385371D01*
X255937485Y-75313942D01*
X256080342Y-75171085D01*
X256151771Y-74956800D01*
X256151771Y-74813942D01*
X256080342Y-74599657D01*
X256008914Y-74528228D01*
X255508914Y-74528228D01*
X255508914Y-74813942D01*
X256151771Y-73885371D02*
X254651771Y-73885371D01*
X256151771Y-73028228D01*
X254651771Y-73028228D01*
X256151771Y-72313942D02*
X254651771Y-72313942D01*
X254651771Y-71956800D01*
X254723200Y-71742514D01*
X254866057Y-71599657D01*
X255008914Y-71528228D01*
X255294628Y-71456800D01*
X255508914Y-71456800D01*
X255794628Y-71528228D01*
X255937485Y-71599657D01*
X256080342Y-71742514D01*
X256151771Y-71956800D01*
X256151771Y-72313942D01*
X265120571Y-99310000D02*
X265834857Y-99310000D01*
X264977714Y-99738571D02*
X265477714Y-98238571D01*
X265977714Y-99738571D01*
X266763428Y-98238571D02*
X266906285Y-98238571D01*
X267049142Y-98310000D01*
X267120571Y-98381428D01*
X267192000Y-98524285D01*
X267263428Y-98810000D01*
X267263428Y-99167142D01*
X267192000Y-99452857D01*
X267120571Y-99595714D01*
X267049142Y-99667142D01*
X266906285Y-99738571D01*
X266763428Y-99738571D01*
X266620571Y-99667142D01*
X266549142Y-99595714D01*
X266477714Y-99452857D01*
X266406285Y-99167142D01*
X266406285Y-98810000D01*
X266477714Y-98524285D01*
X266549142Y-98381428D01*
X266620571Y-98310000D01*
X266763428Y-98238571D01*
X264842857Y-104842571D02*
X265771428Y-104842571D01*
X265271428Y-105414000D01*
X265485714Y-105414000D01*
X265628571Y-105485428D01*
X265700000Y-105556857D01*
X265771428Y-105699714D01*
X265771428Y-106056857D01*
X265700000Y-106199714D01*
X265628571Y-106271142D01*
X265485714Y-106342571D01*
X265057142Y-106342571D01*
X264914285Y-106271142D01*
X264842857Y-106199714D01*
X266200000Y-104842571D02*
X266700000Y-106342571D01*
X267200000Y-104842571D01*
X267557142Y-104842571D02*
X268485714Y-104842571D01*
X267985714Y-105414000D01*
X268200000Y-105414000D01*
X268342857Y-105485428D01*
X268414285Y-105556857D01*
X268485714Y-105699714D01*
X268485714Y-106056857D01*
X268414285Y-106199714D01*
X268342857Y-106271142D01*
X268200000Y-106342571D01*
X267771428Y-106342571D01*
X267628571Y-106271142D01*
X267557142Y-106199714D01*
X265557142Y-101358000D02*
X265414285Y-101286571D01*
X265200000Y-101286571D01*
X264985714Y-101358000D01*
X264842857Y-101500857D01*
X264771428Y-101643714D01*
X264700000Y-101929428D01*
X264700000Y-102143714D01*
X264771428Y-102429428D01*
X264842857Y-102572285D01*
X264985714Y-102715142D01*
X265200000Y-102786571D01*
X265342857Y-102786571D01*
X265557142Y-102715142D01*
X265628571Y-102643714D01*
X265628571Y-102143714D01*
X265342857Y-102143714D01*
X266271428Y-102786571D02*
X266271428Y-101286571D01*
X267128571Y-102786571D01*
X267128571Y-101286571D01*
X267842857Y-102786571D02*
X267842857Y-101286571D01*
X268200000Y-101286571D01*
X268414285Y-101358000D01*
X268557142Y-101500857D01*
X268628571Y-101643714D01*
X268700000Y-101929428D01*
X268700000Y-102143714D01*
X268628571Y-102429428D01*
X268557142Y-102572285D01*
X268414285Y-102715142D01*
X268200000Y-102786571D01*
X267842857Y-102786571D01*
X265084857Y-118534571D02*
X265084857Y-117034571D01*
X265442000Y-117034571D01*
X265656285Y-117106000D01*
X265799142Y-117248857D01*
X265870571Y-117391714D01*
X265942000Y-117677428D01*
X265942000Y-117891714D01*
X265870571Y-118177428D01*
X265799142Y-118320285D01*
X265656285Y-118463142D01*
X265442000Y-118534571D01*
X265084857Y-118534571D01*
X267299142Y-117034571D02*
X266584857Y-117034571D01*
X266513428Y-117748857D01*
X266584857Y-117677428D01*
X266727714Y-117606000D01*
X267084857Y-117606000D01*
X267227714Y-117677428D01*
X267299142Y-117748857D01*
X267370571Y-117891714D01*
X267370571Y-118248857D01*
X267299142Y-118391714D01*
X267227714Y-118463142D01*
X267084857Y-118534571D01*
X266727714Y-118534571D01*
X266584857Y-118463142D01*
X266513428Y-118391714D01*
X264842857Y-113681771D02*
X265771428Y-113681771D01*
X265271428Y-114253200D01*
X265485714Y-114253200D01*
X265628571Y-114324628D01*
X265700000Y-114396057D01*
X265771428Y-114538914D01*
X265771428Y-114896057D01*
X265700000Y-115038914D01*
X265628571Y-115110342D01*
X265485714Y-115181771D01*
X265057142Y-115181771D01*
X264914285Y-115110342D01*
X264842857Y-115038914D01*
X266200000Y-113681771D02*
X266700000Y-115181771D01*
X267200000Y-113681771D01*
X267557142Y-113681771D02*
X268485714Y-113681771D01*
X267985714Y-114253200D01*
X268200000Y-114253200D01*
X268342857Y-114324628D01*
X268414285Y-114396057D01*
X268485714Y-114538914D01*
X268485714Y-114896057D01*
X268414285Y-115038914D01*
X268342857Y-115110342D01*
X268200000Y-115181771D01*
X267771428Y-115181771D01*
X267628571Y-115110342D01*
X267557142Y-115038914D01*
X265557142Y-109994000D02*
X265414285Y-109922571D01*
X265200000Y-109922571D01*
X264985714Y-109994000D01*
X264842857Y-110136857D01*
X264771428Y-110279714D01*
X264700000Y-110565428D01*
X264700000Y-110779714D01*
X264771428Y-111065428D01*
X264842857Y-111208285D01*
X264985714Y-111351142D01*
X265200000Y-111422571D01*
X265342857Y-111422571D01*
X265557142Y-111351142D01*
X265628571Y-111279714D01*
X265628571Y-110779714D01*
X265342857Y-110779714D01*
X266271428Y-111422571D02*
X266271428Y-109922571D01*
X267128571Y-111422571D01*
X267128571Y-109922571D01*
X267842857Y-111422571D02*
X267842857Y-109922571D01*
X268200000Y-109922571D01*
X268414285Y-109994000D01*
X268557142Y-110136857D01*
X268628571Y-110279714D01*
X268700000Y-110565428D01*
X268700000Y-110779714D01*
X268628571Y-111065428D01*
X268557142Y-111208285D01*
X268414285Y-111351142D01*
X268200000Y-111422571D01*
X267842857Y-111422571D01*
X261644285Y-63237371D02*
X261930000Y-63237371D01*
X262072857Y-63308800D01*
X262215714Y-63451657D01*
X262287142Y-63737371D01*
X262287142Y-64237371D01*
X262215714Y-64523085D01*
X262072857Y-64665942D01*
X261930000Y-64737371D01*
X261644285Y-64737371D01*
X261501428Y-64665942D01*
X261358571Y-64523085D01*
X261287142Y-64237371D01*
X261287142Y-63737371D01*
X261358571Y-63451657D01*
X261501428Y-63308800D01*
X261644285Y-63237371D01*
X263430000Y-63951657D02*
X262930000Y-63951657D01*
X262930000Y-64737371D02*
X262930000Y-63237371D01*
X263644285Y-63237371D01*
X264715714Y-63951657D02*
X264215714Y-63951657D01*
X264215714Y-64737371D02*
X264215714Y-63237371D01*
X264930000Y-63237371D01*
X266572857Y-63165942D02*
X265287142Y-65094514D01*
X267358571Y-63237371D02*
X267644285Y-63237371D01*
X267787142Y-63308800D01*
X267930000Y-63451657D01*
X268001428Y-63737371D01*
X268001428Y-64237371D01*
X267930000Y-64523085D01*
X267787142Y-64665942D01*
X267644285Y-64737371D01*
X267358571Y-64737371D01*
X267215714Y-64665942D01*
X267072857Y-64523085D01*
X267001428Y-64237371D01*
X267001428Y-63737371D01*
X267072857Y-63451657D01*
X267215714Y-63308800D01*
X267358571Y-63237371D01*
X268644285Y-64737371D02*
X268644285Y-63237371D01*
X269501428Y-64737371D01*
X269501428Y-63237371D01*
X233796914Y-124951371D02*
X233796914Y-126451371D01*
X233796914Y-125022800D02*
X233939771Y-124951371D01*
X234225485Y-124951371D01*
X234368342Y-125022800D01*
X234439771Y-125094228D01*
X234511200Y-125237085D01*
X234511200Y-125665657D01*
X234439771Y-125808514D01*
X234368342Y-125879942D01*
X234225485Y-125951371D01*
X233939771Y-125951371D01*
X233796914Y-125879942D01*
X235011200Y-124951371D02*
X235368342Y-125951371D01*
X235725485Y-124951371D01*
X236511200Y-125951371D02*
X236368342Y-125879942D01*
X236296914Y-125808514D01*
X236225485Y-125665657D01*
X236225485Y-125237085D01*
X236296914Y-125094228D01*
X236368342Y-125022800D01*
X236511200Y-124951371D01*
X236725485Y-124951371D01*
X236868342Y-125022800D01*
X236939771Y-125094228D01*
X237011200Y-125237085D01*
X237011200Y-125665657D01*
X236939771Y-125808514D01*
X236868342Y-125879942D01*
X236725485Y-125951371D01*
X236511200Y-125951371D01*
X237582628Y-125879942D02*
X237725485Y-125951371D01*
X238011200Y-125951371D01*
X238154057Y-125879942D01*
X238225485Y-125737085D01*
X238225485Y-125665657D01*
X238154057Y-125522800D01*
X238011200Y-125451371D01*
X237796914Y-125451371D01*
X237654057Y-125379942D01*
X237582628Y-125237085D01*
X237582628Y-125165657D01*
X237654057Y-125022800D01*
X237796914Y-124951371D01*
X238011200Y-124951371D01*
X238154057Y-125022800D01*
X238868342Y-125808514D02*
X238939771Y-125879942D01*
X238868342Y-125951371D01*
X238796914Y-125879942D01*
X238868342Y-125808514D01*
X238868342Y-125951371D01*
X239796914Y-125951371D02*
X239654057Y-125879942D01*
X239582628Y-125808514D01*
X239511200Y-125665657D01*
X239511200Y-125237085D01*
X239582628Y-125094228D01*
X239654057Y-125022800D01*
X239796914Y-124951371D01*
X240011200Y-124951371D01*
X240154057Y-125022800D01*
X240225485Y-125094228D01*
X240296914Y-125237085D01*
X240296914Y-125665657D01*
X240225485Y-125808514D01*
X240154057Y-125879942D01*
X240011200Y-125951371D01*
X239796914Y-125951371D01*
X240939771Y-125951371D02*
X240939771Y-124951371D01*
X240939771Y-125237085D02*
X241011200Y-125094228D01*
X241082628Y-125022800D01*
X241225485Y-124951371D01*
X241368342Y-124951371D01*
X242511200Y-124951371D02*
X242511200Y-126165657D01*
X242439771Y-126308514D01*
X242368342Y-126379942D01*
X242225485Y-126451371D01*
X242011200Y-126451371D01*
X241868342Y-126379942D01*
X242511200Y-125879942D02*
X242368342Y-125951371D01*
X242082628Y-125951371D01*
X241939771Y-125879942D01*
X241868342Y-125808514D01*
X241796914Y-125665657D01*
X241796914Y-125237085D01*
X241868342Y-125094228D01*
X241939771Y-125022800D01*
X242082628Y-124951371D01*
X242368342Y-124951371D01*
X242511200Y-125022800D01*
X244296914Y-124379942D02*
X243011200Y-126308514D01*
X244796914Y-125951371D02*
X244796914Y-124451371D01*
X244939771Y-125379942D02*
X245368342Y-125951371D01*
X245368342Y-124951371D02*
X244796914Y-125522800D01*
X246011200Y-124951371D02*
X246011200Y-125951371D01*
X246011200Y-125094228D02*
X246082628Y-125022800D01*
X246225485Y-124951371D01*
X246439771Y-124951371D01*
X246582628Y-125022800D01*
X246654057Y-125165657D01*
X246654057Y-125951371D01*
X248011200Y-124951371D02*
X248011200Y-125951371D01*
X247368342Y-124951371D02*
X247368342Y-125737085D01*
X247439771Y-125879942D01*
X247582628Y-125951371D01*
X247796914Y-125951371D01*
X247939771Y-125879942D01*
X248011200Y-125808514D01*
X248511200Y-124951371D02*
X249082628Y-124951371D01*
X248725485Y-124451371D02*
X248725485Y-125737085D01*
X248796914Y-125879942D01*
X248939771Y-125951371D01*
X249082628Y-125951371D01*
X249582628Y-125951371D02*
X249582628Y-124451371D01*
X250225485Y-125951371D02*
X250225485Y-125165657D01*
X250154057Y-125022800D01*
X250011200Y-124951371D01*
X249796914Y-124951371D01*
X249654057Y-125022800D01*
X249582628Y-125094228D01*
X208196571Y-117784514D02*
X206696571Y-117784514D01*
X208196571Y-116927371D02*
X207339428Y-117570228D01*
X206696571Y-116927371D02*
X207553714Y-117784514D01*
X207196571Y-116284514D02*
X208196571Y-116284514D01*
X207339428Y-116284514D02*
X207268000Y-116213085D01*
X207196571Y-116070228D01*
X207196571Y-115855942D01*
X207268000Y-115713085D01*
X207410857Y-115641657D01*
X208196571Y-115641657D01*
X207196571Y-114284514D02*
X208196571Y-114284514D01*
X207196571Y-114927371D02*
X207982285Y-114927371D01*
X208125142Y-114855942D01*
X208196571Y-114713085D01*
X208196571Y-114498800D01*
X208125142Y-114355942D01*
X208053714Y-114284514D01*
X207196571Y-113784514D02*
X207196571Y-113213085D01*
X206696571Y-113570228D02*
X207982285Y-113570228D01*
X208125142Y-113498800D01*
X208196571Y-113355942D01*
X208196571Y-113213085D01*
X208196571Y-112713085D02*
X206696571Y-112713085D01*
X208196571Y-112070228D02*
X207410857Y-112070228D01*
X207268000Y-112141657D01*
X207196571Y-112284514D01*
X207196571Y-112498800D01*
X207268000Y-112641657D01*
X207339428Y-112713085D01*
X208196571Y-109355942D02*
X207482285Y-109855942D01*
X208196571Y-110213085D02*
X206696571Y-110213085D01*
X206696571Y-109641657D01*
X206768000Y-109498800D01*
X206839428Y-109427371D01*
X206982285Y-109355942D01*
X207196571Y-109355942D01*
X207339428Y-109427371D01*
X207410857Y-109498800D01*
X207482285Y-109641657D01*
X207482285Y-110213085D01*
X208196571Y-108070228D02*
X207410857Y-108070228D01*
X207268000Y-108141657D01*
X207196571Y-108284514D01*
X207196571Y-108570228D01*
X207268000Y-108713085D01*
X208125142Y-108070228D02*
X208196571Y-108213085D01*
X208196571Y-108570228D01*
X208125142Y-108713085D01*
X207982285Y-108784514D01*
X207839428Y-108784514D01*
X207696571Y-108713085D01*
X207625142Y-108570228D01*
X207625142Y-108213085D01*
X207553714Y-108070228D01*
X207196571Y-107355942D02*
X208196571Y-107355942D01*
X207339428Y-107355942D02*
X207268000Y-107284514D01*
X207196571Y-107141657D01*
X207196571Y-106927371D01*
X207268000Y-106784514D01*
X207410857Y-106713085D01*
X208196571Y-106713085D01*
X208125142Y-105355942D02*
X208196571Y-105498800D01*
X208196571Y-105784514D01*
X208125142Y-105927371D01*
X208053714Y-105998800D01*
X207910857Y-106070228D01*
X207482285Y-106070228D01*
X207339428Y-105998800D01*
X207268000Y-105927371D01*
X207196571Y-105784514D01*
X207196571Y-105498800D01*
X207268000Y-105355942D01*
X208196571Y-104713085D02*
X206696571Y-104713085D01*
X208196571Y-104070228D02*
X207410857Y-104070228D01*
X207268000Y-104141657D01*
X207196571Y-104284514D01*
X207196571Y-104498800D01*
X207268000Y-104641657D01*
X207339428Y-104713085D01*
X208053714Y-103355942D02*
X208125142Y-103284514D01*
X208196571Y-103355942D01*
X208125142Y-103427371D01*
X208053714Y-103355942D01*
X208196571Y-103355942D01*
X207268000Y-103355942D02*
X207339428Y-103284514D01*
X207410857Y-103355942D01*
X207339428Y-103427371D01*
X207268000Y-103355942D01*
X207410857Y-103355942D01*
X208196571Y-100641657D02*
X207482285Y-101141657D01*
X208196571Y-101498800D02*
X206696571Y-101498800D01*
X206696571Y-100927371D01*
X206768000Y-100784514D01*
X206839428Y-100713085D01*
X206982285Y-100641657D01*
X207196571Y-100641657D01*
X207339428Y-100713085D01*
X207410857Y-100784514D01*
X207482285Y-100927371D01*
X207482285Y-101498800D01*
X207410857Y-99998800D02*
X207410857Y-99498800D01*
X208196571Y-99284514D02*
X208196571Y-99998800D01*
X206696571Y-99998800D01*
X206696571Y-99284514D01*
X208196571Y-98641657D02*
X206696571Y-98641657D01*
X207768000Y-98141657D01*
X206696571Y-97641657D01*
X208196571Y-97641657D01*
X206696571Y-96641657D02*
X206696571Y-96355942D01*
X206768000Y-96213085D01*
X206910857Y-96070228D01*
X207196571Y-95998800D01*
X207696571Y-95998800D01*
X207982285Y-96070228D01*
X208125142Y-96213085D01*
X208196571Y-96355942D01*
X208196571Y-96641657D01*
X208125142Y-96784514D01*
X207982285Y-96927371D01*
X207696571Y-96998800D01*
X207196571Y-96998800D01*
X206910857Y-96927371D01*
X206768000Y-96784514D01*
X206696571Y-96641657D01*
X206696571Y-95570228D02*
X206696571Y-94713085D01*
X208196571Y-95141657D02*
X206696571Y-95141657D01*
X207410857Y-94213085D02*
X207410857Y-93713085D01*
X208196571Y-93498800D02*
X208196571Y-94213085D01*
X206696571Y-94213085D01*
X206696571Y-93498800D01*
X208196571Y-91713085D02*
X206696571Y-91713085D01*
X208196571Y-90855942D01*
X206696571Y-90855942D01*
X206696571Y-89855942D02*
X206696571Y-89570228D01*
X206768000Y-89427371D01*
X206910857Y-89284514D01*
X207196571Y-89213085D01*
X207696571Y-89213085D01*
X207982285Y-89284514D01*
X208125142Y-89427371D01*
X208196571Y-89570228D01*
X208196571Y-89855942D01*
X208125142Y-89998800D01*
X207982285Y-90141657D01*
X207696571Y-90213085D01*
X207196571Y-90213085D01*
X206910857Y-90141657D01*
X206768000Y-89998800D01*
X206696571Y-89855942D01*
X208196571Y-88570228D02*
X206696571Y-88570228D01*
X206696571Y-88213085D01*
X206768000Y-87998800D01*
X206910857Y-87855942D01*
X207053714Y-87784514D01*
X207339428Y-87713085D01*
X207553714Y-87713085D01*
X207839428Y-87784514D01*
X207982285Y-87855942D01*
X208125142Y-87998800D01*
X208196571Y-88213085D01*
X208196571Y-88570228D01*
X207410857Y-87070228D02*
X207410857Y-86570228D01*
X208196571Y-86355942D02*
X208196571Y-87070228D01*
X206696571Y-87070228D01*
X206696571Y-86355942D01*
X207625142Y-84570228D02*
X207625142Y-83427371D01*
X208196571Y-83998800D02*
X207053714Y-83998800D01*
X207410857Y-81570228D02*
X207410857Y-81070228D01*
X208196571Y-80855942D02*
X208196571Y-81570228D01*
X206696571Y-81570228D01*
X206696571Y-80855942D01*
X208053714Y-79355942D02*
X208125142Y-79427371D01*
X208196571Y-79641657D01*
X208196571Y-79784514D01*
X208125142Y-79998800D01*
X207982285Y-80141657D01*
X207839428Y-80213085D01*
X207553714Y-80284514D01*
X207339428Y-80284514D01*
X207053714Y-80213085D01*
X206910857Y-80141657D01*
X206768000Y-79998800D01*
X206696571Y-79784514D01*
X206696571Y-79641657D01*
X206768000Y-79427371D01*
X206839428Y-79355942D01*
X207625142Y-78713085D02*
X207625142Y-77570228D01*
X206696571Y-76141657D02*
X206696571Y-76855942D01*
X207410857Y-76927371D01*
X207339428Y-76855942D01*
X207268000Y-76713085D01*
X207268000Y-76355942D01*
X207339428Y-76213085D01*
X207410857Y-76141657D01*
X207553714Y-76070228D01*
X207910857Y-76070228D01*
X208053714Y-76141657D01*
X208125142Y-76213085D01*
X208196571Y-76355942D01*
X208196571Y-76713085D01*
X208125142Y-76855942D01*
X208053714Y-76927371D01*
X208196571Y-73070228D02*
X208196571Y-73141657D01*
X208125142Y-73284514D01*
X207910857Y-73498800D01*
X207482285Y-73855942D01*
X207268000Y-73998800D01*
X207053714Y-74070228D01*
X206910857Y-74070228D01*
X206768000Y-73998800D01*
X206696571Y-73855942D01*
X206696571Y-73784514D01*
X206768000Y-73641657D01*
X206910857Y-73570228D01*
X206982285Y-73570228D01*
X207125142Y-73641657D01*
X207196571Y-73713085D01*
X207482285Y-74141657D01*
X207553714Y-74213085D01*
X207696571Y-74284514D01*
X207910857Y-74284514D01*
X208053714Y-74213085D01*
X208125142Y-74141657D01*
X208196571Y-73998800D01*
X208196571Y-73784514D01*
X208125142Y-73641657D01*
X208053714Y-73570228D01*
X207768000Y-73355942D01*
X207553714Y-73284514D01*
X207410857Y-73284514D01*
X206696571Y-71498800D02*
X206696571Y-70641657D01*
X208196571Y-71070228D02*
X206696571Y-71070228D01*
X208125142Y-69570228D02*
X208196571Y-69713085D01*
X208196571Y-69998800D01*
X208125142Y-70141657D01*
X207982285Y-70213085D01*
X207410857Y-70213085D01*
X207268000Y-70141657D01*
X207196571Y-69998800D01*
X207196571Y-69713085D01*
X207268000Y-69570228D01*
X207410857Y-69498800D01*
X207553714Y-69498800D01*
X207696571Y-70213085D01*
X208196571Y-68855942D02*
X207196571Y-68855942D01*
X207339428Y-68855942D02*
X207268000Y-68784514D01*
X207196571Y-68641657D01*
X207196571Y-68427371D01*
X207268000Y-68284514D01*
X207410857Y-68213085D01*
X208196571Y-68213085D01*
X207410857Y-68213085D02*
X207268000Y-68141657D01*
X207196571Y-67998800D01*
X207196571Y-67784514D01*
X207268000Y-67641657D01*
X207410857Y-67570228D01*
X208196571Y-67570228D01*
X207196571Y-66855942D02*
X208696571Y-66855942D01*
X207268000Y-66855942D02*
X207196571Y-66713085D01*
X207196571Y-66427371D01*
X207268000Y-66284514D01*
X207339428Y-66213085D01*
X207482285Y-66141657D01*
X207910857Y-66141657D01*
X208053714Y-66213085D01*
X208125142Y-66284514D01*
X208196571Y-66427371D01*
X208196571Y-66713085D01*
X208125142Y-66855942D01*
D11*
X245050000Y-82550000D02*
X247710000Y-82550000D01*
X245050000Y-82550000D02*
X245050000Y-85150000D01*
X245050000Y-85150000D02*
X247710000Y-85150000D01*
X247710000Y-82550000D02*
X247710000Y-85150000D01*
X247710000Y-79950000D02*
X247710000Y-81280000D01*
X246380000Y-79950000D02*
X247710000Y-79950000D01*
X251400000Y-80010000D02*
X254060000Y-80010000D01*
X251400000Y-80010000D02*
X251400000Y-90230000D01*
X251400000Y-90230000D02*
X254060000Y-90230000D01*
X254060000Y-80010000D02*
X254060000Y-90230000D01*
X254060000Y-77410000D02*
X254060000Y-78740000D01*
X252730000Y-77410000D02*
X254060000Y-77410000D01*
X252730000Y-110430000D02*
X254060000Y-110430000D01*
X254060000Y-110430000D02*
X254060000Y-111760000D01*
X254060000Y-113030000D02*
X254060000Y-118170000D01*
X251400000Y-118170000D02*
X254060000Y-118170000D01*
X251400000Y-113030000D02*
X251400000Y-118170000D01*
X251400000Y-113030000D02*
X254060000Y-113030000D01*
X251400000Y-100330000D02*
X254060000Y-100330000D01*
X251400000Y-100330000D02*
X251400000Y-105470000D01*
X251400000Y-105470000D02*
X254060000Y-105470000D01*
X254060000Y-100330000D02*
X254060000Y-105470000D01*
X254060000Y-97730000D02*
X254060000Y-99060000D01*
X252730000Y-97730000D02*
X254060000Y-97730000D01*
X219770000Y-101600000D02*
X217110000Y-101600000D01*
X219770000Y-101600000D02*
X219770000Y-73600000D01*
X219770000Y-73600000D02*
X217110000Y-73600000D01*
X217110000Y-101600000D02*
X217110000Y-73600000D01*
X217110000Y-104200000D02*
X217110000Y-102870000D01*
X218440000Y-104200000D02*
X217110000Y-104200000D01*
X240090000Y-111760000D02*
X237430000Y-111760000D01*
X240090000Y-111760000D02*
X240090000Y-73600000D01*
X240090000Y-73600000D02*
X237430000Y-73600000D01*
X237430000Y-111760000D02*
X237430000Y-73600000D01*
X237430000Y-114360000D02*
X237430000Y-113030000D01*
X238760000Y-114360000D02*
X237430000Y-114360000D01*
X265125200Y-66030800D02*
X265125200Y-68690800D01*
X265125200Y-66030800D02*
X259985200Y-66030800D01*
X259985200Y-66030800D02*
X259985200Y-68690800D01*
X265125200Y-68690800D02*
X259985200Y-68690800D01*
X267725200Y-68690800D02*
X266395200Y-68690800D01*
X267725200Y-67360800D02*
X267725200Y-68690800D01*
X242978000Y-76676000D02*
X243308000Y-76676000D01*
X242978000Y-70136000D02*
X242978000Y-76676000D01*
X243308000Y-70136000D02*
X242978000Y-70136000D01*
X245718000Y-76676000D02*
X245388000Y-76676000D01*
X245718000Y-70136000D02*
X245718000Y-76676000D01*
X245388000Y-70136000D02*
X245718000Y-70136000D01*
X246150000Y-95790000D02*
X246480000Y-95790000D01*
X246480000Y-95790000D02*
X246480000Y-102330000D01*
X246480000Y-102330000D02*
X246150000Y-102330000D01*
X244070000Y-95790000D02*
X243740000Y-95790000D01*
X243740000Y-95790000D02*
X243740000Y-102330000D01*
X243740000Y-102330000D02*
X244070000Y-102330000D01*
X244070000Y-115665000D02*
X243740000Y-115665000D01*
X243740000Y-115665000D02*
X243740000Y-109125000D01*
X243740000Y-109125000D02*
X244070000Y-109125000D01*
X246150000Y-115665000D02*
X246480000Y-115665000D01*
X246480000Y-115665000D02*
X246480000Y-109125000D01*
X246480000Y-109125000D02*
X246150000Y-109125000D01*
X248098000Y-68072000D02*
X250758000Y-68072000D01*
X248098000Y-68072000D02*
X248098000Y-70672000D01*
X248098000Y-70672000D02*
X250758000Y-70672000D01*
X250758000Y-68072000D02*
X250758000Y-70672000D01*
X250758000Y-65472000D02*
X250758000Y-66802000D01*
X249428000Y-65472000D02*
X250758000Y-65472000D01*
X255422400Y-65421200D02*
X256752400Y-65421200D01*
X256752400Y-65421200D02*
X256752400Y-66751200D01*
X256752400Y-68021200D02*
X256752400Y-70621200D01*
X254092400Y-70621200D02*
X256752400Y-70621200D01*
X254092400Y-68021200D02*
X254092400Y-70621200D01*
X254092400Y-68021200D02*
X256752400Y-68021200D01*
X263880000Y-119906000D02*
X263880000Y-119506000D01*
X263240000Y-119906000D02*
X263880000Y-119906000D01*
X260021000Y-112001000D02*
X260149000Y-112130000D01*
X257805000Y-109786000D02*
X257899000Y-109880000D01*
X260261000Y-111831000D02*
X260354000Y-111925000D01*
X258011000Y-109581000D02*
X258139000Y-109710000D01*
X260021000Y-115501000D02*
X260149000Y-115630000D01*
X257805000Y-113286000D02*
X257899000Y-113380000D01*
X260261000Y-115331000D02*
X260354000Y-115425000D01*
X258011000Y-113081000D02*
X258139000Y-113210000D01*
X255920000Y-109046000D02*
X263640000Y-109046000D01*
X255920000Y-119666000D02*
X263640000Y-119666000D01*
X263640000Y-119666000D02*
X263640000Y-109046000D01*
X255920000Y-119666000D02*
X255920000Y-109046000D01*
X262080000Y-119666000D02*
X262080000Y-109046000D01*
X263180000Y-119666000D02*
X263180000Y-109046000D01*
X260760000Y-110856000D02*
G75*
G03X260760000Y-110856000I-1680000J0D01*
G01*
X260760000Y-114356000D02*
G75*
G03X260760000Y-114356000I-1680000J0D01*
G01*
X260760099Y-117827326D02*
G75*
G02X260520000Y-118722000I-1680099J-28674D01*
G01*
X259969894Y-119281358D02*
G75*
G02X258214000Y-119296000I-889894J1425358D01*
G01*
X257654642Y-118745894D02*
G75*
G02X257640000Y-116990000I1425358J889894D01*
G01*
X258189807Y-116430495D02*
G75*
G02X259971000Y-116431000I890193J-1425505D01*
G01*
X260504721Y-116965736D02*
G75*
G02X260760000Y-117856000I-1424721J-890264D01*
G01*
X263880000Y-107714000D02*
X263880000Y-107314000D01*
X263240000Y-107714000D02*
X263880000Y-107714000D01*
X260021000Y-99809000D02*
X260149000Y-99938000D01*
X257805000Y-97594000D02*
X257899000Y-97688000D01*
X260261000Y-99639000D02*
X260354000Y-99733000D01*
X258011000Y-97389000D02*
X258139000Y-97518000D01*
X260021000Y-103309000D02*
X260149000Y-103438000D01*
X257805000Y-101094000D02*
X257899000Y-101188000D01*
X260261000Y-103139000D02*
X260354000Y-103233000D01*
X258011000Y-100889000D02*
X258139000Y-101018000D01*
X255920000Y-96854000D02*
X263640000Y-96854000D01*
X255920000Y-107474000D02*
X263640000Y-107474000D01*
X263640000Y-107474000D02*
X263640000Y-96854000D01*
X255920000Y-107474000D02*
X255920000Y-96854000D01*
X262080000Y-107474000D02*
X262080000Y-96854000D01*
X263180000Y-107474000D02*
X263180000Y-96854000D01*
X260760000Y-98664000D02*
G75*
G03X260760000Y-98664000I-1680000J0D01*
G01*
X260760000Y-102164000D02*
G75*
G03X260760000Y-102164000I-1680000J0D01*
G01*
X260760099Y-105635326D02*
G75*
G02X260520000Y-106530000I-1680099J-28674D01*
G01*
X259969894Y-107089358D02*
G75*
G02X258214000Y-107104000I-889894J1425358D01*
G01*
X257654642Y-106553894D02*
G75*
G02X257640000Y-104798000I1425358J889894D01*
G01*
X258189807Y-104238495D02*
G75*
G02X259971000Y-104239000I890193J-1425505D01*
G01*
X260504721Y-104773736D02*
G75*
G02X260760000Y-105664000I-1424721J-890264D01*
G01*
X243078000Y-53089500D02*
X243078000Y-55749500D01*
X243078000Y-53089500D02*
X237938000Y-53089500D01*
X237938000Y-53089500D02*
X237938000Y-55749500D01*
X243078000Y-55749500D02*
X237938000Y-55749500D01*
X245678000Y-55749500D02*
X244348000Y-55749500D01*
X245678000Y-54419500D02*
X245678000Y-55749500D01*
X254762000Y-55622500D02*
X253432000Y-55622500D01*
X253432000Y-55622500D02*
X253432000Y-54292500D01*
X253432000Y-53022500D02*
X253432000Y-50422500D01*
X256092000Y-50422500D02*
X253432000Y-50422500D01*
X256092000Y-53022500D02*
X256092000Y-50422500D01*
X256092000Y-53022500D02*
X253432000Y-53022500D01*
X229676000Y-53149500D02*
X227016000Y-53149500D01*
X229676000Y-53149500D02*
X229676000Y-50549500D01*
X229676000Y-50549500D02*
X227016000Y-50549500D01*
X227016000Y-53149500D02*
X227016000Y-50549500D01*
X227016000Y-55749500D02*
X227016000Y-54419500D01*
X228346000Y-55749500D02*
X227016000Y-55749500D01*
X265575000Y-47714500D02*
X265175000Y-47714500D01*
X265575000Y-48354500D02*
X265575000Y-47714500D01*
X261170000Y-51573500D02*
X261299000Y-51445500D01*
X258955000Y-53789500D02*
X259049000Y-53695500D01*
X261000000Y-51333500D02*
X261094000Y-51240500D01*
X258750000Y-53583500D02*
X258879000Y-53455500D01*
X258215000Y-55674500D02*
X258215000Y-47954500D01*
X265335000Y-55674500D02*
X265335000Y-47954500D01*
X265335000Y-47954500D02*
X258215000Y-47954500D01*
X265335000Y-55674500D02*
X258215000Y-55674500D01*
X265335000Y-49514500D02*
X258215000Y-49514500D01*
X265335000Y-48414500D02*
X258215000Y-48414500D01*
X261705000Y-52514500D02*
G75*
G03X261705000Y-52514500I-1680000J0D01*
G01*
X263496326Y-50834401D02*
G75*
G02X264391000Y-51074500I28674J-1680099D01*
G01*
X264950358Y-51624606D02*
G75*
G02X264965000Y-53380500I-1425358J-889894D01*
G01*
X264414894Y-53939858D02*
G75*
G02X262659000Y-53954500I-889894J1425358D01*
G01*
X262099495Y-53404693D02*
G75*
G02X262100000Y-51623500I1425505J890193D01*
G01*
X262634736Y-51089779D02*
G75*
G02X263525000Y-50834500I890264J-1424721D01*
G01*
X220978736Y-51470779D02*
G75*
G02X221869000Y-51215500I890264J-1424721D01*
G01*
X220443495Y-53785693D02*
G75*
G02X220444000Y-52004500I1425505J890193D01*
G01*
X222758894Y-54320858D02*
G75*
G02X221003000Y-54335500I-889894J1425358D01*
G01*
X223294358Y-52005606D02*
G75*
G02X223309000Y-53761500I-1425358J-889894D01*
G01*
X221840326Y-51215401D02*
G75*
G02X222735000Y-51455500I28674J-1680099D01*
G01*
X220049000Y-52895500D02*
G75*
G03X220049000Y-52895500I-1680000J0D01*
G01*
X223679000Y-48795500D02*
X216559000Y-48795500D01*
X223679000Y-49895500D02*
X216559000Y-49895500D01*
X223679000Y-56055500D02*
X216559000Y-56055500D01*
X223679000Y-48335500D02*
X216559000Y-48335500D01*
X223679000Y-56055500D02*
X223679000Y-48335500D01*
X216559000Y-56055500D02*
X216559000Y-48335500D01*
X217094000Y-53964500D02*
X217223000Y-53836500D01*
X219344000Y-51714500D02*
X219438000Y-51621500D01*
X217299000Y-54170500D02*
X217393000Y-54076500D01*
X219514000Y-51954500D02*
X219643000Y-51826500D01*
X223919000Y-48735500D02*
X223919000Y-48095500D01*
X223919000Y-48095500D02*
X223519000Y-48095500D01*
X213519000Y-67464000D02*
X213519000Y-70204000D01*
X213519000Y-70204000D02*
X220059000Y-70204000D01*
X220059000Y-70204000D02*
X220059000Y-67464000D01*
X220059000Y-67464000D02*
X213519000Y-67464000D01*
X212749000Y-68834000D02*
X213519000Y-68834000D01*
X220829000Y-68834000D02*
X220059000Y-68834000D01*
X232791000Y-70763000D02*
X232791000Y-71533000D01*
X232791000Y-78843000D02*
X232791000Y-78073000D01*
X231421000Y-71533000D02*
X231421000Y-78073000D01*
X234161000Y-71533000D02*
X231421000Y-71533000D01*
X234161000Y-78073000D02*
X234161000Y-71533000D01*
X231421000Y-78073000D02*
X234161000Y-78073000D01*
D12*
X243657380Y-85121428D02*
X243181190Y-85454761D01*
X243657380Y-85692857D02*
X242657380Y-85692857D01*
X242657380Y-85311904D01*
X242705000Y-85216666D01*
X242752619Y-85169047D01*
X242847857Y-85121428D01*
X242990714Y-85121428D01*
X243085952Y-85169047D01*
X243133571Y-85216666D01*
X243181190Y-85311904D01*
X243181190Y-85692857D01*
X243752619Y-84930952D02*
X243752619Y-84169047D01*
X243657380Y-83930952D02*
X242657380Y-83930952D01*
X242657380Y-83692857D01*
X242705000Y-83550000D01*
X242800238Y-83454761D01*
X242895476Y-83407142D01*
X243085952Y-83359523D01*
X243228809Y-83359523D01*
X243419285Y-83407142D01*
X243514523Y-83454761D01*
X243609761Y-83550000D01*
X243657380Y-83692857D01*
X243657380Y-83930952D01*
X243609761Y-82550000D02*
X243657380Y-82645238D01*
X243657380Y-82835714D01*
X243609761Y-82930952D01*
X243514523Y-82978571D01*
X243133571Y-82978571D01*
X243038333Y-82930952D01*
X242990714Y-82835714D01*
X242990714Y-82645238D01*
X243038333Y-82550000D01*
X243133571Y-82502380D01*
X243228809Y-82502380D01*
X243324047Y-82978571D01*
X243657380Y-81930952D02*
X243609761Y-82026190D01*
X243514523Y-82073809D01*
X242657380Y-82073809D01*
X243657380Y-81121428D02*
X243133571Y-81121428D01*
X243038333Y-81169047D01*
X242990714Y-81264285D01*
X242990714Y-81454761D01*
X243038333Y-81550000D01*
X243609761Y-81121428D02*
X243657380Y-81216666D01*
X243657380Y-81454761D01*
X243609761Y-81550000D01*
X243514523Y-81597619D01*
X243419285Y-81597619D01*
X243324047Y-81550000D01*
X243276428Y-81454761D01*
X243276428Y-81216666D01*
X243228809Y-81121428D01*
X242990714Y-80740476D02*
X243657380Y-80502380D01*
X242990714Y-80264285D02*
X243657380Y-80502380D01*
X243895476Y-80597619D01*
X243943095Y-80645238D01*
X243990714Y-80740476D01*
X243657380Y-79359523D02*
X243657380Y-79930952D01*
X243657380Y-79645238D02*
X242657380Y-79645238D01*
X242800238Y-79740476D01*
X242895476Y-79835714D01*
X242943095Y-79930952D01*
X251968095Y-75422380D02*
X251968095Y-76231904D01*
X252015714Y-76327142D01*
X252063333Y-76374761D01*
X252158571Y-76422380D01*
X252349047Y-76422380D01*
X252444285Y-76374761D01*
X252491904Y-76327142D01*
X252539523Y-76231904D01*
X252539523Y-75422380D01*
X253444285Y-75755714D02*
X253444285Y-76422380D01*
X253206190Y-75374761D02*
X252968095Y-76089047D01*
X253587142Y-76089047D01*
X250642380Y-116657142D02*
X250642380Y-117228571D01*
X250642380Y-116942857D02*
X249642380Y-116942857D01*
X249785238Y-117038095D01*
X249880476Y-117133333D01*
X249928095Y-117228571D01*
X250261428Y-116228571D02*
X250261428Y-115466666D01*
X249642380Y-115085714D02*
X250642380Y-114847619D01*
X249928095Y-114657142D01*
X250642380Y-114466666D01*
X249642380Y-114228571D01*
X250642380Y-113847619D02*
X249975714Y-113847619D01*
X249642380Y-113847619D02*
X249690000Y-113895238D01*
X249737619Y-113847619D01*
X249690000Y-113800000D01*
X249642380Y-113847619D01*
X249737619Y-113847619D01*
X250642380Y-113371428D02*
X249975714Y-113371428D01*
X250166190Y-113371428D02*
X250070952Y-113323809D01*
X250023333Y-113276190D01*
X249975714Y-113180952D01*
X249975714Y-113085714D01*
X250594761Y-112371428D02*
X250642380Y-112466666D01*
X250642380Y-112657142D01*
X250594761Y-112752380D01*
X250499523Y-112800000D01*
X250118571Y-112800000D01*
X250023333Y-112752380D01*
X249975714Y-112657142D01*
X249975714Y-112466666D01*
X250023333Y-112371428D01*
X250118571Y-112323809D01*
X250213809Y-112323809D01*
X250309047Y-112800000D01*
X250642380Y-111371428D02*
X250642380Y-111942857D01*
X250642380Y-111657142D02*
X249642380Y-111657142D01*
X249785238Y-111752380D01*
X249880476Y-111847619D01*
X249928095Y-111942857D01*
X250118571Y-103409523D02*
X250118571Y-103076190D01*
X250642380Y-102933333D02*
X250642380Y-103409523D01*
X249642380Y-103409523D01*
X249642380Y-102933333D01*
X250547142Y-101933333D02*
X250594761Y-101980952D01*
X250642380Y-102123809D01*
X250642380Y-102219047D01*
X250594761Y-102361904D01*
X250499523Y-102457142D01*
X250404285Y-102504761D01*
X250213809Y-102552380D01*
X250070952Y-102552380D01*
X249880476Y-102504761D01*
X249785238Y-102457142D01*
X249690000Y-102361904D01*
X249642380Y-102219047D01*
X249642380Y-102123809D01*
X249690000Y-101980952D01*
X249737619Y-101933333D01*
X250261428Y-101504761D02*
X250261428Y-100742857D01*
X249642380Y-99790476D02*
X249642380Y-100266666D01*
X250118571Y-100314285D01*
X250070952Y-100266666D01*
X250023333Y-100171428D01*
X250023333Y-99933333D01*
X250070952Y-99838095D01*
X250118571Y-99790476D01*
X250213809Y-99742857D01*
X250451904Y-99742857D01*
X250547142Y-99790476D01*
X250594761Y-99838095D01*
X250642380Y-99933333D01*
X250642380Y-100171428D01*
X250594761Y-100266666D01*
X250547142Y-100314285D01*
X218106666Y-105092380D02*
X218106666Y-105806666D01*
X218059047Y-105949523D01*
X217963809Y-106044761D01*
X217820952Y-106092380D01*
X217725714Y-106092380D01*
X219106666Y-106092380D02*
X218535238Y-106092380D01*
X218820952Y-106092380D02*
X218820952Y-105092380D01*
X218725714Y-105235238D01*
X218630476Y-105330476D01*
X218535238Y-105378095D01*
X238426666Y-115252380D02*
X238426666Y-115966666D01*
X238379047Y-116109523D01*
X238283809Y-116204761D01*
X238140952Y-116252380D01*
X238045714Y-116252380D01*
X238855238Y-115347619D02*
X238902857Y-115300000D01*
X238998095Y-115252380D01*
X239236190Y-115252380D01*
X239331428Y-115300000D01*
X239379047Y-115347619D01*
X239426666Y-115442857D01*
X239426666Y-115538095D01*
X239379047Y-115680952D01*
X238807619Y-116252380D01*
X239426666Y-116252380D01*
X261236152Y-70305561D02*
X261331390Y-70353180D01*
X261521866Y-70353180D01*
X261617104Y-70305561D01*
X261664723Y-70210323D01*
X261664723Y-70162704D01*
X261617104Y-70067466D01*
X261521866Y-70019847D01*
X261379009Y-70019847D01*
X261283771Y-69972228D01*
X261236152Y-69876990D01*
X261236152Y-69829371D01*
X261283771Y-69734133D01*
X261379009Y-69686514D01*
X261521866Y-69686514D01*
X261617104Y-69734133D01*
X261998057Y-69686514D02*
X262188533Y-70353180D01*
X262379009Y-69876990D01*
X262569485Y-70353180D01*
X262759961Y-69686514D01*
X263140914Y-70353180D02*
X263140914Y-69686514D01*
X263140914Y-69353180D02*
X263093295Y-69400800D01*
X263140914Y-69448419D01*
X263188533Y-69400800D01*
X263140914Y-69353180D01*
X263140914Y-69448419D01*
X263474247Y-69686514D02*
X263855200Y-69686514D01*
X263617104Y-69353180D02*
X263617104Y-70210323D01*
X263664723Y-70305561D01*
X263759961Y-70353180D01*
X263855200Y-70353180D01*
X264617104Y-70305561D02*
X264521866Y-70353180D01*
X264331390Y-70353180D01*
X264236152Y-70305561D01*
X264188533Y-70257942D01*
X264140914Y-70162704D01*
X264140914Y-69876990D01*
X264188533Y-69781752D01*
X264236152Y-69734133D01*
X264331390Y-69686514D01*
X264521866Y-69686514D01*
X264617104Y-69734133D01*
X265045676Y-70353180D02*
X265045676Y-69353180D01*
X265474247Y-70353180D02*
X265474247Y-69829371D01*
X265426628Y-69734133D01*
X265331390Y-69686514D01*
X265188533Y-69686514D01*
X265093295Y-69734133D01*
X265045676Y-69781752D01*
X266474247Y-70353180D02*
X265902819Y-70353180D01*
X266188533Y-70353180D02*
X266188533Y-69353180D01*
X266093295Y-69496038D01*
X265998057Y-69591276D01*
X265902819Y-69638895D01*
X247170380Y-74072666D02*
X246694190Y-74406000D01*
X247170380Y-74644095D02*
X246170380Y-74644095D01*
X246170380Y-74263142D01*
X246218000Y-74167904D01*
X246265619Y-74120285D01*
X246360857Y-74072666D01*
X246503714Y-74072666D01*
X246598952Y-74120285D01*
X246646571Y-74167904D01*
X246694190Y-74263142D01*
X246694190Y-74644095D01*
X247170380Y-73644095D02*
X246170380Y-73644095D01*
X246170380Y-73406000D01*
X246218000Y-73263142D01*
X246313238Y-73167904D01*
X246408476Y-73120285D01*
X246598952Y-73072666D01*
X246741809Y-73072666D01*
X246932285Y-73120285D01*
X247027523Y-73167904D01*
X247122761Y-73263142D01*
X247170380Y-73406000D01*
X247170380Y-73644095D01*
X247170380Y-72120285D02*
X247170380Y-72691714D01*
X247170380Y-72406000D02*
X246170380Y-72406000D01*
X246313238Y-72501238D01*
X246408476Y-72596476D01*
X246456095Y-72691714D01*
X243276380Y-99726666D02*
X242800190Y-100060000D01*
X243276380Y-100298095D02*
X242276380Y-100298095D01*
X242276380Y-99917142D01*
X242324000Y-99821904D01*
X242371619Y-99774285D01*
X242466857Y-99726666D01*
X242609714Y-99726666D01*
X242704952Y-99774285D01*
X242752571Y-99821904D01*
X242800190Y-99917142D01*
X242800190Y-100298095D01*
X243276380Y-99298095D02*
X242276380Y-99298095D01*
X242276380Y-99060000D01*
X242324000Y-98917142D01*
X242419238Y-98821904D01*
X242514476Y-98774285D01*
X242704952Y-98726666D01*
X242847809Y-98726666D01*
X243038285Y-98774285D01*
X243133523Y-98821904D01*
X243228761Y-98917142D01*
X243276380Y-99060000D01*
X243276380Y-99298095D01*
X242371619Y-98345714D02*
X242324000Y-98298095D01*
X242276380Y-98202857D01*
X242276380Y-97964761D01*
X242324000Y-97869523D01*
X242371619Y-97821904D01*
X242466857Y-97774285D01*
X242562095Y-97774285D01*
X242704952Y-97821904D01*
X243276380Y-98393333D01*
X243276380Y-97774285D01*
X243192380Y-113061666D02*
X242716190Y-113395000D01*
X243192380Y-113633095D02*
X242192380Y-113633095D01*
X242192380Y-113252142D01*
X242240000Y-113156904D01*
X242287619Y-113109285D01*
X242382857Y-113061666D01*
X242525714Y-113061666D01*
X242620952Y-113109285D01*
X242668571Y-113156904D01*
X242716190Y-113252142D01*
X242716190Y-113633095D01*
X243192380Y-112633095D02*
X242192380Y-112633095D01*
X242192380Y-112252142D01*
X242240000Y-112156904D01*
X242287619Y-112109285D01*
X242382857Y-112061666D01*
X242525714Y-112061666D01*
X242620952Y-112109285D01*
X242668571Y-112156904D01*
X242716190Y-112252142D01*
X242716190Y-112633095D01*
X243192380Y-111109285D02*
X243192380Y-111680714D01*
X243192380Y-111395000D02*
X242192380Y-111395000D01*
X242335238Y-111490238D01*
X242430476Y-111585476D01*
X242478095Y-111680714D01*
X252142666Y-68794380D02*
X252142666Y-69508666D01*
X252095047Y-69651523D01*
X251999809Y-69746761D01*
X251856952Y-69794380D01*
X251761714Y-69794380D01*
X252523619Y-68794380D02*
X253142666Y-68794380D01*
X252809333Y-69175333D01*
X252952190Y-69175333D01*
X253047428Y-69222952D01*
X253095047Y-69270571D01*
X253142666Y-69365809D01*
X253142666Y-69603904D01*
X253095047Y-69699142D01*
X253047428Y-69746761D01*
X252952190Y-69794380D01*
X252666476Y-69794380D01*
X252571238Y-69746761D01*
X252523619Y-69699142D01*
X257033780Y-68989533D02*
X257748066Y-68989533D01*
X257890923Y-69037152D01*
X257986161Y-69132390D01*
X258033780Y-69275247D01*
X258033780Y-69370485D01*
X257367114Y-68084771D02*
X258033780Y-68084771D01*
X256986161Y-68322866D02*
X257700447Y-68560961D01*
X257700447Y-67941914D01*
X254372380Y-114689333D02*
X255086666Y-114689333D01*
X255229523Y-114736952D01*
X255324761Y-114832190D01*
X255372380Y-114975047D01*
X255372380Y-115070285D01*
X254372380Y-113736952D02*
X254372380Y-114213142D01*
X254848571Y-114260761D01*
X254800952Y-114213142D01*
X254753333Y-114117904D01*
X254753333Y-113879809D01*
X254800952Y-113784571D01*
X254848571Y-113736952D01*
X254943809Y-113689333D01*
X255181904Y-113689333D01*
X255277142Y-113736952D01*
X255324761Y-113784571D01*
X255372380Y-113879809D01*
X255372380Y-114117904D01*
X255324761Y-114213142D01*
X255277142Y-114260761D01*
X259254666Y-94448380D02*
X259254666Y-95162666D01*
X259207047Y-95305523D01*
X259111809Y-95400761D01*
X258968952Y-95448380D01*
X258873714Y-95448380D01*
X260159428Y-94448380D02*
X259968952Y-94448380D01*
X259873714Y-94496000D01*
X259826095Y-94543619D01*
X259730857Y-94686476D01*
X259683238Y-94876952D01*
X259683238Y-95257904D01*
X259730857Y-95353142D01*
X259778476Y-95400761D01*
X259873714Y-95448380D01*
X260064190Y-95448380D01*
X260159428Y-95400761D01*
X260207047Y-95353142D01*
X260254666Y-95257904D01*
X260254666Y-95019809D01*
X260207047Y-94924571D01*
X260159428Y-94876952D01*
X260064190Y-94829333D01*
X259873714Y-94829333D01*
X259778476Y-94876952D01*
X259730857Y-94924571D01*
X259683238Y-95019809D01*
X241538166Y-50696880D02*
X241538166Y-51411166D01*
X241490547Y-51554023D01*
X241395309Y-51649261D01*
X241252452Y-51696880D01*
X241157214Y-51696880D01*
X241919119Y-50696880D02*
X242585785Y-50696880D01*
X242157214Y-51696880D01*
X251369580Y-53368533D02*
X252083866Y-53368533D01*
X252226723Y-53416152D01*
X252321961Y-53511390D01*
X252369580Y-53654247D01*
X252369580Y-53749485D01*
X251798152Y-52749485D02*
X251750533Y-52844723D01*
X251702914Y-52892342D01*
X251607676Y-52939961D01*
X251560057Y-52939961D01*
X251464819Y-52892342D01*
X251417200Y-52844723D01*
X251369580Y-52749485D01*
X251369580Y-52559009D01*
X251417200Y-52463771D01*
X251464819Y-52416152D01*
X251560057Y-52368533D01*
X251607676Y-52368533D01*
X251702914Y-52416152D01*
X251750533Y-52463771D01*
X251798152Y-52559009D01*
X251798152Y-52749485D01*
X251845771Y-52844723D01*
X251893390Y-52892342D01*
X251988628Y-52939961D01*
X252179104Y-52939961D01*
X252274342Y-52892342D01*
X252321961Y-52844723D01*
X252369580Y-52749485D01*
X252369580Y-52559009D01*
X252321961Y-52463771D01*
X252274342Y-52416152D01*
X252179104Y-52368533D01*
X251988628Y-52368533D01*
X251893390Y-52416152D01*
X251845771Y-52463771D01*
X251798152Y-52559009D01*
X230643180Y-53622533D02*
X231357466Y-53622533D01*
X231500323Y-53670152D01*
X231595561Y-53765390D01*
X231643180Y-53908247D01*
X231643180Y-54003485D01*
X231643180Y-53098723D02*
X231643180Y-52908247D01*
X231595561Y-52813009D01*
X231547942Y-52765390D01*
X231405085Y-52670152D01*
X231214609Y-52622533D01*
X230833657Y-52622533D01*
X230738419Y-52670152D01*
X230690800Y-52717771D01*
X230643180Y-52813009D01*
X230643180Y-53003485D01*
X230690800Y-53098723D01*
X230738419Y-53146342D01*
X230833657Y-53193961D01*
X231071752Y-53193961D01*
X231166990Y-53146342D01*
X231214609Y-53098723D01*
X231262228Y-53003485D01*
X231262228Y-52813009D01*
X231214609Y-52717771D01*
X231166990Y-52670152D01*
X231071752Y-52622533D01*
X260912076Y-54265580D02*
X260912076Y-54979866D01*
X260864457Y-55122723D01*
X260769219Y-55217961D01*
X260626361Y-55265580D01*
X260531123Y-55265580D01*
X261912076Y-55265580D02*
X261340647Y-55265580D01*
X261626361Y-55265580D02*
X261626361Y-54265580D01*
X261531123Y-54408438D01*
X261435885Y-54503676D01*
X261340647Y-54551295D01*
X262531123Y-54265580D02*
X262626361Y-54265580D01*
X262721600Y-54313200D01*
X262769219Y-54360819D01*
X262816838Y-54456057D01*
X262864457Y-54646533D01*
X262864457Y-54884628D01*
X262816838Y-55075104D01*
X262769219Y-55170342D01*
X262721600Y-55217961D01*
X262626361Y-55265580D01*
X262531123Y-55265580D01*
X262435885Y-55217961D01*
X262388266Y-55170342D01*
X262340647Y-55075104D01*
X262293028Y-54884628D01*
X262293028Y-54646533D01*
X262340647Y-54456057D01*
X262388266Y-54360819D01*
X262435885Y-54313200D01*
X262531123Y-54265580D01*
X219205276Y-54621180D02*
X219205276Y-55335466D01*
X219157657Y-55478323D01*
X219062419Y-55573561D01*
X218919561Y-55621180D01*
X218824323Y-55621180D01*
X220205276Y-55621180D02*
X219633847Y-55621180D01*
X219919561Y-55621180D02*
X219919561Y-54621180D01*
X219824323Y-54764038D01*
X219729085Y-54859276D01*
X219633847Y-54906895D01*
X221157657Y-55621180D02*
X220586228Y-55621180D01*
X220871942Y-55621180D02*
X220871942Y-54621180D01*
X220776704Y-54764038D01*
X220681466Y-54859276D01*
X220586228Y-54906895D01*
X216169952Y-66916380D02*
X215836619Y-66440190D01*
X215598523Y-66916380D02*
X215598523Y-65916380D01*
X215979476Y-65916380D01*
X216074714Y-65964000D01*
X216122333Y-66011619D01*
X216169952Y-66106857D01*
X216169952Y-66249714D01*
X216122333Y-66344952D01*
X216074714Y-66392571D01*
X215979476Y-66440190D01*
X215598523Y-66440190D01*
X216598523Y-66392571D02*
X216931857Y-66392571D01*
X217074714Y-66916380D02*
X216598523Y-66916380D01*
X216598523Y-65916380D01*
X217074714Y-65916380D01*
X218027095Y-66916380D02*
X217455666Y-66916380D01*
X217741380Y-66916380D02*
X217741380Y-65916380D01*
X217646142Y-66059238D01*
X217550904Y-66154476D01*
X217455666Y-66202095D01*
X230873380Y-75422047D02*
X230397190Y-75755380D01*
X230873380Y-75993476D02*
X229873380Y-75993476D01*
X229873380Y-75612523D01*
X229921000Y-75517285D01*
X229968619Y-75469666D01*
X230063857Y-75422047D01*
X230206714Y-75422047D01*
X230301952Y-75469666D01*
X230349571Y-75517285D01*
X230397190Y-75612523D01*
X230397190Y-75993476D01*
X230349571Y-74993476D02*
X230349571Y-74660142D01*
X230873380Y-74517285D02*
X230873380Y-74993476D01*
X229873380Y-74993476D01*
X229873380Y-74517285D01*
X229968619Y-74136333D02*
X229921000Y-74088714D01*
X229873380Y-73993476D01*
X229873380Y-73755380D01*
X229921000Y-73660142D01*
X229968619Y-73612523D01*
X230063857Y-73564904D01*
X230159095Y-73564904D01*
X230301952Y-73612523D01*
X230873380Y-74183952D01*
X230873380Y-73564904D01*
M02*
