G04 #@! TF.GenerationSoftware,KiCad,Pcbnew,5.1.2-f72e74a~84~ubuntu18.04.1*
G04 #@! TF.CreationDate,2019-07-30T15:07:21-04:00*
G04 #@! TF.ProjectId,knuth-gateway,6b6e7574-682d-4676-9174-657761792e6b,rev?*
G04 #@! TF.SameCoordinates,Original*
G04 #@! TF.FileFunction,Copper,L1,Top*
G04 #@! TF.FilePolarity,Positive*
%FSLAX46Y46*%
G04 Gerber Fmt 4.6, Leading zero omitted, Abs format (unit mm)*
G04 Created by KiCad (PCBNEW 5.1.2-f72e74a~84~ubuntu18.04.1) date 2019-07-30 15:07:21*
%MOMM*%
%LPD*%
G04 APERTURE LIST*
%ADD10R,1.700000X1.700000*%
%ADD11O,1.700000X1.700000*%
%ADD12O,1.600000X1.600000*%
%ADD13C,1.600000*%
%ADD14C,2.400000*%
%ADD15R,2.400000X2.400000*%
%ADD16C,3.000000*%
%ADD17C,1.778000*%
G04 APERTURE END LIST*
D10*
X246380000Y-81280000D03*
D11*
X246380000Y-83820000D03*
D10*
X252730000Y-78740000D03*
D11*
X252730000Y-81280000D03*
X252730000Y-83820000D03*
X252730000Y-86360000D03*
X252730000Y-88900000D03*
X252730000Y-116840000D03*
X252730000Y-114300000D03*
D10*
X252730000Y-111760000D03*
X252730000Y-99060000D03*
D11*
X252730000Y-101600000D03*
X252730000Y-104140000D03*
D10*
X218440000Y-102870000D03*
D11*
X218440000Y-100330000D03*
X218440000Y-97790000D03*
X218440000Y-95250000D03*
X218440000Y-92710000D03*
X218440000Y-90170000D03*
X218440000Y-87630000D03*
X218440000Y-85090000D03*
X218440000Y-82550000D03*
X218440000Y-80010000D03*
X218440000Y-77470000D03*
X218440000Y-74930000D03*
D10*
X238760000Y-113030000D03*
D11*
X238760000Y-110490000D03*
X238760000Y-107950000D03*
X238760000Y-105410000D03*
X238760000Y-102870000D03*
X238760000Y-100330000D03*
X238760000Y-97790000D03*
X238760000Y-95250000D03*
X238760000Y-92710000D03*
X238760000Y-90170000D03*
X238760000Y-87630000D03*
X238760000Y-85090000D03*
X238760000Y-82550000D03*
X238760000Y-80010000D03*
X238760000Y-77470000D03*
X238760000Y-74930000D03*
D10*
X266395200Y-67360800D03*
D11*
X263855200Y-67360800D03*
X261315200Y-67360800D03*
D12*
X244348000Y-77216000D03*
D13*
X244348000Y-69596000D03*
X245110000Y-95250000D03*
D12*
X245110000Y-102870000D03*
D13*
X245110000Y-116205000D03*
D12*
X245110000Y-108585000D03*
D10*
X249428000Y-66802000D03*
D11*
X249428000Y-69342000D03*
X255422400Y-69291200D03*
D10*
X255422400Y-66751200D03*
D14*
X259080000Y-110856000D03*
X259080000Y-114356000D03*
D15*
X259080000Y-117856000D03*
D14*
X259080000Y-98664000D03*
X259080000Y-102164000D03*
D15*
X259080000Y-105664000D03*
D10*
X244348000Y-54419500D03*
D11*
X241808000Y-54419500D03*
X239268000Y-54419500D03*
X254762000Y-51752500D03*
D10*
X254762000Y-54292500D03*
X228346000Y-54419500D03*
D11*
X228346000Y-51879500D03*
D14*
X260025000Y-52514500D03*
D15*
X263525000Y-52514500D03*
X221869000Y-52895500D03*
D14*
X218369000Y-52895500D03*
D13*
X211709000Y-68834000D03*
D12*
X221869000Y-68834000D03*
X232791000Y-69723000D03*
D13*
X232791000Y-79883000D03*
D16*
X270954500Y-121666000D03*
X210947000Y-121666000D03*
X211010500Y-51625500D03*
X271018000Y-51625500D03*
D17*
X265303000Y-84963000D03*
X261683500Y-79756000D03*
M02*
