G04 #@! TF.GenerationSoftware,KiCad,Pcbnew,5.1.2-f72e74a~84~ubuntu18.04.1*
G04 #@! TF.CreationDate,2020-03-17T17:37:26-04:00*
G04 #@! TF.ProjectId,knuth-gateway,6b6e7574-682d-4676-9174-657761792e6b,rev?*
G04 #@! TF.SameCoordinates,Original*
G04 #@! TF.FileFunction,Legend,Top*
G04 #@! TF.FilePolarity,Positive*
%FSLAX46Y46*%
G04 Gerber Fmt 4.6, Leading zero omitted, Abs format (unit mm)*
G04 Created by KiCad (PCBNEW 5.1.2-f72e74a~84~ubuntu18.04.1) date 2020-03-17 17:37:26*
%MOMM*%
%LPD*%
G04 APERTURE LIST*
%ADD10C,0.300000*%
%ADD11C,0.275000*%
%ADD12C,0.120000*%
%ADD13C,0.150000*%
G04 APERTURE END LIST*
D10*
X24504828Y-52823371D02*
X24790542Y-52823371D01*
X24933400Y-52894800D01*
X25076257Y-53037657D01*
X25147685Y-53323371D01*
X25147685Y-53823371D01*
X25076257Y-54109085D01*
X24933400Y-54251942D01*
X24790542Y-54323371D01*
X24504828Y-54323371D01*
X24361971Y-54251942D01*
X24219114Y-54109085D01*
X24147685Y-53823371D01*
X24147685Y-53323371D01*
X24219114Y-53037657D01*
X24361971Y-52894800D01*
X24504828Y-52823371D01*
X26290542Y-53537657D02*
X25790542Y-53537657D01*
X25790542Y-54323371D02*
X25790542Y-52823371D01*
X26504828Y-52823371D01*
X27576257Y-53537657D02*
X27076257Y-53537657D01*
X27076257Y-54323371D02*
X27076257Y-52823371D01*
X27790542Y-52823371D01*
X3479211Y-3209171D02*
X3479211Y-4709171D01*
X3479211Y-3280600D02*
X3622068Y-3209171D01*
X3907782Y-3209171D01*
X4050640Y-3280600D01*
X4122068Y-3352028D01*
X4193497Y-3494885D01*
X4193497Y-3923457D01*
X4122068Y-4066314D01*
X4050640Y-4137742D01*
X3907782Y-4209171D01*
X3622068Y-4209171D01*
X3479211Y-4137742D01*
X4693497Y-3209171D02*
X5050640Y-4209171D01*
X5407782Y-3209171D01*
X6193497Y-4209171D02*
X6050640Y-4137742D01*
X5979211Y-4066314D01*
X5907782Y-3923457D01*
X5907782Y-3494885D01*
X5979211Y-3352028D01*
X6050640Y-3280600D01*
X6193497Y-3209171D01*
X6407782Y-3209171D01*
X6550640Y-3280600D01*
X6622068Y-3352028D01*
X6693497Y-3494885D01*
X6693497Y-3923457D01*
X6622068Y-4066314D01*
X6550640Y-4137742D01*
X6407782Y-4209171D01*
X6193497Y-4209171D01*
X7264925Y-4137742D02*
X7407782Y-4209171D01*
X7693497Y-4209171D01*
X7836354Y-4137742D01*
X7907782Y-3994885D01*
X7907782Y-3923457D01*
X7836354Y-3780600D01*
X7693497Y-3709171D01*
X7479211Y-3709171D01*
X7336354Y-3637742D01*
X7264925Y-3494885D01*
X7264925Y-3423457D01*
X7336354Y-3280600D01*
X7479211Y-3209171D01*
X7693497Y-3209171D01*
X7836354Y-3280600D01*
X8550640Y-4066314D02*
X8622068Y-4137742D01*
X8550640Y-4209171D01*
X8479211Y-4137742D01*
X8550640Y-4066314D01*
X8550640Y-4209171D01*
X9479211Y-4209171D02*
X9336354Y-4137742D01*
X9264925Y-4066314D01*
X9193497Y-3923457D01*
X9193497Y-3494885D01*
X9264925Y-3352028D01*
X9336354Y-3280600D01*
X9479211Y-3209171D01*
X9693497Y-3209171D01*
X9836354Y-3280600D01*
X9907782Y-3352028D01*
X9979211Y-3494885D01*
X9979211Y-3923457D01*
X9907782Y-4066314D01*
X9836354Y-4137742D01*
X9693497Y-4209171D01*
X9479211Y-4209171D01*
X10622068Y-4209171D02*
X10622068Y-3209171D01*
X10622068Y-3494885D02*
X10693497Y-3352028D01*
X10764925Y-3280600D01*
X10907782Y-3209171D01*
X11050640Y-3209171D01*
X12193497Y-3209171D02*
X12193497Y-4423457D01*
X12122068Y-4566314D01*
X12050640Y-4637742D01*
X11907782Y-4709171D01*
X11693497Y-4709171D01*
X11550640Y-4637742D01*
X12193497Y-4137742D02*
X12050640Y-4209171D01*
X11764925Y-4209171D01*
X11622068Y-4137742D01*
X11550640Y-4066314D01*
X11479211Y-3923457D01*
X11479211Y-3494885D01*
X11550640Y-3352028D01*
X11622068Y-3280600D01*
X11764925Y-3209171D01*
X12050640Y-3209171D01*
X12193497Y-3280600D01*
X13979211Y-2637742D02*
X12693497Y-4566314D01*
X14407782Y-4137742D02*
X14550640Y-4209171D01*
X14836354Y-4209171D01*
X14979211Y-4137742D01*
X15050640Y-3994885D01*
X15050640Y-3923457D01*
X14979211Y-3780600D01*
X14836354Y-3709171D01*
X14622068Y-3709171D01*
X14479211Y-3637742D01*
X14407782Y-3494885D01*
X14407782Y-3423457D01*
X14479211Y-3280600D01*
X14622068Y-3209171D01*
X14836354Y-3209171D01*
X14979211Y-3280600D01*
X15907782Y-4209171D02*
X15764925Y-4137742D01*
X15693497Y-4066314D01*
X15622068Y-3923457D01*
X15622068Y-3494885D01*
X15693497Y-3352028D01*
X15764925Y-3280600D01*
X15907782Y-3209171D01*
X16122068Y-3209171D01*
X16264925Y-3280600D01*
X16336354Y-3352028D01*
X16407782Y-3494885D01*
X16407782Y-3923457D01*
X16336354Y-4066314D01*
X16264925Y-4137742D01*
X16122068Y-4209171D01*
X15907782Y-4209171D01*
X17050640Y-4209171D02*
X17050640Y-3209171D01*
X17050640Y-2709171D02*
X16979211Y-2780600D01*
X17050640Y-2852028D01*
X17122068Y-2780600D01*
X17050640Y-2709171D01*
X17050640Y-2852028D01*
X17979211Y-4209171D02*
X17836354Y-4137742D01*
X17764925Y-3994885D01*
X17764925Y-2709171D01*
X18550640Y-3637742D02*
X19693497Y-3637742D01*
X20407782Y-4209171D02*
X20407782Y-3209171D01*
X20407782Y-3494885D02*
X20479211Y-3352028D01*
X20550640Y-3280600D01*
X20693497Y-3209171D01*
X20836354Y-3209171D01*
X21907782Y-4137742D02*
X21764925Y-4209171D01*
X21479211Y-4209171D01*
X21336354Y-4137742D01*
X21264925Y-3994885D01*
X21264925Y-3423457D01*
X21336354Y-3280600D01*
X21479211Y-3209171D01*
X21764925Y-3209171D01*
X21907782Y-3280600D01*
X21979211Y-3423457D01*
X21979211Y-3566314D01*
X21264925Y-3709171D01*
X22836354Y-4209171D02*
X22693497Y-4137742D01*
X22622068Y-3994885D01*
X22622068Y-2709171D01*
X24050640Y-4209171D02*
X24050640Y-3423457D01*
X23979211Y-3280600D01*
X23836354Y-3209171D01*
X23550640Y-3209171D01*
X23407782Y-3280600D01*
X24050640Y-4137742D02*
X23907782Y-4209171D01*
X23550640Y-4209171D01*
X23407782Y-4137742D01*
X23336354Y-3994885D01*
X23336354Y-3852028D01*
X23407782Y-3709171D01*
X23550640Y-3637742D01*
X23907782Y-3637742D01*
X24050640Y-3566314D01*
X24622068Y-3209171D02*
X24979211Y-4209171D01*
X25336354Y-3209171D02*
X24979211Y-4209171D01*
X24836354Y-4566314D01*
X24764925Y-4637742D01*
X24622068Y-4709171D01*
X25907782Y-3637742D02*
X27050640Y-3637742D01*
X27622068Y-3209171D02*
X27979211Y-4209171D01*
X28336354Y-3209171D01*
X28836354Y-2852028D02*
X28907782Y-2780600D01*
X29050640Y-2709171D01*
X29407782Y-2709171D01*
X29550640Y-2780600D01*
X29622068Y-2852028D01*
X29693497Y-2994885D01*
X29693497Y-3137742D01*
X29622068Y-3352028D01*
X28764925Y-4209171D01*
X29693497Y-4209171D01*
X10286360Y-11358891D02*
X9929217Y-11358891D01*
X9929217Y-9216034D01*
X10286360Y-9216034D01*
X15286360Y-11358891D02*
X15643502Y-11358891D01*
X15643502Y-9216034D01*
X15286360Y-9216034D01*
X10566614Y-18342871D02*
X10566614Y-19414300D01*
X10495185Y-19628585D01*
X10352328Y-19771442D01*
X10138042Y-19842871D01*
X9995185Y-19842871D01*
X11566614Y-18342871D02*
X11852328Y-18342871D01*
X11995185Y-18414300D01*
X12138042Y-18557157D01*
X12209471Y-18842871D01*
X12209471Y-19342871D01*
X12138042Y-19628585D01*
X11995185Y-19771442D01*
X11852328Y-19842871D01*
X11566614Y-19842871D01*
X11423757Y-19771442D01*
X11280900Y-19628585D01*
X11209471Y-19342871D01*
X11209471Y-18842871D01*
X11280900Y-18557157D01*
X11423757Y-18414300D01*
X11566614Y-18342871D01*
X12852328Y-19842871D02*
X12852328Y-18342871D01*
X13566614Y-19842871D02*
X13566614Y-18342871D01*
X14423757Y-19842871D01*
X14423757Y-18342871D01*
X9943614Y-28788442D02*
X10157900Y-28859871D01*
X10515042Y-28859871D01*
X10657900Y-28788442D01*
X10729328Y-28717014D01*
X10800757Y-28574157D01*
X10800757Y-28431300D01*
X10729328Y-28288442D01*
X10657900Y-28217014D01*
X10515042Y-28145585D01*
X10229328Y-28074157D01*
X10086471Y-28002728D01*
X10015042Y-27931300D01*
X9943614Y-27788442D01*
X9943614Y-27645585D01*
X10015042Y-27502728D01*
X10086471Y-27431300D01*
X10229328Y-27359871D01*
X10586471Y-27359871D01*
X10800757Y-27431300D01*
X11443614Y-28074157D02*
X11943614Y-28074157D01*
X12157900Y-28859871D02*
X11443614Y-28859871D01*
X11443614Y-27359871D01*
X12157900Y-27359871D01*
X12800757Y-28859871D02*
X12800757Y-27359871D01*
X13657900Y-28859871D01*
X13657900Y-27359871D01*
X14157900Y-27359871D02*
X15015042Y-27359871D01*
X14586471Y-28859871D02*
X14586471Y-27359871D01*
X9878500Y-37686371D02*
X9878500Y-36186371D01*
X10235642Y-36186371D01*
X10449928Y-36257800D01*
X10592785Y-36400657D01*
X10664214Y-36543514D01*
X10735642Y-36829228D01*
X10735642Y-37043514D01*
X10664214Y-37329228D01*
X10592785Y-37472085D01*
X10449928Y-37614942D01*
X10235642Y-37686371D01*
X9878500Y-37686371D01*
X11307071Y-37257800D02*
X12021357Y-37257800D01*
X11164214Y-37686371D02*
X11664214Y-36186371D01*
X12164214Y-37686371D01*
X12449928Y-36186371D02*
X13307071Y-36186371D01*
X12878500Y-37686371D02*
X12878500Y-36186371D01*
X13735642Y-37257800D02*
X14449928Y-37257800D01*
X13592785Y-37686371D02*
X14092785Y-36186371D01*
X14592785Y-37686371D01*
X10087385Y-54885400D02*
X10801671Y-54885400D01*
X9944528Y-55313971D02*
X10444528Y-53813971D01*
X10944528Y-55313971D01*
X11301671Y-53813971D02*
X11658814Y-55313971D01*
X11944528Y-54242542D01*
X12230242Y-55313971D01*
X12587385Y-53813971D01*
X13087385Y-54885400D02*
X13801671Y-54885400D01*
X12944528Y-55313971D02*
X13444528Y-53813971D01*
X13944528Y-55313971D01*
X14444528Y-55313971D02*
X14444528Y-53813971D01*
X15301671Y-55313971D02*
X14658814Y-54456828D01*
X15301671Y-53813971D02*
X14444528Y-54671114D01*
X15944528Y-54528257D02*
X16444528Y-54528257D01*
X16658814Y-55313971D02*
X15944528Y-55313971D01*
X15944528Y-53813971D01*
X16658814Y-53813971D01*
X10131502Y-46290040D02*
X10845788Y-46290040D01*
X9988645Y-46718611D02*
X10488645Y-45218611D01*
X10988645Y-46718611D01*
X12345788Y-46575754D02*
X12274360Y-46647182D01*
X12060074Y-46718611D01*
X11917217Y-46718611D01*
X11702931Y-46647182D01*
X11560074Y-46504325D01*
X11488645Y-46361468D01*
X11417217Y-46075754D01*
X11417217Y-45861468D01*
X11488645Y-45575754D01*
X11560074Y-45432897D01*
X11702931Y-45290040D01*
X11917217Y-45218611D01*
X12060074Y-45218611D01*
X12274360Y-45290040D01*
X12345788Y-45361468D01*
X13988645Y-46861468D02*
X13845788Y-46790040D01*
X13702931Y-46647182D01*
X13488645Y-46432897D01*
X13345788Y-46361468D01*
X13202931Y-46361468D01*
X13274360Y-46718611D02*
X13131502Y-46647182D01*
X12988645Y-46504325D01*
X12917217Y-46218611D01*
X12917217Y-45718611D01*
X12988645Y-45432897D01*
X13131502Y-45290040D01*
X13274360Y-45218611D01*
X13560074Y-45218611D01*
X13702931Y-45290040D01*
X13845788Y-45432897D01*
X13917217Y-45718611D01*
X13917217Y-46218611D01*
X13845788Y-46504325D01*
X13702931Y-46647182D01*
X13560074Y-46718611D01*
X13274360Y-46718611D01*
X57897128Y-34525757D02*
X58111414Y-34597185D01*
X58182842Y-34668614D01*
X58254271Y-34811471D01*
X58254271Y-35025757D01*
X58182842Y-35168614D01*
X58111414Y-35240042D01*
X57968557Y-35311471D01*
X57397128Y-35311471D01*
X57397128Y-33811471D01*
X57897128Y-33811471D01*
X58039985Y-33882900D01*
X58111414Y-33954328D01*
X58182842Y-34097185D01*
X58182842Y-34240042D01*
X58111414Y-34382900D01*
X58039985Y-34454328D01*
X57897128Y-34525757D01*
X57397128Y-34525757D01*
X58825700Y-34882900D02*
X59539985Y-34882900D01*
X58682842Y-35311471D02*
X59182842Y-33811471D01*
X59682842Y-35311471D01*
X59968557Y-33811471D02*
X60825700Y-33811471D01*
X60397128Y-35311471D02*
X60397128Y-33811471D01*
X61111414Y-33811471D02*
X61968557Y-33811471D01*
X61539985Y-35311471D02*
X61539985Y-33811471D01*
X56568614Y-23170271D02*
X56568614Y-21670271D01*
X57140042Y-21670271D01*
X57282900Y-21741700D01*
X57354328Y-21813128D01*
X57425757Y-21955985D01*
X57425757Y-22170271D01*
X57354328Y-22313128D01*
X57282900Y-22384557D01*
X57140042Y-22455985D01*
X56568614Y-22455985D01*
X58354328Y-21670271D02*
X58640042Y-21670271D01*
X58782900Y-21741700D01*
X58925757Y-21884557D01*
X58997185Y-22170271D01*
X58997185Y-22670271D01*
X58925757Y-22955985D01*
X58782900Y-23098842D01*
X58640042Y-23170271D01*
X58354328Y-23170271D01*
X58211471Y-23098842D01*
X58068614Y-22955985D01*
X57997185Y-22670271D01*
X57997185Y-22170271D01*
X58068614Y-21884557D01*
X58211471Y-21741700D01*
X58354328Y-21670271D01*
X59497185Y-21670271D02*
X59854328Y-23170271D01*
X60140042Y-22098842D01*
X60425757Y-23170271D01*
X60782900Y-21670271D01*
X61354328Y-22384557D02*
X61854328Y-22384557D01*
X62068614Y-23170271D02*
X61354328Y-23170271D01*
X61354328Y-21670271D01*
X62068614Y-21670271D01*
X63568614Y-23170271D02*
X63068614Y-22455985D01*
X62711471Y-23170271D02*
X62711471Y-21670271D01*
X63282900Y-21670271D01*
X63425757Y-21741700D01*
X63497185Y-21813128D01*
X63568614Y-21955985D01*
X63568614Y-22170271D01*
X63497185Y-22313128D01*
X63425757Y-22384557D01*
X63282900Y-22455985D01*
X62711471Y-22455985D01*
X61301428Y-27753571D02*
X61587142Y-27753571D01*
X61730000Y-27825000D01*
X61872857Y-27967857D01*
X61944285Y-28253571D01*
X61944285Y-28753571D01*
X61872857Y-29039285D01*
X61730000Y-29182142D01*
X61587142Y-29253571D01*
X61301428Y-29253571D01*
X61158571Y-29182142D01*
X61015714Y-29039285D01*
X60944285Y-28753571D01*
X60944285Y-28253571D01*
X61015714Y-27967857D01*
X61158571Y-27825000D01*
X61301428Y-27753571D01*
X62587142Y-29253571D02*
X62587142Y-27753571D01*
X63444285Y-29253571D01*
X63444285Y-27753571D01*
X55873828Y-27905971D02*
X56159542Y-27905971D01*
X56302400Y-27977400D01*
X56445257Y-28120257D01*
X56516685Y-28405971D01*
X56516685Y-28905971D01*
X56445257Y-29191685D01*
X56302400Y-29334542D01*
X56159542Y-29405971D01*
X55873828Y-29405971D01*
X55730971Y-29334542D01*
X55588114Y-29191685D01*
X55516685Y-28905971D01*
X55516685Y-28405971D01*
X55588114Y-28120257D01*
X55730971Y-27977400D01*
X55873828Y-27905971D01*
X57659542Y-28620257D02*
X57159542Y-28620257D01*
X57159542Y-29405971D02*
X57159542Y-27905971D01*
X57873828Y-27905971D01*
X58945257Y-28620257D02*
X58445257Y-28620257D01*
X58445257Y-29405971D02*
X58445257Y-27905971D01*
X59159542Y-27905971D01*
X66909142Y-12382428D02*
X66909142Y-11239571D01*
X67036142Y-15811428D02*
X67036142Y-14668571D01*
X67607571Y-15240000D02*
X66464714Y-15240000D01*
D11*
X65660000Y-8879619D02*
X65660000Y-7779619D01*
X65921904Y-7779619D01*
X66079047Y-7832000D01*
X66183809Y-7936761D01*
X66236190Y-8041523D01*
X66288571Y-8251047D01*
X66288571Y-8408190D01*
X66236190Y-8617714D01*
X66183809Y-8722476D01*
X66079047Y-8827238D01*
X65921904Y-8879619D01*
X65660000Y-8879619D01*
X66707619Y-8565333D02*
X67231428Y-8565333D01*
X66602857Y-8879619D02*
X66969523Y-7779619D01*
X67336190Y-8879619D01*
X67545714Y-7779619D02*
X68174285Y-7779619D01*
X67860000Y-8879619D02*
X67860000Y-7779619D01*
X68488571Y-8565333D02*
X69012380Y-8565333D01*
X68383809Y-8879619D02*
X68750476Y-7779619D01*
X69117142Y-8879619D01*
D10*
X56559142Y-5306142D02*
X56773428Y-5377571D01*
X57130571Y-5377571D01*
X57273428Y-5306142D01*
X57344857Y-5234714D01*
X57416285Y-5091857D01*
X57416285Y-4949000D01*
X57344857Y-4806142D01*
X57273428Y-4734714D01*
X57130571Y-4663285D01*
X56844857Y-4591857D01*
X56702000Y-4520428D01*
X56630571Y-4449000D01*
X56559142Y-4306142D01*
X56559142Y-4163285D01*
X56630571Y-4020428D01*
X56702000Y-3949000D01*
X56844857Y-3877571D01*
X57202000Y-3877571D01*
X57416285Y-3949000D01*
X58059142Y-5377571D02*
X58059142Y-3877571D01*
X58416285Y-3877571D01*
X58630571Y-3949000D01*
X58773428Y-4091857D01*
X58844857Y-4234714D01*
X58916285Y-4520428D01*
X58916285Y-4734714D01*
X58844857Y-5020428D01*
X58773428Y-5163285D01*
X58630571Y-5306142D01*
X58416285Y-5377571D01*
X58059142Y-5377571D01*
X59559142Y-5377571D02*
X59559142Y-3877571D01*
X60273428Y-4806142D02*
X61416285Y-4806142D01*
X62916285Y-5377571D02*
X62059142Y-5377571D01*
X62487714Y-5377571D02*
X62487714Y-3877571D01*
X62344857Y-4091857D01*
X62202000Y-4234714D01*
X62059142Y-4306142D01*
X63487714Y-4020428D02*
X63559142Y-3949000D01*
X63702000Y-3877571D01*
X64059142Y-3877571D01*
X64202000Y-3949000D01*
X64273428Y-4020428D01*
X64344857Y-4163285D01*
X64344857Y-4306142D01*
X64273428Y-4520428D01*
X63416285Y-5377571D01*
X64344857Y-5377571D01*
X65385142Y-38722228D02*
X65385142Y-37579371D01*
X65448642Y-42430628D02*
X65448642Y-41287771D01*
X66020071Y-41859200D02*
X64877214Y-41859200D01*
X56864642Y-50099042D02*
X57078928Y-50170471D01*
X57436071Y-50170471D01*
X57578928Y-50099042D01*
X57650357Y-50027614D01*
X57721785Y-49884757D01*
X57721785Y-49741900D01*
X57650357Y-49599042D01*
X57578928Y-49527614D01*
X57436071Y-49456185D01*
X57150357Y-49384757D01*
X57007500Y-49313328D01*
X56936071Y-49241900D01*
X56864642Y-49099042D01*
X56864642Y-48956185D01*
X56936071Y-48813328D01*
X57007500Y-48741900D01*
X57150357Y-48670471D01*
X57507500Y-48670471D01*
X57721785Y-48741900D01*
X59078928Y-50170471D02*
X58364642Y-50170471D01*
X58364642Y-48670471D01*
X59578928Y-49384757D02*
X60078928Y-49384757D01*
X60293214Y-50170471D02*
X59578928Y-50170471D01*
X59578928Y-48670471D01*
X60293214Y-48670471D01*
X60936071Y-49384757D02*
X61436071Y-49384757D01*
X61650357Y-50170471D02*
X60936071Y-50170471D01*
X60936071Y-48670471D01*
X61650357Y-48670471D01*
X62293214Y-50170471D02*
X62293214Y-48670471D01*
X62864642Y-48670471D01*
X63007500Y-48741900D01*
X63078928Y-48813328D01*
X63150357Y-48956185D01*
X63150357Y-49170471D01*
X63078928Y-49313328D01*
X63007500Y-49384757D01*
X62864642Y-49456185D01*
X62293214Y-49456185D01*
X61482385Y-56939571D02*
X61482385Y-55439571D01*
X61482385Y-56153857D02*
X62339528Y-56153857D01*
X62339528Y-56939571D02*
X62339528Y-55439571D01*
X63053814Y-56939571D02*
X63053814Y-55439571D01*
X56917471Y-56990371D02*
X56203185Y-56990371D01*
X56203185Y-55490371D01*
X57703185Y-55490371D02*
X57988900Y-55490371D01*
X58131757Y-55561800D01*
X58274614Y-55704657D01*
X58346042Y-55990371D01*
X58346042Y-56490371D01*
X58274614Y-56776085D01*
X58131757Y-56918942D01*
X57988900Y-56990371D01*
X57703185Y-56990371D01*
X57560328Y-56918942D01*
X57417471Y-56776085D01*
X57346042Y-56490371D01*
X57346042Y-55990371D01*
X57417471Y-55704657D01*
X57560328Y-55561800D01*
X57703185Y-55490371D01*
X24636528Y-47794171D02*
X24922242Y-47794171D01*
X25065100Y-47865600D01*
X25207957Y-48008457D01*
X25279385Y-48294171D01*
X25279385Y-48794171D01*
X25207957Y-49079885D01*
X25065100Y-49222742D01*
X24922242Y-49294171D01*
X24636528Y-49294171D01*
X24493671Y-49222742D01*
X24350814Y-49079885D01*
X24279385Y-48794171D01*
X24279385Y-48294171D01*
X24350814Y-48008457D01*
X24493671Y-47865600D01*
X24636528Y-47794171D01*
X25922242Y-49294171D02*
X25922242Y-47794171D01*
X26779385Y-49294171D01*
X26779385Y-47794171D01*
X20246708Y-45463851D02*
X19532422Y-45463851D01*
X19532422Y-43963851D01*
X20746708Y-44678137D02*
X21246708Y-44678137D01*
X21460994Y-45463851D02*
X20746708Y-45463851D01*
X20746708Y-43963851D01*
X21460994Y-43963851D01*
X22103851Y-45463851D02*
X22103851Y-43963851D01*
X22460994Y-43963851D01*
X22675280Y-44035280D01*
X22818137Y-44178137D01*
X22889565Y-44320994D01*
X22960994Y-44606708D01*
X22960994Y-44820994D01*
X22889565Y-45106708D01*
X22818137Y-45249565D01*
X22675280Y-45392422D01*
X22460994Y-45463851D01*
X22103851Y-45463851D01*
X23532422Y-45392422D02*
X23746708Y-45463851D01*
X24103851Y-45463851D01*
X24246708Y-45392422D01*
X24318137Y-45320994D01*
X24389565Y-45178137D01*
X24389565Y-45035280D01*
X24318137Y-44892422D01*
X24246708Y-44820994D01*
X24103851Y-44749565D01*
X23818137Y-44678137D01*
X23675280Y-44606708D01*
X23603851Y-44535280D01*
X23532422Y-44392422D01*
X23532422Y-44249565D01*
X23603851Y-44106708D01*
X23675280Y-44035280D01*
X23818137Y-43963851D01*
X24175280Y-43963851D01*
X24389565Y-44035280D01*
D12*
X49530000Y-55780000D02*
X49530000Y-55710000D01*
X50900000Y-57150000D02*
G75*
G03X50900000Y-57150000I-1370000J0D01*
G01*
X21831300Y-54746200D02*
X20501300Y-54746200D01*
X20501300Y-54746200D02*
X20501300Y-53416200D01*
X20501300Y-52146200D02*
X20501300Y-47006200D01*
X23161300Y-47006200D02*
X20501300Y-47006200D01*
X23161300Y-52146200D02*
X23161300Y-47006200D01*
X23161300Y-52146200D02*
X20501300Y-52146200D01*
X58369200Y-54174700D02*
X58369200Y-51514700D01*
X58369200Y-54174700D02*
X63509200Y-54174700D01*
X63509200Y-54174700D02*
X63509200Y-51514700D01*
X58369200Y-51514700D02*
X63509200Y-51514700D01*
X55769200Y-51514700D02*
X57099200Y-51514700D01*
X55769200Y-52844700D02*
X55769200Y-51514700D01*
X60555921Y-40753036D02*
G75*
G02X60811200Y-41643300I-1424721J-890264D01*
G01*
X58241007Y-40217795D02*
G75*
G02X60022200Y-40218300I890193J-1425505D01*
G01*
X57705842Y-42533194D02*
G75*
G02X57691200Y-40777300I1425358J889894D01*
G01*
X60021094Y-43068658D02*
G75*
G02X58265200Y-43083300I-889894J1425358D01*
G01*
X60811299Y-41614626D02*
G75*
G02X60571200Y-42509300I-1680099J-28674D01*
G01*
X60811200Y-38143300D02*
G75*
G03X60811200Y-38143300I-1680000J0D01*
G01*
X63231200Y-43453300D02*
X63231200Y-36333300D01*
X62131200Y-43453300D02*
X62131200Y-36333300D01*
X55971200Y-43453300D02*
X55971200Y-36333300D01*
X63691200Y-43453300D02*
X63691200Y-36333300D01*
X55971200Y-43453300D02*
X63691200Y-43453300D01*
X55971200Y-36333300D02*
X63691200Y-36333300D01*
X58062200Y-36868300D02*
X58190200Y-36997300D01*
X60312200Y-39118300D02*
X60405200Y-39212300D01*
X57856200Y-37073300D02*
X57950200Y-37167300D01*
X60072200Y-39288300D02*
X60200200Y-39417300D01*
X63291200Y-43693300D02*
X63931200Y-43693300D01*
X63931200Y-43693300D02*
X63931200Y-43293300D01*
X44450000Y-42010000D02*
X44450000Y-42080000D01*
X45820000Y-40640000D02*
G75*
G03X45820000Y-40640000I-1370000J0D01*
G01*
X39052500Y-37819000D02*
X39052500Y-37889000D01*
X40422500Y-36449000D02*
G75*
G03X40422500Y-36449000I-1370000J0D01*
G01*
X22760000Y-12700000D02*
X22690000Y-12700000D01*
X25500000Y-12700000D02*
G75*
G03X25500000Y-12700000I-1370000J0D01*
G01*
X22760000Y-16510000D02*
X22690000Y-16510000D01*
X25500000Y-16510000D02*
G75*
G03X25500000Y-16510000I-1370000J0D01*
G01*
X22760000Y-21590000D02*
X22690000Y-21590000D01*
X25500000Y-21590000D02*
G75*
G03X25500000Y-21590000I-1370000J0D01*
G01*
X22760000Y-25400000D02*
X22690000Y-25400000D01*
X25500000Y-25400000D02*
G75*
G03X25500000Y-25400000I-1370000J0D01*
G01*
X22760000Y-34290000D02*
X22690000Y-34290000D01*
X25500000Y-34290000D02*
G75*
G03X25500000Y-34290000I-1370000J0D01*
G01*
X22760000Y-30480000D02*
X22690000Y-30480000D01*
X25500000Y-30480000D02*
G75*
G03X25500000Y-30480000I-1370000J0D01*
G01*
X50860000Y-49530000D02*
X48200000Y-49530000D01*
X50860000Y-49530000D02*
X50860000Y-11370000D01*
X50860000Y-11370000D02*
X48200000Y-11370000D01*
X48200000Y-49530000D02*
X48200000Y-11370000D01*
X48200000Y-52130000D02*
X48200000Y-50800000D01*
X49530000Y-52130000D02*
X48200000Y-52130000D01*
X30540000Y-39370000D02*
X27880000Y-39370000D01*
X30540000Y-39370000D02*
X30540000Y-11370000D01*
X30540000Y-11370000D02*
X27880000Y-11370000D01*
X27880000Y-39370000D02*
X27880000Y-11370000D01*
X27880000Y-41970000D02*
X27880000Y-40640000D01*
X29210000Y-41970000D02*
X27880000Y-41970000D01*
X4790000Y-55690000D02*
X4790000Y-55846000D01*
X4790000Y-53374000D02*
X4790000Y-53530000D01*
X7391130Y-55689837D02*
G75*
G02X5309039Y-55690000I-1041130J1079837D01*
G01*
X7391130Y-53530163D02*
G75*
G03X5309039Y-53530000I-1041130J-1079837D01*
G01*
X8022335Y-55688608D02*
G75*
G02X4790000Y-55845516I-1672335J1078608D01*
G01*
X8022335Y-53531392D02*
G75*
G03X4790000Y-53374484I-1672335J-1078608D01*
G01*
X8022335Y-44641392D02*
G75*
G03X4790000Y-44484484I-1672335J-1078608D01*
G01*
X8022335Y-46798608D02*
G75*
G02X4790000Y-46955516I-1672335J1078608D01*
G01*
X7391130Y-44640163D02*
G75*
G03X5309039Y-44640000I-1041130J-1079837D01*
G01*
X7391130Y-46799837D02*
G75*
G02X5309039Y-46800000I-1041130J1079837D01*
G01*
X4790000Y-44484000D02*
X4790000Y-44640000D01*
X4790000Y-46800000D02*
X4790000Y-46956000D01*
X4790000Y-37910000D02*
X4790000Y-38066000D01*
X4790000Y-35594000D02*
X4790000Y-35750000D01*
X7391130Y-37909837D02*
G75*
G02X5309039Y-37910000I-1041130J1079837D01*
G01*
X7391130Y-35750163D02*
G75*
G03X5309039Y-35750000I-1041130J-1079837D01*
G01*
X8022335Y-37908608D02*
G75*
G02X4790000Y-38065516I-1672335J1078608D01*
G01*
X8022335Y-35751392D02*
G75*
G03X4790000Y-35594484I-1672335J-1078608D01*
G01*
X8022335Y-26861392D02*
G75*
G03X4790000Y-26704484I-1672335J-1078608D01*
G01*
X8022335Y-29018608D02*
G75*
G02X4790000Y-29175516I-1672335J1078608D01*
G01*
X7391130Y-26860163D02*
G75*
G03X5309039Y-26860000I-1041130J-1079837D01*
G01*
X7391130Y-29019837D02*
G75*
G02X5309039Y-29020000I-1041130J1079837D01*
G01*
X4790000Y-26704000D02*
X4790000Y-26860000D01*
X4790000Y-29020000D02*
X4790000Y-29176000D01*
X4790000Y-20130000D02*
X4790000Y-20286000D01*
X4790000Y-17814000D02*
X4790000Y-17970000D01*
X7391130Y-20129837D02*
G75*
G02X5309039Y-20130000I-1041130J1079837D01*
G01*
X7391130Y-17970163D02*
G75*
G03X5309039Y-17970000I-1041130J-1079837D01*
G01*
X8022335Y-20128608D02*
G75*
G02X4790000Y-20285516I-1672335J1078608D01*
G01*
X8022335Y-17971392D02*
G75*
G03X4790000Y-17814484I-1672335J-1078608D01*
G01*
X8022335Y-9081392D02*
G75*
G03X4790000Y-8924484I-1672335J-1078608D01*
G01*
X8022335Y-11238608D02*
G75*
G02X4790000Y-11395516I-1672335J1078608D01*
G01*
X7391130Y-9080163D02*
G75*
G03X5309039Y-9080000I-1041130J-1079837D01*
G01*
X7391130Y-11239837D02*
G75*
G02X5309039Y-11240000I-1041130J1079837D01*
G01*
X4790000Y-8924000D02*
X4790000Y-9080000D01*
X4790000Y-11240000D02*
X4790000Y-11396000D01*
X53340000Y-12640000D02*
X54670000Y-12640000D01*
X54670000Y-12640000D02*
X54670000Y-13970000D01*
X54670000Y-15240000D02*
X54670000Y-17840000D01*
X52010000Y-17840000D02*
X54670000Y-17840000D01*
X52010000Y-15240000D02*
X52010000Y-17840000D01*
X52010000Y-15240000D02*
X54670000Y-15240000D01*
X64490000Y-17290000D02*
X64490000Y-16890000D01*
X63850000Y-17290000D02*
X64490000Y-17290000D01*
X60631000Y-9385000D02*
X60759000Y-9514000D01*
X58415000Y-7170000D02*
X58509000Y-7264000D01*
X60871000Y-9215000D02*
X60964000Y-9309000D01*
X58621000Y-6965000D02*
X58749000Y-7094000D01*
X60631000Y-12885000D02*
X60759000Y-13014000D01*
X58415000Y-10670000D02*
X58509000Y-10764000D01*
X60871000Y-12715000D02*
X60964000Y-12809000D01*
X58621000Y-10465000D02*
X58749000Y-10594000D01*
X56530000Y-6430000D02*
X64250000Y-6430000D01*
X56530000Y-17050000D02*
X64250000Y-17050000D01*
X64250000Y-17050000D02*
X64250000Y-6430000D01*
X56530000Y-17050000D02*
X56530000Y-6430000D01*
X62690000Y-17050000D02*
X62690000Y-6430000D01*
X63790000Y-17050000D02*
X63790000Y-6430000D01*
X61370000Y-8240000D02*
G75*
G03X61370000Y-8240000I-1680000J0D01*
G01*
X61370000Y-11740000D02*
G75*
G03X61370000Y-11740000I-1680000J0D01*
G01*
X61370099Y-15211326D02*
G75*
G02X61130000Y-16106000I-1680099J-28674D01*
G01*
X60579894Y-16665358D02*
G75*
G02X58824000Y-16680000I-889894J1425358D01*
G01*
X58264642Y-16129894D02*
G75*
G02X58250000Y-14374000I1425358J889894D01*
G01*
X58799807Y-13814495D02*
G75*
G02X60581000Y-13815000I890193J-1425505D01*
G01*
X61114721Y-14349736D02*
G75*
G02X61370000Y-15240000I-1424721J-890264D01*
G01*
X58420000Y-26730000D02*
X58420000Y-24070000D01*
X58420000Y-26730000D02*
X63560000Y-26730000D01*
X63560000Y-26730000D02*
X63560000Y-24070000D01*
X58420000Y-24070000D02*
X63560000Y-24070000D01*
X55820000Y-24070000D02*
X57150000Y-24070000D01*
X55820000Y-25400000D02*
X55820000Y-24070000D01*
D13*
X47612380Y-57094285D02*
X47136190Y-57427619D01*
X47612380Y-57665714D02*
X46612380Y-57665714D01*
X46612380Y-57284761D01*
X46660000Y-57189523D01*
X46707619Y-57141904D01*
X46802857Y-57094285D01*
X46945714Y-57094285D01*
X47040952Y-57141904D01*
X47088571Y-57189523D01*
X47136190Y-57284761D01*
X47136190Y-57665714D01*
X47564761Y-56713333D02*
X47612380Y-56570476D01*
X47612380Y-56332380D01*
X47564761Y-56237142D01*
X47517142Y-56189523D01*
X47421904Y-56141904D01*
X47326666Y-56141904D01*
X47231428Y-56189523D01*
X47183809Y-56237142D01*
X47136190Y-56332380D01*
X47088571Y-56522857D01*
X47040952Y-56618095D01*
X46993333Y-56665714D01*
X46898095Y-56713333D01*
X46802857Y-56713333D01*
X46707619Y-56665714D01*
X46660000Y-56618095D01*
X46612380Y-56522857D01*
X46612380Y-56284761D01*
X46660000Y-56141904D01*
X46612380Y-55808571D02*
X47612380Y-55570476D01*
X46898095Y-55380000D01*
X47612380Y-55189523D01*
X46612380Y-54951428D01*
X47612380Y-54046666D02*
X47612380Y-54618095D01*
X47612380Y-54332380D02*
X46612380Y-54332380D01*
X46755238Y-54427619D01*
X46850476Y-54522857D01*
X46898095Y-54618095D01*
X38608095Y-47442380D02*
X38608095Y-46442380D01*
X38608095Y-46918571D02*
X39179523Y-46918571D01*
X39179523Y-47442380D02*
X39179523Y-46442380D01*
X39608095Y-46537619D02*
X39655714Y-46490000D01*
X39750952Y-46442380D01*
X39989047Y-46442380D01*
X40084285Y-46490000D01*
X40131904Y-46537619D01*
X40179523Y-46632857D01*
X40179523Y-46728095D01*
X40131904Y-46870952D01*
X39560476Y-47442380D01*
X40179523Y-47442380D01*
X35068095Y-10612380D02*
X35068095Y-9612380D01*
X35068095Y-10088571D02*
X35639523Y-10088571D01*
X35639523Y-10612380D02*
X35639523Y-9612380D01*
X36639523Y-10612380D02*
X36068095Y-10612380D01*
X36353809Y-10612380D02*
X36353809Y-9612380D01*
X36258571Y-9755238D01*
X36163333Y-9850476D01*
X36068095Y-9898095D01*
X20497966Y-56590961D02*
X20640823Y-56638580D01*
X20878919Y-56638580D01*
X20974157Y-56590961D01*
X21021776Y-56543342D01*
X21069395Y-56448104D01*
X21069395Y-56352866D01*
X21021776Y-56257628D01*
X20974157Y-56210009D01*
X20878919Y-56162390D01*
X20688442Y-56114771D01*
X20593204Y-56067152D01*
X20545585Y-56019533D01*
X20497966Y-55924295D01*
X20497966Y-55829057D01*
X20545585Y-55733819D01*
X20593204Y-55686200D01*
X20688442Y-55638580D01*
X20926538Y-55638580D01*
X21069395Y-55686200D01*
X21402728Y-55638580D02*
X21640823Y-56638580D01*
X21831300Y-55924295D01*
X22021776Y-56638580D01*
X22259871Y-55638580D01*
X22545585Y-55638580D02*
X23164633Y-55638580D01*
X22831300Y-56019533D01*
X22974157Y-56019533D01*
X23069395Y-56067152D01*
X23117014Y-56114771D01*
X23164633Y-56210009D01*
X23164633Y-56448104D01*
X23117014Y-56543342D01*
X23069395Y-56590961D01*
X22974157Y-56638580D01*
X22688442Y-56638580D01*
X22593204Y-56590961D01*
X22545585Y-56543342D01*
X54733961Y-54178033D02*
X54781580Y-54035176D01*
X54781580Y-53797080D01*
X54733961Y-53701842D01*
X54686342Y-53654223D01*
X54591104Y-53606604D01*
X54495866Y-53606604D01*
X54400628Y-53654223D01*
X54353009Y-53701842D01*
X54305390Y-53797080D01*
X54257771Y-53987557D01*
X54210152Y-54082795D01*
X54162533Y-54130414D01*
X54067295Y-54178033D01*
X53972057Y-54178033D01*
X53876819Y-54130414D01*
X53829200Y-54082795D01*
X53781580Y-53987557D01*
X53781580Y-53749461D01*
X53829200Y-53606604D01*
X53781580Y-53273271D02*
X54781580Y-53035176D01*
X54067295Y-52844700D01*
X54781580Y-52654223D01*
X53781580Y-52416128D01*
X53876819Y-52082795D02*
X53829200Y-52035176D01*
X53781580Y-51939938D01*
X53781580Y-51701842D01*
X53829200Y-51606604D01*
X53876819Y-51558985D01*
X53972057Y-51511366D01*
X54067295Y-51511366D01*
X54210152Y-51558985D01*
X54781580Y-52130414D01*
X54781580Y-51511366D01*
X54348071Y-37895114D02*
X54395690Y-37752257D01*
X54443309Y-37704638D01*
X54538547Y-37657019D01*
X54681404Y-37657019D01*
X54776642Y-37704638D01*
X54824261Y-37752257D01*
X54871880Y-37847495D01*
X54871880Y-38228447D01*
X53871880Y-38228447D01*
X53871880Y-37895114D01*
X53919500Y-37799876D01*
X53967119Y-37752257D01*
X54062357Y-37704638D01*
X54157595Y-37704638D01*
X54252833Y-37752257D01*
X54300452Y-37799876D01*
X54348071Y-37895114D01*
X54348071Y-38228447D01*
X53871880Y-37371304D02*
X53871880Y-36799876D01*
X54871880Y-37085590D02*
X53871880Y-37085590D01*
X54871880Y-35942733D02*
X54871880Y-36514161D01*
X54871880Y-36228447D02*
X53871880Y-36228447D01*
X54014738Y-36323685D01*
X54109976Y-36418923D01*
X54157595Y-36514161D01*
X43843652Y-46185080D02*
X43510319Y-45708890D01*
X43272223Y-46185080D02*
X43272223Y-45185080D01*
X43653176Y-45185080D01*
X43748414Y-45232700D01*
X43796033Y-45280319D01*
X43843652Y-45375557D01*
X43843652Y-45518414D01*
X43796033Y-45613652D01*
X43748414Y-45661271D01*
X43653176Y-45708890D01*
X43272223Y-45708890D01*
X44272223Y-45661271D02*
X44605557Y-45661271D01*
X44748414Y-46185080D02*
X44272223Y-46185080D01*
X44272223Y-45185080D01*
X44748414Y-45185080D01*
X45129366Y-45280319D02*
X45176985Y-45232700D01*
X45272223Y-45185080D01*
X45510319Y-45185080D01*
X45605557Y-45232700D01*
X45653176Y-45280319D01*
X45700795Y-45375557D01*
X45700795Y-45470795D01*
X45653176Y-45613652D01*
X45081747Y-46185080D01*
X45700795Y-46185080D01*
X41874880Y-38338047D02*
X41398690Y-38671380D01*
X41874880Y-38909476D02*
X40874880Y-38909476D01*
X40874880Y-38528523D01*
X40922500Y-38433285D01*
X40970119Y-38385666D01*
X41065357Y-38338047D01*
X41208214Y-38338047D01*
X41303452Y-38385666D01*
X41351071Y-38433285D01*
X41398690Y-38528523D01*
X41398690Y-38909476D01*
X41351071Y-37909476D02*
X41351071Y-37576142D01*
X41874880Y-37433285D02*
X41874880Y-37909476D01*
X40874880Y-37909476D01*
X40874880Y-37433285D01*
X41874880Y-36480904D02*
X41874880Y-37052333D01*
X41874880Y-36766619D02*
X40874880Y-36766619D01*
X41017738Y-36861857D01*
X41112976Y-36957095D01*
X41160595Y-37052333D01*
X18883333Y-13152380D02*
X18550000Y-12676190D01*
X18311904Y-13152380D02*
X18311904Y-12152380D01*
X18692857Y-12152380D01*
X18788095Y-12200000D01*
X18835714Y-12247619D01*
X18883333Y-12342857D01*
X18883333Y-12485714D01*
X18835714Y-12580952D01*
X18788095Y-12628571D01*
X18692857Y-12676190D01*
X18311904Y-12676190D01*
X19740476Y-12152380D02*
X19550000Y-12152380D01*
X19454761Y-12200000D01*
X19407142Y-12247619D01*
X19311904Y-12390476D01*
X19264285Y-12580952D01*
X19264285Y-12961904D01*
X19311904Y-13057142D01*
X19359523Y-13104761D01*
X19454761Y-13152380D01*
X19645238Y-13152380D01*
X19740476Y-13104761D01*
X19788095Y-13057142D01*
X19835714Y-12961904D01*
X19835714Y-12723809D01*
X19788095Y-12628571D01*
X19740476Y-12580952D01*
X19645238Y-12533333D01*
X19454761Y-12533333D01*
X19359523Y-12580952D01*
X19311904Y-12628571D01*
X19264285Y-12723809D01*
X18883333Y-16962380D02*
X18550000Y-16486190D01*
X18311904Y-16962380D02*
X18311904Y-15962380D01*
X18692857Y-15962380D01*
X18788095Y-16010000D01*
X18835714Y-16057619D01*
X18883333Y-16152857D01*
X18883333Y-16295714D01*
X18835714Y-16390952D01*
X18788095Y-16438571D01*
X18692857Y-16486190D01*
X18311904Y-16486190D01*
X19788095Y-15962380D02*
X19311904Y-15962380D01*
X19264285Y-16438571D01*
X19311904Y-16390952D01*
X19407142Y-16343333D01*
X19645238Y-16343333D01*
X19740476Y-16390952D01*
X19788095Y-16438571D01*
X19835714Y-16533809D01*
X19835714Y-16771904D01*
X19788095Y-16867142D01*
X19740476Y-16914761D01*
X19645238Y-16962380D01*
X19407142Y-16962380D01*
X19311904Y-16914761D01*
X19264285Y-16867142D01*
X18883333Y-22042380D02*
X18550000Y-21566190D01*
X18311904Y-22042380D02*
X18311904Y-21042380D01*
X18692857Y-21042380D01*
X18788095Y-21090000D01*
X18835714Y-21137619D01*
X18883333Y-21232857D01*
X18883333Y-21375714D01*
X18835714Y-21470952D01*
X18788095Y-21518571D01*
X18692857Y-21566190D01*
X18311904Y-21566190D01*
X19740476Y-21375714D02*
X19740476Y-22042380D01*
X19502380Y-20994761D02*
X19264285Y-21709047D01*
X19883333Y-21709047D01*
X18883333Y-25852380D02*
X18550000Y-25376190D01*
X18311904Y-25852380D02*
X18311904Y-24852380D01*
X18692857Y-24852380D01*
X18788095Y-24900000D01*
X18835714Y-24947619D01*
X18883333Y-25042857D01*
X18883333Y-25185714D01*
X18835714Y-25280952D01*
X18788095Y-25328571D01*
X18692857Y-25376190D01*
X18311904Y-25376190D01*
X19216666Y-24852380D02*
X19835714Y-24852380D01*
X19502380Y-25233333D01*
X19645238Y-25233333D01*
X19740476Y-25280952D01*
X19788095Y-25328571D01*
X19835714Y-25423809D01*
X19835714Y-25661904D01*
X19788095Y-25757142D01*
X19740476Y-25804761D01*
X19645238Y-25852380D01*
X19359523Y-25852380D01*
X19264285Y-25804761D01*
X19216666Y-25757142D01*
X18883333Y-34742380D02*
X18550000Y-34266190D01*
X18311904Y-34742380D02*
X18311904Y-33742380D01*
X18692857Y-33742380D01*
X18788095Y-33790000D01*
X18835714Y-33837619D01*
X18883333Y-33932857D01*
X18883333Y-34075714D01*
X18835714Y-34170952D01*
X18788095Y-34218571D01*
X18692857Y-34266190D01*
X18311904Y-34266190D01*
X19835714Y-34742380D02*
X19264285Y-34742380D01*
X19550000Y-34742380D02*
X19550000Y-33742380D01*
X19454761Y-33885238D01*
X19359523Y-33980476D01*
X19264285Y-34028095D01*
X18883333Y-30932380D02*
X18550000Y-30456190D01*
X18311904Y-30932380D02*
X18311904Y-29932380D01*
X18692857Y-29932380D01*
X18788095Y-29980000D01*
X18835714Y-30027619D01*
X18883333Y-30122857D01*
X18883333Y-30265714D01*
X18835714Y-30360952D01*
X18788095Y-30408571D01*
X18692857Y-30456190D01*
X18311904Y-30456190D01*
X19264285Y-30027619D02*
X19311904Y-29980000D01*
X19407142Y-29932380D01*
X19645238Y-29932380D01*
X19740476Y-29980000D01*
X19788095Y-30027619D01*
X19835714Y-30122857D01*
X19835714Y-30218095D01*
X19788095Y-30360952D01*
X19216666Y-30932380D01*
X19835714Y-30932380D01*
X49196666Y-53022380D02*
X49196666Y-53736666D01*
X49149047Y-53879523D01*
X49053809Y-53974761D01*
X48910952Y-54022380D01*
X48815714Y-54022380D01*
X49625238Y-53117619D02*
X49672857Y-53070000D01*
X49768095Y-53022380D01*
X50006190Y-53022380D01*
X50101428Y-53070000D01*
X50149047Y-53117619D01*
X50196666Y-53212857D01*
X50196666Y-53308095D01*
X50149047Y-53450952D01*
X49577619Y-54022380D01*
X50196666Y-54022380D01*
X28876666Y-42862380D02*
X28876666Y-43576666D01*
X28829047Y-43719523D01*
X28733809Y-43814761D01*
X28590952Y-43862380D01*
X28495714Y-43862380D01*
X29876666Y-43862380D02*
X29305238Y-43862380D01*
X29590952Y-43862380D02*
X29590952Y-42862380D01*
X29495714Y-43005238D01*
X29400476Y-43100476D01*
X29305238Y-43148095D01*
X5611904Y-52102380D02*
X5611904Y-51102380D01*
X5850000Y-51102380D01*
X5992857Y-51150000D01*
X6088095Y-51245238D01*
X6135714Y-51340476D01*
X6183333Y-51530952D01*
X6183333Y-51673809D01*
X6135714Y-51864285D01*
X6088095Y-51959523D01*
X5992857Y-52054761D01*
X5850000Y-52102380D01*
X5611904Y-52102380D01*
X7135714Y-52102380D02*
X6564285Y-52102380D01*
X6850000Y-52102380D02*
X6850000Y-51102380D01*
X6754761Y-51245238D01*
X6659523Y-51340476D01*
X6564285Y-51388095D01*
X5611904Y-43212380D02*
X5611904Y-42212380D01*
X5850000Y-42212380D01*
X5992857Y-42260000D01*
X6088095Y-42355238D01*
X6135714Y-42450476D01*
X6183333Y-42640952D01*
X6183333Y-42783809D01*
X6135714Y-42974285D01*
X6088095Y-43069523D01*
X5992857Y-43164761D01*
X5850000Y-43212380D01*
X5611904Y-43212380D01*
X6564285Y-42307619D02*
X6611904Y-42260000D01*
X6707142Y-42212380D01*
X6945238Y-42212380D01*
X7040476Y-42260000D01*
X7088095Y-42307619D01*
X7135714Y-42402857D01*
X7135714Y-42498095D01*
X7088095Y-42640952D01*
X6516666Y-43212380D01*
X7135714Y-43212380D01*
X5611904Y-34322380D02*
X5611904Y-33322380D01*
X5850000Y-33322380D01*
X5992857Y-33370000D01*
X6088095Y-33465238D01*
X6135714Y-33560476D01*
X6183333Y-33750952D01*
X6183333Y-33893809D01*
X6135714Y-34084285D01*
X6088095Y-34179523D01*
X5992857Y-34274761D01*
X5850000Y-34322380D01*
X5611904Y-34322380D01*
X6516666Y-33322380D02*
X7135714Y-33322380D01*
X6802380Y-33703333D01*
X6945238Y-33703333D01*
X7040476Y-33750952D01*
X7088095Y-33798571D01*
X7135714Y-33893809D01*
X7135714Y-34131904D01*
X7088095Y-34227142D01*
X7040476Y-34274761D01*
X6945238Y-34322380D01*
X6659523Y-34322380D01*
X6564285Y-34274761D01*
X6516666Y-34227142D01*
X5611904Y-25432380D02*
X5611904Y-24432380D01*
X5850000Y-24432380D01*
X5992857Y-24480000D01*
X6088095Y-24575238D01*
X6135714Y-24670476D01*
X6183333Y-24860952D01*
X6183333Y-25003809D01*
X6135714Y-25194285D01*
X6088095Y-25289523D01*
X5992857Y-25384761D01*
X5850000Y-25432380D01*
X5611904Y-25432380D01*
X7040476Y-24765714D02*
X7040476Y-25432380D01*
X6802380Y-24384761D02*
X6564285Y-25099047D01*
X7183333Y-25099047D01*
X5611904Y-16542380D02*
X5611904Y-15542380D01*
X5850000Y-15542380D01*
X5992857Y-15590000D01*
X6088095Y-15685238D01*
X6135714Y-15780476D01*
X6183333Y-15970952D01*
X6183333Y-16113809D01*
X6135714Y-16304285D01*
X6088095Y-16399523D01*
X5992857Y-16494761D01*
X5850000Y-16542380D01*
X5611904Y-16542380D01*
X7088095Y-15542380D02*
X6611904Y-15542380D01*
X6564285Y-16018571D01*
X6611904Y-15970952D01*
X6707142Y-15923333D01*
X6945238Y-15923333D01*
X7040476Y-15970952D01*
X7088095Y-16018571D01*
X7135714Y-16113809D01*
X7135714Y-16351904D01*
X7088095Y-16447142D01*
X7040476Y-16494761D01*
X6945238Y-16542380D01*
X6707142Y-16542380D01*
X6611904Y-16494761D01*
X6564285Y-16447142D01*
X5611904Y-7652380D02*
X5611904Y-6652380D01*
X5850000Y-6652380D01*
X5992857Y-6700000D01*
X6088095Y-6795238D01*
X6135714Y-6890476D01*
X6183333Y-7080952D01*
X6183333Y-7223809D01*
X6135714Y-7414285D01*
X6088095Y-7509523D01*
X5992857Y-7604761D01*
X5850000Y-7652380D01*
X5611904Y-7652380D01*
X7040476Y-6652380D02*
X6850000Y-6652380D01*
X6754761Y-6700000D01*
X6707142Y-6747619D01*
X6611904Y-6890476D01*
X6564285Y-7080952D01*
X6564285Y-7461904D01*
X6611904Y-7557142D01*
X6659523Y-7604761D01*
X6754761Y-7652380D01*
X6945238Y-7652380D01*
X7040476Y-7604761D01*
X7088095Y-7557142D01*
X7135714Y-7461904D01*
X7135714Y-7223809D01*
X7088095Y-7128571D01*
X7040476Y-7080952D01*
X6945238Y-7033333D01*
X6754761Y-7033333D01*
X6659523Y-7080952D01*
X6611904Y-7128571D01*
X6564285Y-7223809D01*
X53006666Y-10652380D02*
X53006666Y-11366666D01*
X52959047Y-11509523D01*
X52863809Y-11604761D01*
X52720952Y-11652380D01*
X52625714Y-11652380D01*
X53387619Y-10652380D02*
X54006666Y-10652380D01*
X53673333Y-11033333D01*
X53816190Y-11033333D01*
X53911428Y-11080952D01*
X53959047Y-11128571D01*
X54006666Y-11223809D01*
X54006666Y-11461904D01*
X53959047Y-11557142D01*
X53911428Y-11604761D01*
X53816190Y-11652380D01*
X53530476Y-11652380D01*
X53435238Y-11604761D01*
X53387619Y-11557142D01*
X54443380Y-8461333D02*
X55157666Y-8461333D01*
X55300523Y-8508952D01*
X55395761Y-8604190D01*
X55443380Y-8747047D01*
X55443380Y-8842285D01*
X54443380Y-7556571D02*
X54443380Y-7747047D01*
X54491000Y-7842285D01*
X54538619Y-7889904D01*
X54681476Y-7985142D01*
X54871952Y-8032761D01*
X55252904Y-8032761D01*
X55348142Y-7985142D01*
X55395761Y-7937523D01*
X55443380Y-7842285D01*
X55443380Y-7651809D01*
X55395761Y-7556571D01*
X55348142Y-7508952D01*
X55252904Y-7461333D01*
X55014809Y-7461333D01*
X54919571Y-7508952D01*
X54871952Y-7556571D01*
X54824333Y-7651809D01*
X54824333Y-7842285D01*
X54871952Y-7937523D01*
X54919571Y-7985142D01*
X55014809Y-8032761D01*
X54784761Y-26733333D02*
X54832380Y-26590476D01*
X54832380Y-26352380D01*
X54784761Y-26257142D01*
X54737142Y-26209523D01*
X54641904Y-26161904D01*
X54546666Y-26161904D01*
X54451428Y-26209523D01*
X54403809Y-26257142D01*
X54356190Y-26352380D01*
X54308571Y-26542857D01*
X54260952Y-26638095D01*
X54213333Y-26685714D01*
X54118095Y-26733333D01*
X54022857Y-26733333D01*
X53927619Y-26685714D01*
X53880000Y-26638095D01*
X53832380Y-26542857D01*
X53832380Y-26304761D01*
X53880000Y-26161904D01*
X53832380Y-25828571D02*
X54832380Y-25590476D01*
X54118095Y-25400000D01*
X54832380Y-25209523D01*
X53832380Y-24971428D01*
X54832380Y-24066666D02*
X54832380Y-24638095D01*
X54832380Y-24352380D02*
X53832380Y-24352380D01*
X53975238Y-24447619D01*
X54070476Y-24542857D01*
X54118095Y-24638095D01*
M02*
