G04 #@! TF.GenerationSoftware,KiCad,Pcbnew,5.1.2-f72e74a~84~ubuntu18.04.1*
G04 #@! TF.CreationDate,2020-03-17T17:37:26-04:00*
G04 #@! TF.ProjectId,knuth-gateway,6b6e7574-682d-4676-9174-657761792e6b,rev?*
G04 #@! TF.SameCoordinates,Original*
G04 #@! TF.FileFunction,Copper,L2,Bot*
G04 #@! TF.FilePolarity,Positive*
%FSLAX46Y46*%
G04 Gerber Fmt 4.6, Leading zero omitted, Abs format (unit mm)*
G04 Created by KiCad (PCBNEW 5.1.2-f72e74a~84~ubuntu18.04.1) date 2020-03-17 17:37:26*
%MOMM*%
%LPD*%
G04 APERTURE LIST*
%ADD10O,1.600000X1.600000*%
%ADD11C,1.600000*%
%ADD12O,1.700000X1.700000*%
%ADD13R,1.700000X1.700000*%
%ADD14R,2.400000X2.400000*%
%ADD15C,2.400000*%
%ADD16C,1.800000*%
%ADD17R,1.800000X1.800000*%
%ADD18C,1.778000*%
%ADD19C,1.700000*%
%ADD20C,1.905000*%
G04 APERTURE END LIST*
D10*
X49530000Y-54610000D03*
D11*
X49530000Y-57150000D03*
D12*
X21831300Y-48336200D03*
X21831300Y-50876200D03*
D13*
X21831300Y-53416200D03*
X57099200Y-52844700D03*
D12*
X59639200Y-52844700D03*
X62179200Y-52844700D03*
D14*
X59131200Y-41643300D03*
D15*
X59131200Y-38143300D03*
D10*
X44450000Y-43180000D03*
D11*
X44450000Y-40640000D03*
D10*
X39052500Y-38989000D03*
D11*
X39052500Y-36449000D03*
D10*
X21590000Y-12700000D03*
D11*
X24130000Y-12700000D03*
D10*
X21590000Y-16510000D03*
D11*
X24130000Y-16510000D03*
D10*
X21590000Y-21590000D03*
D11*
X24130000Y-21590000D03*
D10*
X21590000Y-25400000D03*
D11*
X24130000Y-25400000D03*
D10*
X21590000Y-34290000D03*
D11*
X24130000Y-34290000D03*
D10*
X21590000Y-30480000D03*
D11*
X24130000Y-30480000D03*
D13*
X49530000Y-50800000D03*
D12*
X49530000Y-48260000D03*
X49530000Y-45720000D03*
X49530000Y-43180000D03*
X49530000Y-40640000D03*
X49530000Y-38100000D03*
X49530000Y-35560000D03*
X49530000Y-33020000D03*
X49530000Y-30480000D03*
X49530000Y-27940000D03*
X49530000Y-25400000D03*
X49530000Y-22860000D03*
X49530000Y-20320000D03*
X49530000Y-17780000D03*
X49530000Y-15240000D03*
X49530000Y-12700000D03*
D13*
X29210000Y-40640000D03*
D12*
X29210000Y-38100000D03*
X29210000Y-35560000D03*
X29210000Y-33020000D03*
X29210000Y-30480000D03*
X29210000Y-27940000D03*
X29210000Y-25400000D03*
X29210000Y-22860000D03*
X29210000Y-20320000D03*
X29210000Y-17780000D03*
X29210000Y-15240000D03*
X29210000Y-12700000D03*
D16*
X7620000Y-54610000D03*
D17*
X5080000Y-54610000D03*
X5080000Y-45720000D03*
D16*
X7620000Y-45720000D03*
X7620000Y-36830000D03*
D17*
X5080000Y-36830000D03*
X5080000Y-27940000D03*
D16*
X7620000Y-27940000D03*
X7620000Y-19050000D03*
D17*
X5080000Y-19050000D03*
X5080000Y-10160000D03*
D16*
X7620000Y-10160000D03*
D12*
X53340000Y-16510000D03*
D13*
X53340000Y-13970000D03*
D15*
X59690000Y-8240000D03*
X59690000Y-11740000D03*
D14*
X59690000Y-15240000D03*
D13*
X57150000Y-25400000D03*
D12*
X59690000Y-25400000D03*
X62230000Y-25400000D03*
D18*
X62306200Y-19748500D03*
X57073800Y-19710400D03*
X34290000Y-50800000D03*
X29210000Y-50800000D03*
X40640000Y-22860000D03*
X40640000Y-17780000D03*
X43180000Y-22860000D03*
X43180000Y-17780000D03*
X52717700Y-39547800D03*
X53060600Y-47332900D03*
X53581300Y-31711900D03*
X66509900Y-31661100D03*
X26733500Y-6096000D03*
X26352500Y-19050000D03*
D19*
X61920000Y-11740000D02*
X59690000Y-11740000D01*
X63500000Y-13320000D02*
X61920000Y-11740000D01*
X49530000Y-43180000D02*
X44450000Y-43180000D01*
X44450000Y-43180000D02*
X44450000Y-46990000D01*
X44450000Y-46990000D02*
X40640000Y-50800000D01*
X40640000Y-50800000D02*
X34290000Y-50800000D01*
X22860000Y-50800000D02*
X29210000Y-50800000D01*
X57800000Y-6350000D02*
X59690000Y-8240000D01*
X44450000Y-6350000D02*
X57800000Y-6350000D01*
X44450000Y-6350000D02*
X43180000Y-7620000D01*
X43180000Y-7620000D02*
X40640000Y-10160000D01*
X40640000Y-10160000D02*
X40640000Y-17780000D01*
X38100000Y-25400000D02*
X40640000Y-22860000D01*
X29210000Y-25400000D02*
X38100000Y-25400000D01*
D20*
X49606200Y-28016200D02*
X49530000Y-27940000D01*
D19*
X58864500Y-29146500D02*
X55372000Y-29146500D01*
X55372000Y-29146500D02*
X53340000Y-27114500D01*
X50732081Y-43180000D02*
X52014781Y-44462700D01*
X49530000Y-43180000D02*
X50732081Y-43180000D01*
X52014781Y-44462700D02*
X52387022Y-44462700D01*
X52014781Y-44462700D02*
X54165500Y-44462700D01*
X54165500Y-44462700D02*
X56273700Y-46570900D01*
X56273700Y-46570900D02*
X58953400Y-46570900D01*
X62179200Y-49796700D02*
X62179200Y-52844700D01*
X58953400Y-46570900D02*
X62179200Y-49796700D01*
X54165500Y-44462700D02*
X54165500Y-42240200D01*
X57434144Y-38143300D02*
X55587900Y-39989544D01*
X59131200Y-38143300D02*
X57434144Y-38143300D01*
X59131200Y-29413200D02*
X59131200Y-38143300D01*
X58864500Y-29146500D02*
X59131200Y-29413200D01*
X55587900Y-40817800D02*
X54165500Y-42240200D01*
X55587900Y-39989544D02*
X55587900Y-40817800D01*
X63195199Y-18859501D02*
X62306200Y-19748500D01*
X63500000Y-18554700D02*
X63195199Y-18859501D01*
X63500000Y-13320000D02*
X63500000Y-18554700D01*
X55765765Y-19761200D02*
X53340000Y-19761200D01*
X55816565Y-19710400D02*
X55765765Y-19761200D01*
X57073800Y-19710400D02*
X55816565Y-19710400D01*
X53340000Y-27114500D02*
X53340000Y-19761200D01*
X53340000Y-19761200D02*
X53340000Y-16510000D01*
X29210000Y-30480000D02*
X25400000Y-30480000D01*
X25400000Y-30480000D02*
X24130000Y-30480000D01*
X39370000Y-20320000D02*
X29210000Y-20320000D01*
X45720000Y-13970000D02*
X45720000Y-19050000D01*
X44450000Y-20320000D02*
X39370000Y-20320000D01*
X49530000Y-12700000D02*
X46990000Y-12700000D01*
X45720000Y-19050000D02*
X44450000Y-20320000D01*
X46990000Y-12700000D02*
X45720000Y-13970000D01*
X63500000Y-40424100D02*
X62280800Y-41643300D01*
X63500000Y-30480000D02*
X63500000Y-40424100D01*
X62230000Y-25400000D02*
X62230000Y-29210000D01*
X62280800Y-41643300D02*
X59131200Y-41643300D01*
X62230000Y-29210000D02*
X63500000Y-30480000D01*
X29210000Y-33020000D02*
X26670000Y-33020000D01*
X25400000Y-34290000D02*
X24130000Y-34290000D01*
X26670000Y-33020000D02*
X25400000Y-34290000D01*
X26670000Y-27940000D02*
X24130000Y-25400000D01*
X29210000Y-27940000D02*
X26670000Y-27940000D01*
X25400000Y-22860000D02*
X24130000Y-21590000D01*
X29210000Y-22860000D02*
X25400000Y-22860000D01*
X24130000Y-11430000D02*
X24130000Y-12700000D01*
X26670000Y-8890000D02*
X24130000Y-11430000D01*
X26670000Y-8890000D02*
X31750000Y-8890000D01*
X30412081Y-17780000D02*
X31750000Y-16442081D01*
X29210000Y-17780000D02*
X30412081Y-17780000D01*
X31750000Y-16442081D02*
X31750000Y-8890000D01*
X31750000Y-35560000D02*
X29210000Y-35560000D01*
X59690000Y-15240000D02*
X59690000Y-25400000D01*
X53340000Y-11420000D02*
X53330000Y-11420000D01*
X53330000Y-11420000D02*
X52709990Y-10799990D01*
X52709990Y-10799990D02*
X50800000Y-8890000D01*
X50800000Y-8890000D02*
X45720000Y-8890000D01*
X45720000Y-8890000D02*
X43180000Y-11430000D01*
X43180000Y-11430000D02*
X43180000Y-17780000D01*
X55880000Y-15240000D02*
X54610000Y-13970000D01*
X59690000Y-15240000D02*
X55880000Y-15240000D01*
X54610000Y-13970000D02*
X53340000Y-13970000D01*
X53340000Y-13970000D02*
X53340000Y-11420000D01*
X37032130Y-35560000D02*
X31750000Y-35560000D01*
X37921130Y-36449000D02*
X37032130Y-35560000D01*
X39052500Y-36449000D02*
X37921130Y-36449000D01*
X39852499Y-35649001D02*
X39852499Y-35585501D01*
X39052500Y-36449000D02*
X39852499Y-35649001D01*
X43180000Y-32258000D02*
X43180000Y-22860000D01*
X39852499Y-35585501D02*
X43180000Y-32258000D01*
X48398630Y-57150000D02*
X45720000Y-54471370D01*
X49530000Y-57150000D02*
X48398630Y-57150000D01*
X45720000Y-54471370D02*
X45720000Y-49530000D01*
X46990000Y-48260000D02*
X49530000Y-48260000D01*
X45720000Y-49530000D02*
X46990000Y-48260000D01*
X49530000Y-40640000D02*
X44450000Y-40640000D01*
X40703500Y-40640000D02*
X39052500Y-38989000D01*
X44450000Y-40640000D02*
X40703500Y-40640000D01*
X49530000Y-38100000D02*
X51269900Y-38100000D01*
X51269900Y-38100000D02*
X52717700Y-39547800D01*
X55156100Y-49428400D02*
X53060600Y-47332900D01*
X59639200Y-52844700D02*
X59639200Y-51320700D01*
X57746900Y-49428400D02*
X55156100Y-49428400D01*
X59639200Y-51320700D02*
X57746900Y-49428400D01*
X66484500Y-30988000D02*
X66484500Y-8064500D01*
X66484500Y-8064500D02*
X62484000Y-4064000D01*
X26352500Y-18732500D02*
X24130000Y-16510000D01*
X26352500Y-19050000D02*
X26352500Y-18732500D01*
X28321000Y-4508500D02*
X26733500Y-6096000D01*
X62484000Y-4064000D02*
X62484000Y-3949700D01*
X62484000Y-3949700D02*
X62166500Y-3632200D01*
X29197300Y-3632200D02*
X28321000Y-4508500D01*
X62166500Y-3632200D02*
X29197300Y-3632200D01*
X53581300Y-33350200D02*
X53581300Y-31711900D01*
X49530000Y-35560000D02*
X51371500Y-35560000D01*
X51371500Y-35560000D02*
X53581300Y-33350200D01*
X13970000Y-54610000D02*
X16510000Y-57150000D01*
X7620000Y-54610000D02*
X13970000Y-54610000D01*
X29210000Y-57150000D02*
X31750000Y-54610000D01*
X16510000Y-57150000D02*
X29210000Y-57150000D01*
X21590000Y-39370000D02*
X21590000Y-34290000D01*
X31750000Y-54610000D02*
X31750000Y-49530000D01*
X31750000Y-49530000D02*
X21590000Y-39370000D01*
X21590000Y-30480000D02*
X19050000Y-30480000D01*
X7620000Y-45720000D02*
X13970000Y-39370000D01*
X13970000Y-35560000D02*
X19050000Y-30480000D01*
X13970000Y-39370000D02*
X13970000Y-35560000D01*
X21590000Y-25400000D02*
X19050000Y-25400000D01*
X19050000Y-25400000D02*
X7620000Y-36830000D01*
X13970000Y-21590000D02*
X7620000Y-27940000D01*
X21590000Y-21590000D02*
X13970000Y-21590000D01*
X10160000Y-16510000D02*
X7620000Y-19050000D01*
X21590000Y-16510000D02*
X10160000Y-16510000D01*
X10160000Y-12700000D02*
X7620000Y-10160000D01*
X21590000Y-12700000D02*
X10160000Y-12700000D01*
X5080000Y-54610000D02*
X5080000Y-49530000D01*
X5080000Y-49530000D02*
X5080000Y-45720000D01*
X5080000Y-45720000D02*
X5080000Y-36830000D01*
X5080000Y-27940000D02*
X5080000Y-36830000D01*
X5080000Y-27940000D02*
X5080000Y-19050000D01*
X5080000Y-19050000D02*
X5080000Y-10160000D01*
X5080000Y-49530000D02*
X17780000Y-49530000D01*
X21831300Y-48336200D02*
X20629219Y-48336200D01*
X20629219Y-48336200D02*
X20553019Y-48260000D01*
X20553019Y-48260000D02*
X19050000Y-48260000D01*
X17780000Y-49530000D02*
X19050000Y-48260000D01*
X57099200Y-53403500D02*
X57099200Y-52844700D01*
X49530000Y-54610000D02*
X55892700Y-54610000D01*
X55892700Y-54610000D02*
X57099200Y-53403500D01*
M02*
