M48
; DRILL file {KiCad 5.1.2-f72e74a~84~ubuntu18.04.1} date Tue 17 Mar 2020 01:19:23 PM EDT
; FORMAT={-:-/ absolute / inch / decimal}
; #@! TF.CreationDate,2020-03-17T13:19:23-04:00
; #@! TF.GenerationSoftware,Kicad,Pcbnew,5.1.2-f72e74a~84~ubuntu18.04.1
FMAT,2
INCH
T1C0.0315
T2C0.0350
T3C0.0354
T4C0.0394
T5C0.0472
T6C0.1063
%
G90
G05
T1
X0.85Y-1.0
X0.85Y-0.85
X0.85Y-0.5
X1.5375Y-1.435
X0.85Y-1.35
X0.95Y-1.35
X0.85Y-1.2
X0.95Y-1.2
X1.75Y-1.6
X1.75Y-1.7
X0.85Y-0.65
X0.95Y-0.65
X1.95Y-2.15
X1.95Y-2.25
X0.95Y-1.0
X0.95Y-0.85
X0.95Y-0.5
X1.5375Y-1.535
T2
X1.0375Y-0.75
X1.0525Y-0.24
X1.15Y-2.0
X1.35Y-2.0
X1.6Y-0.7
X1.6Y-0.9
X1.7Y-0.7
X1.7Y-0.9
X2.0755Y-1.557
X2.089Y-1.8635
X2.1095Y-1.2485
X2.247Y-0.776
X2.453Y-0.7775
X2.6185Y-1.2465
T3
X0.2Y-1.8
X0.3Y-1.8
X0.2Y-0.75
X0.3Y-0.75
X0.2Y-1.1
X0.3Y-1.1
X0.2Y-2.15
X0.3Y-2.15
X0.2Y-0.4
X0.3Y-0.4
X0.2Y-1.45
X0.3Y-1.45
T4
X1.95Y-0.5
X1.95Y-0.6
X1.95Y-0.7
X1.95Y-0.8
X1.95Y-0.9
X1.95Y-1.0
X1.95Y-1.1
X1.95Y-1.2
X1.95Y-1.3
X1.95Y-1.4
X1.95Y-1.5
X1.95Y-1.6
X1.95Y-1.7
X1.95Y-1.8
X1.95Y-1.9
X1.95Y-2.0
X0.8595Y-1.903
X0.8595Y-2.003
X0.8595Y-2.103
X1.15Y-0.5
X1.15Y-0.6
X1.15Y-0.7
X1.15Y-0.8
X1.15Y-0.9
X1.15Y-1.0
X1.15Y-1.1
X1.15Y-1.2
X1.15Y-1.3
X1.15Y-1.4
X1.15Y-1.5
X1.15Y-1.6
X2.248Y-2.0805
X2.348Y-2.0805
X2.448Y-2.0805
X2.1Y-0.55
X2.1Y-0.65
X2.25Y-1.0
X2.35Y-1.0
X2.45Y-1.0
T5
X2.328Y-1.5017
X2.328Y-1.6395
X2.35Y-0.3244
X2.35Y-0.4622
X2.35Y-0.6
T6
X1.4106Y-1.7433
X1.4106Y-0.5622
T0
M30
