M48
; DRILL file {KiCad 5.1.5-52549c5~84~ubuntu18.04.1} date Sun 01 Mar 2020 01:56:28 PM EST
; FORMAT={-:-/ absolute / metric / decimal}
; #@! TF.CreationDate,2020-03-01T13:56:28-05:00
; #@! TF.GenerationSoftware,Kicad,Pcbnew,5.1.5-52549c5~84~ubuntu18.04.1
; #@! TF.FileFunction,Plated,1,2,PTH
FMAT,2
METRIC
T1C0.800
T2C0.889
T3C0.900
T4C1.000
T5C1.200
%
G90
G05
T1
X21.59Y-25.4
X24.13Y-25.4
X49.53Y-54.61
X49.53Y-57.15
X21.59Y-34.29
X24.13Y-34.29
X44.45Y-40.64
X44.45Y-43.18
X44.45Y-34.29
X44.45Y-36.83
X21.59Y-30.48
X24.13Y-30.48
X21.59Y-16.51
X24.13Y-16.51
X21.59Y-12.7
X24.13Y-12.7
X21.59Y-21.59
X24.13Y-21.59
T2
X29.21Y-50.8
X34.29Y-50.8
X40.64Y-17.78
X40.64Y-22.86
X43.18Y-17.78
X43.18Y-22.86
X53.34Y-40.64
X57.15Y-20.32
X58.42Y-44.45
X62.23Y-20.32
T3
X5.08Y-27.94
X7.62Y-27.94
X5.08Y-36.83
X7.62Y-36.83
X5.08Y-19.05
X7.62Y-19.05
X5.08Y-45.72
X7.62Y-45.72
X5.08Y-10.16
X7.62Y-10.16
X5.08Y-54.61
X7.62Y-54.61
T4
X53.34Y-13.97
X53.34Y-16.51
X22.86Y-48.26
X22.86Y-50.8
X22.86Y-53.34
X49.53Y-12.7
X49.53Y-15.24
X49.53Y-17.78
X49.53Y-20.32
X49.53Y-22.86
X49.53Y-25.4
X49.53Y-27.94
X49.53Y-30.48
X49.53Y-33.02
X49.53Y-35.56
X49.53Y-38.1
X49.53Y-40.64
X49.53Y-43.18
X49.53Y-45.72
X49.53Y-48.26
X49.53Y-50.8
X57.15Y-25.4
X59.69Y-25.4
X62.23Y-25.4
X57.15Y-48.26
X59.69Y-48.26
X62.23Y-48.26
X29.21Y-12.7
X29.21Y-15.24
X29.21Y-17.78
X29.21Y-20.32
X29.21Y-22.86
X29.21Y-25.4
X29.21Y-27.94
X29.21Y-30.48
X29.21Y-33.02
X29.21Y-35.56
X29.21Y-38.1
X29.21Y-40.64
T5
X59.69Y-34.6
X59.69Y-38.1
X59.69Y-8.24
X59.69Y-11.74
X59.69Y-15.24
T0
M30
