G04 #@! TF.GenerationSoftware,KiCad,Pcbnew,5.1.5-52549c5~84~ubuntu18.04.1*
G04 #@! TF.CreationDate,2020-03-01T13:56:00-05:00*
G04 #@! TF.ProjectId,knuth-gateway,6b6e7574-682d-4676-9174-657761792e6b,rev?*
G04 #@! TF.SameCoordinates,Original*
G04 #@! TF.FileFunction,Soldermask,Top*
G04 #@! TF.FilePolarity,Negative*
%FSLAX46Y46*%
G04 Gerber Fmt 4.6, Leading zero omitted, Abs format (unit mm)*
G04 Created by KiCad (PCBNEW 5.1.5-52549c5~84~ubuntu18.04.1) date 2020-03-01 13:56:00*
%MOMM*%
%LPD*%
G04 APERTURE LIST*
%ADD10C,0.100000*%
G04 APERTURE END LIST*
D10*
G36*
X49778228Y-56331703D02*
G01*
X49933100Y-56395853D01*
X50072481Y-56488985D01*
X50191015Y-56607519D01*
X50284147Y-56746900D01*
X50348297Y-56901772D01*
X50381000Y-57066184D01*
X50381000Y-57233816D01*
X50348297Y-57398228D01*
X50284147Y-57553100D01*
X50191015Y-57692481D01*
X50072481Y-57811015D01*
X49933100Y-57904147D01*
X49778228Y-57968297D01*
X49613816Y-58001000D01*
X49446184Y-58001000D01*
X49281772Y-57968297D01*
X49126900Y-57904147D01*
X48987519Y-57811015D01*
X48868985Y-57692481D01*
X48775853Y-57553100D01*
X48711703Y-57398228D01*
X48679000Y-57233816D01*
X48679000Y-57066184D01*
X48711703Y-56901772D01*
X48775853Y-56746900D01*
X48868985Y-56607519D01*
X48987519Y-56488985D01*
X49126900Y-56395853D01*
X49281772Y-56331703D01*
X49446184Y-56299000D01*
X49613816Y-56299000D01*
X49778228Y-56331703D01*
G37*
G36*
X7897395Y-53695546D02*
G01*
X8070466Y-53767234D01*
X8070467Y-53767235D01*
X8226227Y-53871310D01*
X8358690Y-54003773D01*
X8401284Y-54067520D01*
X8462766Y-54159534D01*
X8534454Y-54332605D01*
X8571000Y-54516333D01*
X8571000Y-54703667D01*
X8534454Y-54887395D01*
X8462766Y-55060466D01*
X8462765Y-55060467D01*
X8358690Y-55216227D01*
X8226227Y-55348690D01*
X8203092Y-55364148D01*
X8070466Y-55452766D01*
X7897395Y-55524454D01*
X7713667Y-55561000D01*
X7526333Y-55561000D01*
X7342605Y-55524454D01*
X7169534Y-55452766D01*
X7036908Y-55364148D01*
X7013773Y-55348690D01*
X6881310Y-55216227D01*
X6777235Y-55060467D01*
X6777234Y-55060466D01*
X6705546Y-54887395D01*
X6669000Y-54703667D01*
X6669000Y-54516333D01*
X6705546Y-54332605D01*
X6777234Y-54159534D01*
X6838716Y-54067520D01*
X6881310Y-54003773D01*
X7013773Y-53871310D01*
X7169533Y-53767235D01*
X7169534Y-53767234D01*
X7342605Y-53695546D01*
X7526333Y-53659000D01*
X7713667Y-53659000D01*
X7897395Y-53695546D01*
G37*
G36*
X6031000Y-55561000D02*
G01*
X4129000Y-55561000D01*
X4129000Y-53659000D01*
X6031000Y-53659000D01*
X6031000Y-55561000D01*
G37*
G36*
X49778228Y-53791703D02*
G01*
X49933100Y-53855853D01*
X50072481Y-53948985D01*
X50191015Y-54067519D01*
X50284147Y-54206900D01*
X50348297Y-54361772D01*
X50381000Y-54526184D01*
X50381000Y-54693816D01*
X50348297Y-54858228D01*
X50284147Y-55013100D01*
X50191015Y-55152481D01*
X50072481Y-55271015D01*
X49933100Y-55364147D01*
X49778228Y-55428297D01*
X49613816Y-55461000D01*
X49446184Y-55461000D01*
X49281772Y-55428297D01*
X49126900Y-55364147D01*
X48987519Y-55271015D01*
X48868985Y-55152481D01*
X48775853Y-55013100D01*
X48711703Y-54858228D01*
X48679000Y-54693816D01*
X48679000Y-54526184D01*
X48711703Y-54361772D01*
X48775853Y-54206900D01*
X48868985Y-54067519D01*
X48987519Y-53948985D01*
X49126900Y-53855853D01*
X49281772Y-53791703D01*
X49446184Y-53759000D01*
X49613816Y-53759000D01*
X49778228Y-53791703D01*
G37*
G36*
X23761000Y-54241000D02*
G01*
X21959000Y-54241000D01*
X21959000Y-52439000D01*
X23761000Y-52439000D01*
X23761000Y-54241000D01*
G37*
G36*
X50431000Y-51701000D02*
G01*
X48629000Y-51701000D01*
X48629000Y-49899000D01*
X50431000Y-49899000D01*
X50431000Y-51701000D01*
G37*
G36*
X22973512Y-49903927D02*
G01*
X23122812Y-49933624D01*
X23286784Y-50001544D01*
X23434354Y-50100147D01*
X23559853Y-50225646D01*
X23658456Y-50373216D01*
X23726376Y-50537188D01*
X23761000Y-50711259D01*
X23761000Y-50888741D01*
X23726376Y-51062812D01*
X23658456Y-51226784D01*
X23559853Y-51374354D01*
X23434354Y-51499853D01*
X23286784Y-51598456D01*
X23122812Y-51666376D01*
X22973512Y-51696073D01*
X22948742Y-51701000D01*
X22771258Y-51701000D01*
X22746488Y-51696073D01*
X22597188Y-51666376D01*
X22433216Y-51598456D01*
X22285646Y-51499853D01*
X22160147Y-51374354D01*
X22061544Y-51226784D01*
X21993624Y-51062812D01*
X21959000Y-50888741D01*
X21959000Y-50711259D01*
X21993624Y-50537188D01*
X22061544Y-50373216D01*
X22160147Y-50225646D01*
X22285646Y-50100147D01*
X22433216Y-50001544D01*
X22597188Y-49933624D01*
X22746488Y-49903927D01*
X22771258Y-49899000D01*
X22948742Y-49899000D01*
X22973512Y-49903927D01*
G37*
G36*
X59803512Y-47363927D02*
G01*
X59952812Y-47393624D01*
X60116784Y-47461544D01*
X60264354Y-47560147D01*
X60389853Y-47685646D01*
X60488456Y-47833216D01*
X60556376Y-47997188D01*
X60591000Y-48171259D01*
X60591000Y-48348741D01*
X60556376Y-48522812D01*
X60488456Y-48686784D01*
X60389853Y-48834354D01*
X60264354Y-48959853D01*
X60116784Y-49058456D01*
X59952812Y-49126376D01*
X59803512Y-49156073D01*
X59778742Y-49161000D01*
X59601258Y-49161000D01*
X59576488Y-49156073D01*
X59427188Y-49126376D01*
X59263216Y-49058456D01*
X59115646Y-48959853D01*
X58990147Y-48834354D01*
X58891544Y-48686784D01*
X58823624Y-48522812D01*
X58789000Y-48348741D01*
X58789000Y-48171259D01*
X58823624Y-47997188D01*
X58891544Y-47833216D01*
X58990147Y-47685646D01*
X59115646Y-47560147D01*
X59263216Y-47461544D01*
X59427188Y-47393624D01*
X59576488Y-47363927D01*
X59601258Y-47359000D01*
X59778742Y-47359000D01*
X59803512Y-47363927D01*
G37*
G36*
X62343512Y-47363927D02*
G01*
X62492812Y-47393624D01*
X62656784Y-47461544D01*
X62804354Y-47560147D01*
X62929853Y-47685646D01*
X63028456Y-47833216D01*
X63096376Y-47997188D01*
X63131000Y-48171259D01*
X63131000Y-48348741D01*
X63096376Y-48522812D01*
X63028456Y-48686784D01*
X62929853Y-48834354D01*
X62804354Y-48959853D01*
X62656784Y-49058456D01*
X62492812Y-49126376D01*
X62343512Y-49156073D01*
X62318742Y-49161000D01*
X62141258Y-49161000D01*
X62116488Y-49156073D01*
X61967188Y-49126376D01*
X61803216Y-49058456D01*
X61655646Y-48959853D01*
X61530147Y-48834354D01*
X61431544Y-48686784D01*
X61363624Y-48522812D01*
X61329000Y-48348741D01*
X61329000Y-48171259D01*
X61363624Y-47997188D01*
X61431544Y-47833216D01*
X61530147Y-47685646D01*
X61655646Y-47560147D01*
X61803216Y-47461544D01*
X61967188Y-47393624D01*
X62116488Y-47363927D01*
X62141258Y-47359000D01*
X62318742Y-47359000D01*
X62343512Y-47363927D01*
G37*
G36*
X49643512Y-47363927D02*
G01*
X49792812Y-47393624D01*
X49956784Y-47461544D01*
X50104354Y-47560147D01*
X50229853Y-47685646D01*
X50328456Y-47833216D01*
X50396376Y-47997188D01*
X50431000Y-48171259D01*
X50431000Y-48348741D01*
X50396376Y-48522812D01*
X50328456Y-48686784D01*
X50229853Y-48834354D01*
X50104354Y-48959853D01*
X49956784Y-49058456D01*
X49792812Y-49126376D01*
X49643512Y-49156073D01*
X49618742Y-49161000D01*
X49441258Y-49161000D01*
X49416488Y-49156073D01*
X49267188Y-49126376D01*
X49103216Y-49058456D01*
X48955646Y-48959853D01*
X48830147Y-48834354D01*
X48731544Y-48686784D01*
X48663624Y-48522812D01*
X48629000Y-48348741D01*
X48629000Y-48171259D01*
X48663624Y-47997188D01*
X48731544Y-47833216D01*
X48830147Y-47685646D01*
X48955646Y-47560147D01*
X49103216Y-47461544D01*
X49267188Y-47393624D01*
X49416488Y-47363927D01*
X49441258Y-47359000D01*
X49618742Y-47359000D01*
X49643512Y-47363927D01*
G37*
G36*
X22973512Y-47363927D02*
G01*
X23122812Y-47393624D01*
X23286784Y-47461544D01*
X23434354Y-47560147D01*
X23559853Y-47685646D01*
X23658456Y-47833216D01*
X23726376Y-47997188D01*
X23761000Y-48171259D01*
X23761000Y-48348741D01*
X23726376Y-48522812D01*
X23658456Y-48686784D01*
X23559853Y-48834354D01*
X23434354Y-48959853D01*
X23286784Y-49058456D01*
X23122812Y-49126376D01*
X22973512Y-49156073D01*
X22948742Y-49161000D01*
X22771258Y-49161000D01*
X22746488Y-49156073D01*
X22597188Y-49126376D01*
X22433216Y-49058456D01*
X22285646Y-48959853D01*
X22160147Y-48834354D01*
X22061544Y-48686784D01*
X21993624Y-48522812D01*
X21959000Y-48348741D01*
X21959000Y-48171259D01*
X21993624Y-47997188D01*
X22061544Y-47833216D01*
X22160147Y-47685646D01*
X22285646Y-47560147D01*
X22433216Y-47461544D01*
X22597188Y-47393624D01*
X22746488Y-47363927D01*
X22771258Y-47359000D01*
X22948742Y-47359000D01*
X22973512Y-47363927D01*
G37*
G36*
X58051000Y-49161000D02*
G01*
X56249000Y-49161000D01*
X56249000Y-47359000D01*
X58051000Y-47359000D01*
X58051000Y-49161000D01*
G37*
G36*
X6031000Y-46671000D02*
G01*
X4129000Y-46671000D01*
X4129000Y-44769000D01*
X6031000Y-44769000D01*
X6031000Y-46671000D01*
G37*
G36*
X7897395Y-44805546D02*
G01*
X8070466Y-44877234D01*
X8070467Y-44877235D01*
X8226227Y-44981310D01*
X8358690Y-45113773D01*
X8358691Y-45113775D01*
X8462766Y-45269534D01*
X8534454Y-45442605D01*
X8571000Y-45626333D01*
X8571000Y-45813667D01*
X8534454Y-45997395D01*
X8462766Y-46170466D01*
X8462765Y-46170467D01*
X8358690Y-46326227D01*
X8226227Y-46458690D01*
X8147818Y-46511081D01*
X8070466Y-46562766D01*
X7897395Y-46634454D01*
X7713667Y-46671000D01*
X7526333Y-46671000D01*
X7342605Y-46634454D01*
X7169534Y-46562766D01*
X7092182Y-46511081D01*
X7013773Y-46458690D01*
X6881310Y-46326227D01*
X6777235Y-46170467D01*
X6777234Y-46170466D01*
X6705546Y-45997395D01*
X6669000Y-45813667D01*
X6669000Y-45626333D01*
X6705546Y-45442605D01*
X6777234Y-45269534D01*
X6881309Y-45113775D01*
X6881310Y-45113773D01*
X7013773Y-44981310D01*
X7169533Y-44877235D01*
X7169534Y-44877234D01*
X7342605Y-44805546D01*
X7526333Y-44769000D01*
X7713667Y-44769000D01*
X7897395Y-44805546D01*
G37*
G36*
X49643512Y-44823927D02*
G01*
X49792812Y-44853624D01*
X49956784Y-44921544D01*
X50104354Y-45020147D01*
X50229853Y-45145646D01*
X50328456Y-45293216D01*
X50396376Y-45457188D01*
X50431000Y-45631259D01*
X50431000Y-45808741D01*
X50396376Y-45982812D01*
X50328456Y-46146784D01*
X50229853Y-46294354D01*
X50104354Y-46419853D01*
X49956784Y-46518456D01*
X49792812Y-46586376D01*
X49643512Y-46616073D01*
X49618742Y-46621000D01*
X49441258Y-46621000D01*
X49416488Y-46616073D01*
X49267188Y-46586376D01*
X49103216Y-46518456D01*
X48955646Y-46419853D01*
X48830147Y-46294354D01*
X48731544Y-46146784D01*
X48663624Y-45982812D01*
X48629000Y-45808741D01*
X48629000Y-45631259D01*
X48663624Y-45457188D01*
X48731544Y-45293216D01*
X48830147Y-45145646D01*
X48955646Y-45020147D01*
X49103216Y-44921544D01*
X49267188Y-44853624D01*
X49416488Y-44823927D01*
X49441258Y-44819000D01*
X49618742Y-44819000D01*
X49643512Y-44823927D01*
G37*
G36*
X36148433Y-42914893D02*
G01*
X36238657Y-42932839D01*
X36344267Y-42976585D01*
X36493621Y-43038449D01*
X36493622Y-43038450D01*
X36723086Y-43191772D01*
X36918228Y-43386914D01*
X37020675Y-43540237D01*
X37071551Y-43616379D01*
X37115499Y-43722480D01*
X37177161Y-43871343D01*
X37231000Y-44142014D01*
X37231000Y-44417986D01*
X37177161Y-44688657D01*
X37133415Y-44794267D01*
X37071551Y-44943621D01*
X37071550Y-44943622D01*
X36918228Y-45173086D01*
X36723086Y-45368228D01*
X36611772Y-45442605D01*
X36493621Y-45521551D01*
X36344267Y-45583415D01*
X36238657Y-45627161D01*
X36148433Y-45645107D01*
X35967988Y-45681000D01*
X35692012Y-45681000D01*
X35511567Y-45645107D01*
X35421343Y-45627161D01*
X35315733Y-45583415D01*
X35166379Y-45521551D01*
X35048228Y-45442605D01*
X34936914Y-45368228D01*
X34741772Y-45173086D01*
X34588450Y-44943622D01*
X34588449Y-44943621D01*
X34526585Y-44794267D01*
X34482839Y-44688657D01*
X34429000Y-44417986D01*
X34429000Y-44142014D01*
X34482839Y-43871343D01*
X34544501Y-43722480D01*
X34588449Y-43616379D01*
X34639325Y-43540237D01*
X34741772Y-43386914D01*
X34936914Y-43191772D01*
X35166378Y-43038450D01*
X35166379Y-43038449D01*
X35315733Y-42976585D01*
X35421343Y-42932839D01*
X35511567Y-42914893D01*
X35692012Y-42879000D01*
X35967988Y-42879000D01*
X36148433Y-42914893D01*
G37*
G36*
X49643512Y-42283927D02*
G01*
X49792812Y-42313624D01*
X49956784Y-42381544D01*
X50104354Y-42480147D01*
X50229853Y-42605646D01*
X50328456Y-42753216D01*
X50396376Y-42917188D01*
X50431000Y-43091259D01*
X50431000Y-43268741D01*
X50396376Y-43442812D01*
X50328456Y-43606784D01*
X50229853Y-43754354D01*
X50104354Y-43879853D01*
X49956784Y-43978456D01*
X49792812Y-44046376D01*
X49643512Y-44076073D01*
X49618742Y-44081000D01*
X49441258Y-44081000D01*
X49416488Y-44076073D01*
X49267188Y-44046376D01*
X49103216Y-43978456D01*
X48955646Y-43879853D01*
X48830147Y-43754354D01*
X48731544Y-43606784D01*
X48663624Y-43442812D01*
X48629000Y-43268741D01*
X48629000Y-43091259D01*
X48663624Y-42917188D01*
X48731544Y-42753216D01*
X48830147Y-42605646D01*
X48955646Y-42480147D01*
X49103216Y-42381544D01*
X49267188Y-42313624D01*
X49416488Y-42283927D01*
X49441258Y-42279000D01*
X49618742Y-42279000D01*
X49643512Y-42283927D01*
G37*
G36*
X44698228Y-42361703D02*
G01*
X44853100Y-42425853D01*
X44992481Y-42518985D01*
X45111015Y-42637519D01*
X45204147Y-42776900D01*
X45268297Y-42931772D01*
X45301000Y-43096184D01*
X45301000Y-43263816D01*
X45268297Y-43428228D01*
X45204147Y-43583100D01*
X45111015Y-43722481D01*
X44992481Y-43841015D01*
X44853100Y-43934147D01*
X44698228Y-43998297D01*
X44533816Y-44031000D01*
X44366184Y-44031000D01*
X44201772Y-43998297D01*
X44046900Y-43934147D01*
X43907519Y-43841015D01*
X43788985Y-43722481D01*
X43695853Y-43583100D01*
X43631703Y-43428228D01*
X43599000Y-43263816D01*
X43599000Y-43096184D01*
X43631703Y-42931772D01*
X43695853Y-42776900D01*
X43788985Y-42637519D01*
X43907519Y-42518985D01*
X44046900Y-42425853D01*
X44201772Y-42361703D01*
X44366184Y-42329000D01*
X44533816Y-42329000D01*
X44698228Y-42361703D01*
G37*
G36*
X49643512Y-39743927D02*
G01*
X49792812Y-39773624D01*
X49956784Y-39841544D01*
X50104354Y-39940147D01*
X50229853Y-40065646D01*
X50328456Y-40213216D01*
X50396376Y-40377188D01*
X50431000Y-40551259D01*
X50431000Y-40728741D01*
X50396376Y-40902812D01*
X50328456Y-41066784D01*
X50229853Y-41214354D01*
X50104354Y-41339853D01*
X49956784Y-41438456D01*
X49792812Y-41506376D01*
X49643512Y-41536073D01*
X49618742Y-41541000D01*
X49441258Y-41541000D01*
X49416488Y-41536073D01*
X49267188Y-41506376D01*
X49103216Y-41438456D01*
X48955646Y-41339853D01*
X48830147Y-41214354D01*
X48731544Y-41066784D01*
X48663624Y-40902812D01*
X48629000Y-40728741D01*
X48629000Y-40551259D01*
X48663624Y-40377188D01*
X48731544Y-40213216D01*
X48830147Y-40065646D01*
X48955646Y-39940147D01*
X49103216Y-39841544D01*
X49267188Y-39773624D01*
X49416488Y-39743927D01*
X49441258Y-39739000D01*
X49618742Y-39739000D01*
X49643512Y-39743927D01*
G37*
G36*
X30111000Y-41541000D02*
G01*
X28309000Y-41541000D01*
X28309000Y-39739000D01*
X30111000Y-39739000D01*
X30111000Y-41541000D01*
G37*
G36*
X44698228Y-39821703D02*
G01*
X44853100Y-39885853D01*
X44992481Y-39978985D01*
X45111015Y-40097519D01*
X45204147Y-40236900D01*
X45268297Y-40391772D01*
X45301000Y-40556184D01*
X45301000Y-40723816D01*
X45268297Y-40888228D01*
X45204147Y-41043100D01*
X45111015Y-41182481D01*
X44992481Y-41301015D01*
X44853100Y-41394147D01*
X44698228Y-41458297D01*
X44533816Y-41491000D01*
X44366184Y-41491000D01*
X44201772Y-41458297D01*
X44046900Y-41394147D01*
X43907519Y-41301015D01*
X43788985Y-41182481D01*
X43695853Y-41043100D01*
X43631703Y-40888228D01*
X43599000Y-40723816D01*
X43599000Y-40556184D01*
X43631703Y-40391772D01*
X43695853Y-40236900D01*
X43788985Y-40097519D01*
X43907519Y-39978985D01*
X44046900Y-39885853D01*
X44201772Y-39821703D01*
X44366184Y-39789000D01*
X44533816Y-39789000D01*
X44698228Y-39821703D01*
G37*
G36*
X60941000Y-39351000D02*
G01*
X58439000Y-39351000D01*
X58439000Y-36849000D01*
X60941000Y-36849000D01*
X60941000Y-39351000D01*
G37*
G36*
X49643512Y-37203927D02*
G01*
X49792812Y-37233624D01*
X49956784Y-37301544D01*
X50104354Y-37400147D01*
X50229853Y-37525646D01*
X50328456Y-37673216D01*
X50396376Y-37837188D01*
X50431000Y-38011259D01*
X50431000Y-38188741D01*
X50396376Y-38362812D01*
X50328456Y-38526784D01*
X50229853Y-38674354D01*
X50104354Y-38799853D01*
X49956784Y-38898456D01*
X49792812Y-38966376D01*
X49643512Y-38996073D01*
X49618742Y-39001000D01*
X49441258Y-39001000D01*
X49416488Y-38996073D01*
X49267188Y-38966376D01*
X49103216Y-38898456D01*
X48955646Y-38799853D01*
X48830147Y-38674354D01*
X48731544Y-38526784D01*
X48663624Y-38362812D01*
X48629000Y-38188741D01*
X48629000Y-38011259D01*
X48663624Y-37837188D01*
X48731544Y-37673216D01*
X48830147Y-37525646D01*
X48955646Y-37400147D01*
X49103216Y-37301544D01*
X49267188Y-37233624D01*
X49416488Y-37203927D01*
X49441258Y-37199000D01*
X49618742Y-37199000D01*
X49643512Y-37203927D01*
G37*
G36*
X29323512Y-37203927D02*
G01*
X29472812Y-37233624D01*
X29636784Y-37301544D01*
X29784354Y-37400147D01*
X29909853Y-37525646D01*
X30008456Y-37673216D01*
X30076376Y-37837188D01*
X30111000Y-38011259D01*
X30111000Y-38188741D01*
X30076376Y-38362812D01*
X30008456Y-38526784D01*
X29909853Y-38674354D01*
X29784354Y-38799853D01*
X29636784Y-38898456D01*
X29472812Y-38966376D01*
X29323512Y-38996073D01*
X29298742Y-39001000D01*
X29121258Y-39001000D01*
X29096488Y-38996073D01*
X28947188Y-38966376D01*
X28783216Y-38898456D01*
X28635646Y-38799853D01*
X28510147Y-38674354D01*
X28411544Y-38526784D01*
X28343624Y-38362812D01*
X28309000Y-38188741D01*
X28309000Y-38011259D01*
X28343624Y-37837188D01*
X28411544Y-37673216D01*
X28510147Y-37525646D01*
X28635646Y-37400147D01*
X28783216Y-37301544D01*
X28947188Y-37233624D01*
X29096488Y-37203927D01*
X29121258Y-37199000D01*
X29298742Y-37199000D01*
X29323512Y-37203927D01*
G37*
G36*
X7897395Y-35915546D02*
G01*
X8070466Y-35987234D01*
X8070467Y-35987235D01*
X8226227Y-36091310D01*
X8358690Y-36223773D01*
X8401284Y-36287520D01*
X8462766Y-36379534D01*
X8534454Y-36552605D01*
X8571000Y-36736333D01*
X8571000Y-36923667D01*
X8534454Y-37107395D01*
X8462766Y-37280466D01*
X8462765Y-37280467D01*
X8358690Y-37436227D01*
X8226227Y-37568690D01*
X8203092Y-37584148D01*
X8070466Y-37672766D01*
X7897395Y-37744454D01*
X7713667Y-37781000D01*
X7526333Y-37781000D01*
X7342605Y-37744454D01*
X7169534Y-37672766D01*
X7036908Y-37584148D01*
X7013773Y-37568690D01*
X6881310Y-37436227D01*
X6777235Y-37280467D01*
X6777234Y-37280466D01*
X6705546Y-37107395D01*
X6669000Y-36923667D01*
X6669000Y-36736333D01*
X6705546Y-36552605D01*
X6777234Y-36379534D01*
X6838716Y-36287520D01*
X6881310Y-36223773D01*
X7013773Y-36091310D01*
X7169533Y-35987235D01*
X7169534Y-35987234D01*
X7342605Y-35915546D01*
X7526333Y-35879000D01*
X7713667Y-35879000D01*
X7897395Y-35915546D01*
G37*
G36*
X6031000Y-37781000D02*
G01*
X4129000Y-37781000D01*
X4129000Y-35879000D01*
X6031000Y-35879000D01*
X6031000Y-37781000D01*
G37*
G36*
X44698228Y-36011703D02*
G01*
X44853100Y-36075853D01*
X44992481Y-36168985D01*
X45111015Y-36287519D01*
X45204147Y-36426900D01*
X45268297Y-36581772D01*
X45301000Y-36746184D01*
X45301000Y-36913816D01*
X45268297Y-37078228D01*
X45204147Y-37233100D01*
X45111015Y-37372481D01*
X44992481Y-37491015D01*
X44853100Y-37584147D01*
X44698228Y-37648297D01*
X44533816Y-37681000D01*
X44366184Y-37681000D01*
X44201772Y-37648297D01*
X44046900Y-37584147D01*
X43907519Y-37491015D01*
X43788985Y-37372481D01*
X43695853Y-37233100D01*
X43631703Y-37078228D01*
X43599000Y-36913816D01*
X43599000Y-36746184D01*
X43631703Y-36581772D01*
X43695853Y-36426900D01*
X43788985Y-36287519D01*
X43907519Y-36168985D01*
X44046900Y-36075853D01*
X44201772Y-36011703D01*
X44366184Y-35979000D01*
X44533816Y-35979000D01*
X44698228Y-36011703D01*
G37*
G36*
X29323512Y-34663927D02*
G01*
X29472812Y-34693624D01*
X29636784Y-34761544D01*
X29784354Y-34860147D01*
X29909853Y-34985646D01*
X30008456Y-35133216D01*
X30076376Y-35297188D01*
X30111000Y-35471259D01*
X30111000Y-35648741D01*
X30076376Y-35822812D01*
X30008456Y-35986784D01*
X29909853Y-36134354D01*
X29784354Y-36259853D01*
X29636784Y-36358456D01*
X29472812Y-36426376D01*
X29323512Y-36456073D01*
X29298742Y-36461000D01*
X29121258Y-36461000D01*
X29096488Y-36456073D01*
X28947188Y-36426376D01*
X28783216Y-36358456D01*
X28635646Y-36259853D01*
X28510147Y-36134354D01*
X28411544Y-35986784D01*
X28343624Y-35822812D01*
X28309000Y-35648741D01*
X28309000Y-35471259D01*
X28343624Y-35297188D01*
X28411544Y-35133216D01*
X28510147Y-34985646D01*
X28635646Y-34860147D01*
X28783216Y-34761544D01*
X28947188Y-34693624D01*
X29096488Y-34663927D01*
X29121258Y-34659000D01*
X29298742Y-34659000D01*
X29323512Y-34663927D01*
G37*
G36*
X49643512Y-34663927D02*
G01*
X49792812Y-34693624D01*
X49956784Y-34761544D01*
X50104354Y-34860147D01*
X50229853Y-34985646D01*
X50328456Y-35133216D01*
X50396376Y-35297188D01*
X50431000Y-35471259D01*
X50431000Y-35648741D01*
X50396376Y-35822812D01*
X50328456Y-35986784D01*
X50229853Y-36134354D01*
X50104354Y-36259853D01*
X49956784Y-36358456D01*
X49792812Y-36426376D01*
X49643512Y-36456073D01*
X49618742Y-36461000D01*
X49441258Y-36461000D01*
X49416488Y-36456073D01*
X49267188Y-36426376D01*
X49103216Y-36358456D01*
X48955646Y-36259853D01*
X48830147Y-36134354D01*
X48731544Y-35986784D01*
X48663624Y-35822812D01*
X48629000Y-35648741D01*
X48629000Y-35471259D01*
X48663624Y-35297188D01*
X48731544Y-35133216D01*
X48830147Y-34985646D01*
X48955646Y-34860147D01*
X49103216Y-34761544D01*
X49267188Y-34693624D01*
X49416488Y-34663927D01*
X49441258Y-34659000D01*
X49618742Y-34659000D01*
X49643512Y-34663927D01*
G37*
G36*
X60054903Y-33397075D02*
G01*
X60235072Y-33471703D01*
X60282571Y-33491378D01*
X60487466Y-33628285D01*
X60661715Y-33802534D01*
X60798622Y-34007429D01*
X60798623Y-34007431D01*
X60892925Y-34235097D01*
X60941000Y-34476786D01*
X60941000Y-34723214D01*
X60892925Y-34964903D01*
X60819984Y-35141000D01*
X60798622Y-35192571D01*
X60661715Y-35397466D01*
X60487466Y-35571715D01*
X60282571Y-35708622D01*
X60282570Y-35708623D01*
X60282569Y-35708623D01*
X60054903Y-35802925D01*
X59813214Y-35851000D01*
X59566786Y-35851000D01*
X59325097Y-35802925D01*
X59097431Y-35708623D01*
X59097430Y-35708623D01*
X59097429Y-35708622D01*
X58892534Y-35571715D01*
X58718285Y-35397466D01*
X58581378Y-35192571D01*
X58560017Y-35141000D01*
X58487075Y-34964903D01*
X58439000Y-34723214D01*
X58439000Y-34476786D01*
X58487075Y-34235097D01*
X58581377Y-34007431D01*
X58581378Y-34007429D01*
X58718285Y-33802534D01*
X58892534Y-33628285D01*
X59097429Y-33491378D01*
X59144929Y-33471703D01*
X59325097Y-33397075D01*
X59566786Y-33349000D01*
X59813214Y-33349000D01*
X60054903Y-33397075D01*
G37*
G36*
X44698228Y-33471703D02*
G01*
X44853100Y-33535853D01*
X44992481Y-33628985D01*
X45111015Y-33747519D01*
X45204147Y-33886900D01*
X45268297Y-34041772D01*
X45301000Y-34206184D01*
X45301000Y-34373816D01*
X45268297Y-34538228D01*
X45204147Y-34693100D01*
X45111015Y-34832481D01*
X44992481Y-34951015D01*
X44853100Y-35044147D01*
X44698228Y-35108297D01*
X44533816Y-35141000D01*
X44366184Y-35141000D01*
X44201772Y-35108297D01*
X44046900Y-35044147D01*
X43907519Y-34951015D01*
X43788985Y-34832481D01*
X43695853Y-34693100D01*
X43631703Y-34538228D01*
X43599000Y-34373816D01*
X43599000Y-34206184D01*
X43631703Y-34041772D01*
X43695853Y-33886900D01*
X43788985Y-33747519D01*
X43907519Y-33628985D01*
X44046900Y-33535853D01*
X44201772Y-33471703D01*
X44366184Y-33439000D01*
X44533816Y-33439000D01*
X44698228Y-33471703D01*
G37*
G36*
X21838228Y-33471703D02*
G01*
X21993100Y-33535853D01*
X22132481Y-33628985D01*
X22251015Y-33747519D01*
X22344147Y-33886900D01*
X22408297Y-34041772D01*
X22441000Y-34206184D01*
X22441000Y-34373816D01*
X22408297Y-34538228D01*
X22344147Y-34693100D01*
X22251015Y-34832481D01*
X22132481Y-34951015D01*
X21993100Y-35044147D01*
X21838228Y-35108297D01*
X21673816Y-35141000D01*
X21506184Y-35141000D01*
X21341772Y-35108297D01*
X21186900Y-35044147D01*
X21047519Y-34951015D01*
X20928985Y-34832481D01*
X20835853Y-34693100D01*
X20771703Y-34538228D01*
X20739000Y-34373816D01*
X20739000Y-34206184D01*
X20771703Y-34041772D01*
X20835853Y-33886900D01*
X20928985Y-33747519D01*
X21047519Y-33628985D01*
X21186900Y-33535853D01*
X21341772Y-33471703D01*
X21506184Y-33439000D01*
X21673816Y-33439000D01*
X21838228Y-33471703D01*
G37*
G36*
X24378228Y-33471703D02*
G01*
X24533100Y-33535853D01*
X24672481Y-33628985D01*
X24791015Y-33747519D01*
X24884147Y-33886900D01*
X24948297Y-34041772D01*
X24981000Y-34206184D01*
X24981000Y-34373816D01*
X24948297Y-34538228D01*
X24884147Y-34693100D01*
X24791015Y-34832481D01*
X24672481Y-34951015D01*
X24533100Y-35044147D01*
X24378228Y-35108297D01*
X24213816Y-35141000D01*
X24046184Y-35141000D01*
X23881772Y-35108297D01*
X23726900Y-35044147D01*
X23587519Y-34951015D01*
X23468985Y-34832481D01*
X23375853Y-34693100D01*
X23311703Y-34538228D01*
X23279000Y-34373816D01*
X23279000Y-34206184D01*
X23311703Y-34041772D01*
X23375853Y-33886900D01*
X23468985Y-33747519D01*
X23587519Y-33628985D01*
X23726900Y-33535853D01*
X23881772Y-33471703D01*
X24046184Y-33439000D01*
X24213816Y-33439000D01*
X24378228Y-33471703D01*
G37*
G36*
X49643512Y-32123927D02*
G01*
X49792812Y-32153624D01*
X49956784Y-32221544D01*
X50104354Y-32320147D01*
X50229853Y-32445646D01*
X50328456Y-32593216D01*
X50396376Y-32757188D01*
X50431000Y-32931259D01*
X50431000Y-33108741D01*
X50396376Y-33282812D01*
X50328456Y-33446784D01*
X50229853Y-33594354D01*
X50104354Y-33719853D01*
X49956784Y-33818456D01*
X49792812Y-33886376D01*
X49643512Y-33916073D01*
X49618742Y-33921000D01*
X49441258Y-33921000D01*
X49416488Y-33916073D01*
X49267188Y-33886376D01*
X49103216Y-33818456D01*
X48955646Y-33719853D01*
X48830147Y-33594354D01*
X48731544Y-33446784D01*
X48663624Y-33282812D01*
X48629000Y-33108741D01*
X48629000Y-32931259D01*
X48663624Y-32757188D01*
X48731544Y-32593216D01*
X48830147Y-32445646D01*
X48955646Y-32320147D01*
X49103216Y-32221544D01*
X49267188Y-32153624D01*
X49416488Y-32123927D01*
X49441258Y-32119000D01*
X49618742Y-32119000D01*
X49643512Y-32123927D01*
G37*
G36*
X29323512Y-32123927D02*
G01*
X29472812Y-32153624D01*
X29636784Y-32221544D01*
X29784354Y-32320147D01*
X29909853Y-32445646D01*
X30008456Y-32593216D01*
X30076376Y-32757188D01*
X30111000Y-32931259D01*
X30111000Y-33108741D01*
X30076376Y-33282812D01*
X30008456Y-33446784D01*
X29909853Y-33594354D01*
X29784354Y-33719853D01*
X29636784Y-33818456D01*
X29472812Y-33886376D01*
X29323512Y-33916073D01*
X29298742Y-33921000D01*
X29121258Y-33921000D01*
X29096488Y-33916073D01*
X28947188Y-33886376D01*
X28783216Y-33818456D01*
X28635646Y-33719853D01*
X28510147Y-33594354D01*
X28411544Y-33446784D01*
X28343624Y-33282812D01*
X28309000Y-33108741D01*
X28309000Y-32931259D01*
X28343624Y-32757188D01*
X28411544Y-32593216D01*
X28510147Y-32445646D01*
X28635646Y-32320147D01*
X28783216Y-32221544D01*
X28947188Y-32153624D01*
X29096488Y-32123927D01*
X29121258Y-32119000D01*
X29298742Y-32119000D01*
X29323512Y-32123927D01*
G37*
G36*
X49643512Y-29583927D02*
G01*
X49792812Y-29613624D01*
X49956784Y-29681544D01*
X50104354Y-29780147D01*
X50229853Y-29905646D01*
X50328456Y-30053216D01*
X50396376Y-30217188D01*
X50431000Y-30391259D01*
X50431000Y-30568741D01*
X50396376Y-30742812D01*
X50328456Y-30906784D01*
X50229853Y-31054354D01*
X50104354Y-31179853D01*
X49956784Y-31278456D01*
X49792812Y-31346376D01*
X49643512Y-31376073D01*
X49618742Y-31381000D01*
X49441258Y-31381000D01*
X49416488Y-31376073D01*
X49267188Y-31346376D01*
X49103216Y-31278456D01*
X48955646Y-31179853D01*
X48830147Y-31054354D01*
X48731544Y-30906784D01*
X48663624Y-30742812D01*
X48629000Y-30568741D01*
X48629000Y-30391259D01*
X48663624Y-30217188D01*
X48731544Y-30053216D01*
X48830147Y-29905646D01*
X48955646Y-29780147D01*
X49103216Y-29681544D01*
X49267188Y-29613624D01*
X49416488Y-29583927D01*
X49441258Y-29579000D01*
X49618742Y-29579000D01*
X49643512Y-29583927D01*
G37*
G36*
X29323512Y-29583927D02*
G01*
X29472812Y-29613624D01*
X29636784Y-29681544D01*
X29784354Y-29780147D01*
X29909853Y-29905646D01*
X30008456Y-30053216D01*
X30076376Y-30217188D01*
X30111000Y-30391259D01*
X30111000Y-30568741D01*
X30076376Y-30742812D01*
X30008456Y-30906784D01*
X29909853Y-31054354D01*
X29784354Y-31179853D01*
X29636784Y-31278456D01*
X29472812Y-31346376D01*
X29323512Y-31376073D01*
X29298742Y-31381000D01*
X29121258Y-31381000D01*
X29096488Y-31376073D01*
X28947188Y-31346376D01*
X28783216Y-31278456D01*
X28635646Y-31179853D01*
X28510147Y-31054354D01*
X28411544Y-30906784D01*
X28343624Y-30742812D01*
X28309000Y-30568741D01*
X28309000Y-30391259D01*
X28343624Y-30217188D01*
X28411544Y-30053216D01*
X28510147Y-29905646D01*
X28635646Y-29780147D01*
X28783216Y-29681544D01*
X28947188Y-29613624D01*
X29096488Y-29583927D01*
X29121258Y-29579000D01*
X29298742Y-29579000D01*
X29323512Y-29583927D01*
G37*
G36*
X24378228Y-29661703D02*
G01*
X24533100Y-29725853D01*
X24672481Y-29818985D01*
X24791015Y-29937519D01*
X24884147Y-30076900D01*
X24948297Y-30231772D01*
X24981000Y-30396184D01*
X24981000Y-30563816D01*
X24948297Y-30728228D01*
X24884147Y-30883100D01*
X24791015Y-31022481D01*
X24672481Y-31141015D01*
X24533100Y-31234147D01*
X24378228Y-31298297D01*
X24213816Y-31331000D01*
X24046184Y-31331000D01*
X23881772Y-31298297D01*
X23726900Y-31234147D01*
X23587519Y-31141015D01*
X23468985Y-31022481D01*
X23375853Y-30883100D01*
X23311703Y-30728228D01*
X23279000Y-30563816D01*
X23279000Y-30396184D01*
X23311703Y-30231772D01*
X23375853Y-30076900D01*
X23468985Y-29937519D01*
X23587519Y-29818985D01*
X23726900Y-29725853D01*
X23881772Y-29661703D01*
X24046184Y-29629000D01*
X24213816Y-29629000D01*
X24378228Y-29661703D01*
G37*
G36*
X21838228Y-29661703D02*
G01*
X21993100Y-29725853D01*
X22132481Y-29818985D01*
X22251015Y-29937519D01*
X22344147Y-30076900D01*
X22408297Y-30231772D01*
X22441000Y-30396184D01*
X22441000Y-30563816D01*
X22408297Y-30728228D01*
X22344147Y-30883100D01*
X22251015Y-31022481D01*
X22132481Y-31141015D01*
X21993100Y-31234147D01*
X21838228Y-31298297D01*
X21673816Y-31331000D01*
X21506184Y-31331000D01*
X21341772Y-31298297D01*
X21186900Y-31234147D01*
X21047519Y-31141015D01*
X20928985Y-31022481D01*
X20835853Y-30883100D01*
X20771703Y-30728228D01*
X20739000Y-30563816D01*
X20739000Y-30396184D01*
X20771703Y-30231772D01*
X20835853Y-30076900D01*
X20928985Y-29937519D01*
X21047519Y-29818985D01*
X21186900Y-29725853D01*
X21341772Y-29661703D01*
X21506184Y-29629000D01*
X21673816Y-29629000D01*
X21838228Y-29661703D01*
G37*
G36*
X7897395Y-27025546D02*
G01*
X8070466Y-27097234D01*
X8070467Y-27097235D01*
X8226227Y-27201310D01*
X8358690Y-27333773D01*
X8358691Y-27333775D01*
X8462766Y-27489534D01*
X8534454Y-27662605D01*
X8571000Y-27846333D01*
X8571000Y-28033667D01*
X8534454Y-28217395D01*
X8462766Y-28390466D01*
X8462765Y-28390467D01*
X8358690Y-28546227D01*
X8226227Y-28678690D01*
X8147818Y-28731081D01*
X8070466Y-28782766D01*
X7897395Y-28854454D01*
X7713667Y-28891000D01*
X7526333Y-28891000D01*
X7342605Y-28854454D01*
X7169534Y-28782766D01*
X7092182Y-28731081D01*
X7013773Y-28678690D01*
X6881310Y-28546227D01*
X6777235Y-28390467D01*
X6777234Y-28390466D01*
X6705546Y-28217395D01*
X6669000Y-28033667D01*
X6669000Y-27846333D01*
X6705546Y-27662605D01*
X6777234Y-27489534D01*
X6881309Y-27333775D01*
X6881310Y-27333773D01*
X7013773Y-27201310D01*
X7169533Y-27097235D01*
X7169534Y-27097234D01*
X7342605Y-27025546D01*
X7526333Y-26989000D01*
X7713667Y-26989000D01*
X7897395Y-27025546D01*
G37*
G36*
X6031000Y-28891000D02*
G01*
X4129000Y-28891000D01*
X4129000Y-26989000D01*
X6031000Y-26989000D01*
X6031000Y-28891000D01*
G37*
G36*
X29323512Y-27043927D02*
G01*
X29472812Y-27073624D01*
X29636784Y-27141544D01*
X29784354Y-27240147D01*
X29909853Y-27365646D01*
X30008456Y-27513216D01*
X30076376Y-27677188D01*
X30111000Y-27851259D01*
X30111000Y-28028741D01*
X30076376Y-28202812D01*
X30008456Y-28366784D01*
X29909853Y-28514354D01*
X29784354Y-28639853D01*
X29636784Y-28738456D01*
X29472812Y-28806376D01*
X29323512Y-28836073D01*
X29298742Y-28841000D01*
X29121258Y-28841000D01*
X29096488Y-28836073D01*
X28947188Y-28806376D01*
X28783216Y-28738456D01*
X28635646Y-28639853D01*
X28510147Y-28514354D01*
X28411544Y-28366784D01*
X28343624Y-28202812D01*
X28309000Y-28028741D01*
X28309000Y-27851259D01*
X28343624Y-27677188D01*
X28411544Y-27513216D01*
X28510147Y-27365646D01*
X28635646Y-27240147D01*
X28783216Y-27141544D01*
X28947188Y-27073624D01*
X29096488Y-27043927D01*
X29121258Y-27039000D01*
X29298742Y-27039000D01*
X29323512Y-27043927D01*
G37*
G36*
X49643512Y-27043927D02*
G01*
X49792812Y-27073624D01*
X49956784Y-27141544D01*
X50104354Y-27240147D01*
X50229853Y-27365646D01*
X50328456Y-27513216D01*
X50396376Y-27677188D01*
X50431000Y-27851259D01*
X50431000Y-28028741D01*
X50396376Y-28202812D01*
X50328456Y-28366784D01*
X50229853Y-28514354D01*
X50104354Y-28639853D01*
X49956784Y-28738456D01*
X49792812Y-28806376D01*
X49643512Y-28836073D01*
X49618742Y-28841000D01*
X49441258Y-28841000D01*
X49416488Y-28836073D01*
X49267188Y-28806376D01*
X49103216Y-28738456D01*
X48955646Y-28639853D01*
X48830147Y-28514354D01*
X48731544Y-28366784D01*
X48663624Y-28202812D01*
X48629000Y-28028741D01*
X48629000Y-27851259D01*
X48663624Y-27677188D01*
X48731544Y-27513216D01*
X48830147Y-27365646D01*
X48955646Y-27240147D01*
X49103216Y-27141544D01*
X49267188Y-27073624D01*
X49416488Y-27043927D01*
X49441258Y-27039000D01*
X49618742Y-27039000D01*
X49643512Y-27043927D01*
G37*
G36*
X49643512Y-24503927D02*
G01*
X49792812Y-24533624D01*
X49956784Y-24601544D01*
X50104354Y-24700147D01*
X50229853Y-24825646D01*
X50328456Y-24973216D01*
X50396376Y-25137188D01*
X50431000Y-25311259D01*
X50431000Y-25488741D01*
X50396376Y-25662812D01*
X50328456Y-25826784D01*
X50229853Y-25974354D01*
X50104354Y-26099853D01*
X49956784Y-26198456D01*
X49792812Y-26266376D01*
X49643512Y-26296073D01*
X49618742Y-26301000D01*
X49441258Y-26301000D01*
X49416488Y-26296073D01*
X49267188Y-26266376D01*
X49103216Y-26198456D01*
X48955646Y-26099853D01*
X48830147Y-25974354D01*
X48731544Y-25826784D01*
X48663624Y-25662812D01*
X48629000Y-25488741D01*
X48629000Y-25311259D01*
X48663624Y-25137188D01*
X48731544Y-24973216D01*
X48830147Y-24825646D01*
X48955646Y-24700147D01*
X49103216Y-24601544D01*
X49267188Y-24533624D01*
X49416488Y-24503927D01*
X49441258Y-24499000D01*
X49618742Y-24499000D01*
X49643512Y-24503927D01*
G37*
G36*
X58051000Y-26301000D02*
G01*
X56249000Y-26301000D01*
X56249000Y-24499000D01*
X58051000Y-24499000D01*
X58051000Y-26301000D01*
G37*
G36*
X59803512Y-24503927D02*
G01*
X59952812Y-24533624D01*
X60116784Y-24601544D01*
X60264354Y-24700147D01*
X60389853Y-24825646D01*
X60488456Y-24973216D01*
X60556376Y-25137188D01*
X60591000Y-25311259D01*
X60591000Y-25488741D01*
X60556376Y-25662812D01*
X60488456Y-25826784D01*
X60389853Y-25974354D01*
X60264354Y-26099853D01*
X60116784Y-26198456D01*
X59952812Y-26266376D01*
X59803512Y-26296073D01*
X59778742Y-26301000D01*
X59601258Y-26301000D01*
X59576488Y-26296073D01*
X59427188Y-26266376D01*
X59263216Y-26198456D01*
X59115646Y-26099853D01*
X58990147Y-25974354D01*
X58891544Y-25826784D01*
X58823624Y-25662812D01*
X58789000Y-25488741D01*
X58789000Y-25311259D01*
X58823624Y-25137188D01*
X58891544Y-24973216D01*
X58990147Y-24825646D01*
X59115646Y-24700147D01*
X59263216Y-24601544D01*
X59427188Y-24533624D01*
X59576488Y-24503927D01*
X59601258Y-24499000D01*
X59778742Y-24499000D01*
X59803512Y-24503927D01*
G37*
G36*
X29323512Y-24503927D02*
G01*
X29472812Y-24533624D01*
X29636784Y-24601544D01*
X29784354Y-24700147D01*
X29909853Y-24825646D01*
X30008456Y-24973216D01*
X30076376Y-25137188D01*
X30111000Y-25311259D01*
X30111000Y-25488741D01*
X30076376Y-25662812D01*
X30008456Y-25826784D01*
X29909853Y-25974354D01*
X29784354Y-26099853D01*
X29636784Y-26198456D01*
X29472812Y-26266376D01*
X29323512Y-26296073D01*
X29298742Y-26301000D01*
X29121258Y-26301000D01*
X29096488Y-26296073D01*
X28947188Y-26266376D01*
X28783216Y-26198456D01*
X28635646Y-26099853D01*
X28510147Y-25974354D01*
X28411544Y-25826784D01*
X28343624Y-25662812D01*
X28309000Y-25488741D01*
X28309000Y-25311259D01*
X28343624Y-25137188D01*
X28411544Y-24973216D01*
X28510147Y-24825646D01*
X28635646Y-24700147D01*
X28783216Y-24601544D01*
X28947188Y-24533624D01*
X29096488Y-24503927D01*
X29121258Y-24499000D01*
X29298742Y-24499000D01*
X29323512Y-24503927D01*
G37*
G36*
X62343512Y-24503927D02*
G01*
X62492812Y-24533624D01*
X62656784Y-24601544D01*
X62804354Y-24700147D01*
X62929853Y-24825646D01*
X63028456Y-24973216D01*
X63096376Y-25137188D01*
X63131000Y-25311259D01*
X63131000Y-25488741D01*
X63096376Y-25662812D01*
X63028456Y-25826784D01*
X62929853Y-25974354D01*
X62804354Y-26099853D01*
X62656784Y-26198456D01*
X62492812Y-26266376D01*
X62343512Y-26296073D01*
X62318742Y-26301000D01*
X62141258Y-26301000D01*
X62116488Y-26296073D01*
X61967188Y-26266376D01*
X61803216Y-26198456D01*
X61655646Y-26099853D01*
X61530147Y-25974354D01*
X61431544Y-25826784D01*
X61363624Y-25662812D01*
X61329000Y-25488741D01*
X61329000Y-25311259D01*
X61363624Y-25137188D01*
X61431544Y-24973216D01*
X61530147Y-24825646D01*
X61655646Y-24700147D01*
X61803216Y-24601544D01*
X61967188Y-24533624D01*
X62116488Y-24503927D01*
X62141258Y-24499000D01*
X62318742Y-24499000D01*
X62343512Y-24503927D01*
G37*
G36*
X21838228Y-24581703D02*
G01*
X21993100Y-24645853D01*
X22132481Y-24738985D01*
X22251015Y-24857519D01*
X22344147Y-24996900D01*
X22408297Y-25151772D01*
X22441000Y-25316184D01*
X22441000Y-25483816D01*
X22408297Y-25648228D01*
X22344147Y-25803100D01*
X22251015Y-25942481D01*
X22132481Y-26061015D01*
X21993100Y-26154147D01*
X21838228Y-26218297D01*
X21673816Y-26251000D01*
X21506184Y-26251000D01*
X21341772Y-26218297D01*
X21186900Y-26154147D01*
X21047519Y-26061015D01*
X20928985Y-25942481D01*
X20835853Y-25803100D01*
X20771703Y-25648228D01*
X20739000Y-25483816D01*
X20739000Y-25316184D01*
X20771703Y-25151772D01*
X20835853Y-24996900D01*
X20928985Y-24857519D01*
X21047519Y-24738985D01*
X21186900Y-24645853D01*
X21341772Y-24581703D01*
X21506184Y-24549000D01*
X21673816Y-24549000D01*
X21838228Y-24581703D01*
G37*
G36*
X24378228Y-24581703D02*
G01*
X24533100Y-24645853D01*
X24672481Y-24738985D01*
X24791015Y-24857519D01*
X24884147Y-24996900D01*
X24948297Y-25151772D01*
X24981000Y-25316184D01*
X24981000Y-25483816D01*
X24948297Y-25648228D01*
X24884147Y-25803100D01*
X24791015Y-25942481D01*
X24672481Y-26061015D01*
X24533100Y-26154147D01*
X24378228Y-26218297D01*
X24213816Y-26251000D01*
X24046184Y-26251000D01*
X23881772Y-26218297D01*
X23726900Y-26154147D01*
X23587519Y-26061015D01*
X23468985Y-25942481D01*
X23375853Y-25803100D01*
X23311703Y-25648228D01*
X23279000Y-25483816D01*
X23279000Y-25316184D01*
X23311703Y-25151772D01*
X23375853Y-24996900D01*
X23468985Y-24857519D01*
X23587519Y-24738985D01*
X23726900Y-24645853D01*
X23881772Y-24581703D01*
X24046184Y-24549000D01*
X24213816Y-24549000D01*
X24378228Y-24581703D01*
G37*
G36*
X49643512Y-21963927D02*
G01*
X49792812Y-21993624D01*
X49956784Y-22061544D01*
X50104354Y-22160147D01*
X50229853Y-22285646D01*
X50328456Y-22433216D01*
X50396376Y-22597188D01*
X50431000Y-22771259D01*
X50431000Y-22948741D01*
X50396376Y-23122812D01*
X50328456Y-23286784D01*
X50229853Y-23434354D01*
X50104354Y-23559853D01*
X49956784Y-23658456D01*
X49792812Y-23726376D01*
X49643512Y-23756073D01*
X49618742Y-23761000D01*
X49441258Y-23761000D01*
X49416488Y-23756073D01*
X49267188Y-23726376D01*
X49103216Y-23658456D01*
X48955646Y-23559853D01*
X48830147Y-23434354D01*
X48731544Y-23286784D01*
X48663624Y-23122812D01*
X48629000Y-22948741D01*
X48629000Y-22771259D01*
X48663624Y-22597188D01*
X48731544Y-22433216D01*
X48830147Y-22285646D01*
X48955646Y-22160147D01*
X49103216Y-22061544D01*
X49267188Y-21993624D01*
X49416488Y-21963927D01*
X49441258Y-21959000D01*
X49618742Y-21959000D01*
X49643512Y-21963927D01*
G37*
G36*
X29323512Y-21963927D02*
G01*
X29472812Y-21993624D01*
X29636784Y-22061544D01*
X29784354Y-22160147D01*
X29909853Y-22285646D01*
X30008456Y-22433216D01*
X30076376Y-22597188D01*
X30111000Y-22771259D01*
X30111000Y-22948741D01*
X30076376Y-23122812D01*
X30008456Y-23286784D01*
X29909853Y-23434354D01*
X29784354Y-23559853D01*
X29636784Y-23658456D01*
X29472812Y-23726376D01*
X29323512Y-23756073D01*
X29298742Y-23761000D01*
X29121258Y-23761000D01*
X29096488Y-23756073D01*
X28947188Y-23726376D01*
X28783216Y-23658456D01*
X28635646Y-23559853D01*
X28510147Y-23434354D01*
X28411544Y-23286784D01*
X28343624Y-23122812D01*
X28309000Y-22948741D01*
X28309000Y-22771259D01*
X28343624Y-22597188D01*
X28411544Y-22433216D01*
X28510147Y-22285646D01*
X28635646Y-22160147D01*
X28783216Y-22061544D01*
X28947188Y-21993624D01*
X29096488Y-21963927D01*
X29121258Y-21959000D01*
X29298742Y-21959000D01*
X29323512Y-21963927D01*
G37*
G36*
X24378228Y-20771703D02*
G01*
X24533100Y-20835853D01*
X24672481Y-20928985D01*
X24791015Y-21047519D01*
X24884147Y-21186900D01*
X24948297Y-21341772D01*
X24981000Y-21506184D01*
X24981000Y-21673816D01*
X24948297Y-21838228D01*
X24884147Y-21993100D01*
X24791015Y-22132481D01*
X24672481Y-22251015D01*
X24533100Y-22344147D01*
X24378228Y-22408297D01*
X24213816Y-22441000D01*
X24046184Y-22441000D01*
X23881772Y-22408297D01*
X23726900Y-22344147D01*
X23587519Y-22251015D01*
X23468985Y-22132481D01*
X23375853Y-21993100D01*
X23311703Y-21838228D01*
X23279000Y-21673816D01*
X23279000Y-21506184D01*
X23311703Y-21341772D01*
X23375853Y-21186900D01*
X23468985Y-21047519D01*
X23587519Y-20928985D01*
X23726900Y-20835853D01*
X23881772Y-20771703D01*
X24046184Y-20739000D01*
X24213816Y-20739000D01*
X24378228Y-20771703D01*
G37*
G36*
X21838228Y-20771703D02*
G01*
X21993100Y-20835853D01*
X22132481Y-20928985D01*
X22251015Y-21047519D01*
X22344147Y-21186900D01*
X22408297Y-21341772D01*
X22441000Y-21506184D01*
X22441000Y-21673816D01*
X22408297Y-21838228D01*
X22344147Y-21993100D01*
X22251015Y-22132481D01*
X22132481Y-22251015D01*
X21993100Y-22344147D01*
X21838228Y-22408297D01*
X21673816Y-22441000D01*
X21506184Y-22441000D01*
X21341772Y-22408297D01*
X21186900Y-22344147D01*
X21047519Y-22251015D01*
X20928985Y-22132481D01*
X20835853Y-21993100D01*
X20771703Y-21838228D01*
X20739000Y-21673816D01*
X20739000Y-21506184D01*
X20771703Y-21341772D01*
X20835853Y-21186900D01*
X20928985Y-21047519D01*
X21047519Y-20928985D01*
X21186900Y-20835853D01*
X21341772Y-20771703D01*
X21506184Y-20739000D01*
X21673816Y-20739000D01*
X21838228Y-20771703D01*
G37*
G36*
X29323512Y-19423927D02*
G01*
X29472812Y-19453624D01*
X29636784Y-19521544D01*
X29784354Y-19620147D01*
X29909853Y-19745646D01*
X30008456Y-19893216D01*
X30076376Y-20057188D01*
X30111000Y-20231259D01*
X30111000Y-20408741D01*
X30076376Y-20582812D01*
X30008456Y-20746784D01*
X29909853Y-20894354D01*
X29784354Y-21019853D01*
X29636784Y-21118456D01*
X29472812Y-21186376D01*
X29323512Y-21216073D01*
X29298742Y-21221000D01*
X29121258Y-21221000D01*
X29096488Y-21216073D01*
X28947188Y-21186376D01*
X28783216Y-21118456D01*
X28635646Y-21019853D01*
X28510147Y-20894354D01*
X28411544Y-20746784D01*
X28343624Y-20582812D01*
X28309000Y-20408741D01*
X28309000Y-20231259D01*
X28343624Y-20057188D01*
X28411544Y-19893216D01*
X28510147Y-19745646D01*
X28635646Y-19620147D01*
X28783216Y-19521544D01*
X28947188Y-19453624D01*
X29096488Y-19423927D01*
X29121258Y-19419000D01*
X29298742Y-19419000D01*
X29323512Y-19423927D01*
G37*
G36*
X49643512Y-19423927D02*
G01*
X49792812Y-19453624D01*
X49956784Y-19521544D01*
X50104354Y-19620147D01*
X50229853Y-19745646D01*
X50328456Y-19893216D01*
X50396376Y-20057188D01*
X50431000Y-20231259D01*
X50431000Y-20408741D01*
X50396376Y-20582812D01*
X50328456Y-20746784D01*
X50229853Y-20894354D01*
X50104354Y-21019853D01*
X49956784Y-21118456D01*
X49792812Y-21186376D01*
X49643512Y-21216073D01*
X49618742Y-21221000D01*
X49441258Y-21221000D01*
X49416488Y-21216073D01*
X49267188Y-21186376D01*
X49103216Y-21118456D01*
X48955646Y-21019853D01*
X48830147Y-20894354D01*
X48731544Y-20746784D01*
X48663624Y-20582812D01*
X48629000Y-20408741D01*
X48629000Y-20231259D01*
X48663624Y-20057188D01*
X48731544Y-19893216D01*
X48830147Y-19745646D01*
X48955646Y-19620147D01*
X49103216Y-19521544D01*
X49267188Y-19453624D01*
X49416488Y-19423927D01*
X49441258Y-19419000D01*
X49618742Y-19419000D01*
X49643512Y-19423927D01*
G37*
G36*
X6031000Y-20001000D02*
G01*
X4129000Y-20001000D01*
X4129000Y-18099000D01*
X6031000Y-18099000D01*
X6031000Y-20001000D01*
G37*
G36*
X7897395Y-18135546D02*
G01*
X8070466Y-18207234D01*
X8070467Y-18207235D01*
X8226227Y-18311310D01*
X8358690Y-18443773D01*
X8358691Y-18443775D01*
X8462766Y-18599534D01*
X8534454Y-18772605D01*
X8571000Y-18956333D01*
X8571000Y-19143667D01*
X8534454Y-19327395D01*
X8462766Y-19500466D01*
X8462765Y-19500467D01*
X8358690Y-19656227D01*
X8226227Y-19788690D01*
X8147818Y-19841081D01*
X8070466Y-19892766D01*
X7897395Y-19964454D01*
X7713667Y-20001000D01*
X7526333Y-20001000D01*
X7342605Y-19964454D01*
X7169534Y-19892766D01*
X7092182Y-19841081D01*
X7013773Y-19788690D01*
X6881310Y-19656227D01*
X6777235Y-19500467D01*
X6777234Y-19500466D01*
X6705546Y-19327395D01*
X6669000Y-19143667D01*
X6669000Y-18956333D01*
X6705546Y-18772605D01*
X6777234Y-18599534D01*
X6881309Y-18443775D01*
X6881310Y-18443773D01*
X7013773Y-18311310D01*
X7169533Y-18207235D01*
X7169534Y-18207234D01*
X7342605Y-18135546D01*
X7526333Y-18099000D01*
X7713667Y-18099000D01*
X7897395Y-18135546D01*
G37*
G36*
X29323512Y-16883927D02*
G01*
X29472812Y-16913624D01*
X29636784Y-16981544D01*
X29784354Y-17080147D01*
X29909853Y-17205646D01*
X30008456Y-17353216D01*
X30076376Y-17517188D01*
X30111000Y-17691259D01*
X30111000Y-17868741D01*
X30076376Y-18042812D01*
X30008456Y-18206784D01*
X29909853Y-18354354D01*
X29784354Y-18479853D01*
X29636784Y-18578456D01*
X29472812Y-18646376D01*
X29323512Y-18676073D01*
X29298742Y-18681000D01*
X29121258Y-18681000D01*
X29096488Y-18676073D01*
X28947188Y-18646376D01*
X28783216Y-18578456D01*
X28635646Y-18479853D01*
X28510147Y-18354354D01*
X28411544Y-18206784D01*
X28343624Y-18042812D01*
X28309000Y-17868741D01*
X28309000Y-17691259D01*
X28343624Y-17517188D01*
X28411544Y-17353216D01*
X28510147Y-17205646D01*
X28635646Y-17080147D01*
X28783216Y-16981544D01*
X28947188Y-16913624D01*
X29096488Y-16883927D01*
X29121258Y-16879000D01*
X29298742Y-16879000D01*
X29323512Y-16883927D01*
G37*
G36*
X49643512Y-16883927D02*
G01*
X49792812Y-16913624D01*
X49956784Y-16981544D01*
X50104354Y-17080147D01*
X50229853Y-17205646D01*
X50328456Y-17353216D01*
X50396376Y-17517188D01*
X50431000Y-17691259D01*
X50431000Y-17868741D01*
X50396376Y-18042812D01*
X50328456Y-18206784D01*
X50229853Y-18354354D01*
X50104354Y-18479853D01*
X49956784Y-18578456D01*
X49792812Y-18646376D01*
X49643512Y-18676073D01*
X49618742Y-18681000D01*
X49441258Y-18681000D01*
X49416488Y-18676073D01*
X49267188Y-18646376D01*
X49103216Y-18578456D01*
X48955646Y-18479853D01*
X48830147Y-18354354D01*
X48731544Y-18206784D01*
X48663624Y-18042812D01*
X48629000Y-17868741D01*
X48629000Y-17691259D01*
X48663624Y-17517188D01*
X48731544Y-17353216D01*
X48830147Y-17205646D01*
X48955646Y-17080147D01*
X49103216Y-16981544D01*
X49267188Y-16913624D01*
X49416488Y-16883927D01*
X49441258Y-16879000D01*
X49618742Y-16879000D01*
X49643512Y-16883927D01*
G37*
G36*
X53453512Y-15613927D02*
G01*
X53602812Y-15643624D01*
X53766784Y-15711544D01*
X53914354Y-15810147D01*
X54039853Y-15935646D01*
X54138456Y-16083216D01*
X54206376Y-16247188D01*
X54241000Y-16421259D01*
X54241000Y-16598741D01*
X54206376Y-16772812D01*
X54138456Y-16936784D01*
X54039853Y-17084354D01*
X53914354Y-17209853D01*
X53766784Y-17308456D01*
X53602812Y-17376376D01*
X53453512Y-17406073D01*
X53428742Y-17411000D01*
X53251258Y-17411000D01*
X53226488Y-17406073D01*
X53077188Y-17376376D01*
X52913216Y-17308456D01*
X52765646Y-17209853D01*
X52640147Y-17084354D01*
X52541544Y-16936784D01*
X52473624Y-16772812D01*
X52439000Y-16598741D01*
X52439000Y-16421259D01*
X52473624Y-16247188D01*
X52541544Y-16083216D01*
X52640147Y-15935646D01*
X52765646Y-15810147D01*
X52913216Y-15711544D01*
X53077188Y-15643624D01*
X53226488Y-15613927D01*
X53251258Y-15609000D01*
X53428742Y-15609000D01*
X53453512Y-15613927D01*
G37*
G36*
X24378228Y-15691703D02*
G01*
X24533100Y-15755853D01*
X24672481Y-15848985D01*
X24791015Y-15967519D01*
X24884147Y-16106900D01*
X24948297Y-16261772D01*
X24981000Y-16426184D01*
X24981000Y-16593816D01*
X24948297Y-16758228D01*
X24884147Y-16913100D01*
X24791015Y-17052481D01*
X24672481Y-17171015D01*
X24533100Y-17264147D01*
X24378228Y-17328297D01*
X24213816Y-17361000D01*
X24046184Y-17361000D01*
X23881772Y-17328297D01*
X23726900Y-17264147D01*
X23587519Y-17171015D01*
X23468985Y-17052481D01*
X23375853Y-16913100D01*
X23311703Y-16758228D01*
X23279000Y-16593816D01*
X23279000Y-16426184D01*
X23311703Y-16261772D01*
X23375853Y-16106900D01*
X23468985Y-15967519D01*
X23587519Y-15848985D01*
X23726900Y-15755853D01*
X23881772Y-15691703D01*
X24046184Y-15659000D01*
X24213816Y-15659000D01*
X24378228Y-15691703D01*
G37*
G36*
X21838228Y-15691703D02*
G01*
X21993100Y-15755853D01*
X22132481Y-15848985D01*
X22251015Y-15967519D01*
X22344147Y-16106900D01*
X22408297Y-16261772D01*
X22441000Y-16426184D01*
X22441000Y-16593816D01*
X22408297Y-16758228D01*
X22344147Y-16913100D01*
X22251015Y-17052481D01*
X22132481Y-17171015D01*
X21993100Y-17264147D01*
X21838228Y-17328297D01*
X21673816Y-17361000D01*
X21506184Y-17361000D01*
X21341772Y-17328297D01*
X21186900Y-17264147D01*
X21047519Y-17171015D01*
X20928985Y-17052481D01*
X20835853Y-16913100D01*
X20771703Y-16758228D01*
X20739000Y-16593816D01*
X20739000Y-16426184D01*
X20771703Y-16261772D01*
X20835853Y-16106900D01*
X20928985Y-15967519D01*
X21047519Y-15848985D01*
X21186900Y-15755853D01*
X21341772Y-15691703D01*
X21506184Y-15659000D01*
X21673816Y-15659000D01*
X21838228Y-15691703D01*
G37*
G36*
X60941000Y-16491000D02*
G01*
X58439000Y-16491000D01*
X58439000Y-13989000D01*
X60941000Y-13989000D01*
X60941000Y-16491000D01*
G37*
G36*
X49643512Y-14343927D02*
G01*
X49792812Y-14373624D01*
X49956784Y-14441544D01*
X50104354Y-14540147D01*
X50229853Y-14665646D01*
X50328456Y-14813216D01*
X50396376Y-14977188D01*
X50431000Y-15151259D01*
X50431000Y-15328741D01*
X50396376Y-15502812D01*
X50328456Y-15666784D01*
X50229853Y-15814354D01*
X50104354Y-15939853D01*
X49956784Y-16038456D01*
X49792812Y-16106376D01*
X49643512Y-16136073D01*
X49618742Y-16141000D01*
X49441258Y-16141000D01*
X49416488Y-16136073D01*
X49267188Y-16106376D01*
X49103216Y-16038456D01*
X48955646Y-15939853D01*
X48830147Y-15814354D01*
X48731544Y-15666784D01*
X48663624Y-15502812D01*
X48629000Y-15328741D01*
X48629000Y-15151259D01*
X48663624Y-14977188D01*
X48731544Y-14813216D01*
X48830147Y-14665646D01*
X48955646Y-14540147D01*
X49103216Y-14441544D01*
X49267188Y-14373624D01*
X49416488Y-14343927D01*
X49441258Y-14339000D01*
X49618742Y-14339000D01*
X49643512Y-14343927D01*
G37*
G36*
X29323512Y-14343927D02*
G01*
X29472812Y-14373624D01*
X29636784Y-14441544D01*
X29784354Y-14540147D01*
X29909853Y-14665646D01*
X30008456Y-14813216D01*
X30076376Y-14977188D01*
X30111000Y-15151259D01*
X30111000Y-15328741D01*
X30076376Y-15502812D01*
X30008456Y-15666784D01*
X29909853Y-15814354D01*
X29784354Y-15939853D01*
X29636784Y-16038456D01*
X29472812Y-16106376D01*
X29323512Y-16136073D01*
X29298742Y-16141000D01*
X29121258Y-16141000D01*
X29096488Y-16136073D01*
X28947188Y-16106376D01*
X28783216Y-16038456D01*
X28635646Y-15939853D01*
X28510147Y-15814354D01*
X28411544Y-15666784D01*
X28343624Y-15502812D01*
X28309000Y-15328741D01*
X28309000Y-15151259D01*
X28343624Y-14977188D01*
X28411544Y-14813216D01*
X28510147Y-14665646D01*
X28635646Y-14540147D01*
X28783216Y-14441544D01*
X28947188Y-14373624D01*
X29096488Y-14343927D01*
X29121258Y-14339000D01*
X29298742Y-14339000D01*
X29323512Y-14343927D01*
G37*
G36*
X36148433Y-12914893D02*
G01*
X36238657Y-12932839D01*
X36344267Y-12976585D01*
X36493621Y-13038449D01*
X36493622Y-13038450D01*
X36723086Y-13191772D01*
X36918228Y-13386914D01*
X37006013Y-13518295D01*
X37071551Y-13616379D01*
X37177161Y-13871344D01*
X37231000Y-14142012D01*
X37231000Y-14417988D01*
X37177161Y-14688656D01*
X37071551Y-14943621D01*
X37020675Y-15019763D01*
X36918228Y-15173086D01*
X36723086Y-15368228D01*
X36569763Y-15470675D01*
X36493621Y-15521551D01*
X36344267Y-15583415D01*
X36238657Y-15627161D01*
X36155891Y-15643624D01*
X35967988Y-15681000D01*
X35692012Y-15681000D01*
X35504109Y-15643624D01*
X35421343Y-15627161D01*
X35315733Y-15583415D01*
X35166379Y-15521551D01*
X35090237Y-15470675D01*
X34936914Y-15368228D01*
X34741772Y-15173086D01*
X34639325Y-15019763D01*
X34588449Y-14943621D01*
X34482839Y-14688656D01*
X34429000Y-14417988D01*
X34429000Y-14142012D01*
X34482839Y-13871344D01*
X34588449Y-13616379D01*
X34653987Y-13518295D01*
X34741772Y-13386914D01*
X34936914Y-13191772D01*
X35166378Y-13038450D01*
X35166379Y-13038449D01*
X35315733Y-12976585D01*
X35421343Y-12932839D01*
X35511567Y-12914893D01*
X35692012Y-12879000D01*
X35967988Y-12879000D01*
X36148433Y-12914893D01*
G37*
G36*
X54241000Y-14871000D02*
G01*
X52439000Y-14871000D01*
X52439000Y-13069000D01*
X54241000Y-13069000D01*
X54241000Y-14871000D01*
G37*
G36*
X49643512Y-11803927D02*
G01*
X49792812Y-11833624D01*
X49956784Y-11901544D01*
X50104354Y-12000147D01*
X50229853Y-12125646D01*
X50328456Y-12273216D01*
X50396376Y-12437188D01*
X50431000Y-12611259D01*
X50431000Y-12788741D01*
X50396376Y-12962812D01*
X50328456Y-13126784D01*
X50229853Y-13274354D01*
X50104354Y-13399853D01*
X49956784Y-13498456D01*
X49792812Y-13566376D01*
X49643512Y-13596073D01*
X49618742Y-13601000D01*
X49441258Y-13601000D01*
X49416488Y-13596073D01*
X49267188Y-13566376D01*
X49103216Y-13498456D01*
X48955646Y-13399853D01*
X48830147Y-13274354D01*
X48731544Y-13126784D01*
X48663624Y-12962812D01*
X48629000Y-12788741D01*
X48629000Y-12611259D01*
X48663624Y-12437188D01*
X48731544Y-12273216D01*
X48830147Y-12125646D01*
X48955646Y-12000147D01*
X49103216Y-11901544D01*
X49267188Y-11833624D01*
X49416488Y-11803927D01*
X49441258Y-11799000D01*
X49618742Y-11799000D01*
X49643512Y-11803927D01*
G37*
G36*
X29323512Y-11803927D02*
G01*
X29472812Y-11833624D01*
X29636784Y-11901544D01*
X29784354Y-12000147D01*
X29909853Y-12125646D01*
X30008456Y-12273216D01*
X30076376Y-12437188D01*
X30111000Y-12611259D01*
X30111000Y-12788741D01*
X30076376Y-12962812D01*
X30008456Y-13126784D01*
X29909853Y-13274354D01*
X29784354Y-13399853D01*
X29636784Y-13498456D01*
X29472812Y-13566376D01*
X29323512Y-13596073D01*
X29298742Y-13601000D01*
X29121258Y-13601000D01*
X29096488Y-13596073D01*
X28947188Y-13566376D01*
X28783216Y-13498456D01*
X28635646Y-13399853D01*
X28510147Y-13274354D01*
X28411544Y-13126784D01*
X28343624Y-12962812D01*
X28309000Y-12788741D01*
X28309000Y-12611259D01*
X28343624Y-12437188D01*
X28411544Y-12273216D01*
X28510147Y-12125646D01*
X28635646Y-12000147D01*
X28783216Y-11901544D01*
X28947188Y-11833624D01*
X29096488Y-11803927D01*
X29121258Y-11799000D01*
X29298742Y-11799000D01*
X29323512Y-11803927D01*
G37*
G36*
X24378228Y-11881703D02*
G01*
X24533100Y-11945853D01*
X24672481Y-12038985D01*
X24791015Y-12157519D01*
X24884147Y-12296900D01*
X24948297Y-12451772D01*
X24981000Y-12616184D01*
X24981000Y-12783816D01*
X24948297Y-12948228D01*
X24884147Y-13103100D01*
X24791015Y-13242481D01*
X24672481Y-13361015D01*
X24533100Y-13454147D01*
X24378228Y-13518297D01*
X24213816Y-13551000D01*
X24046184Y-13551000D01*
X23881772Y-13518297D01*
X23726900Y-13454147D01*
X23587519Y-13361015D01*
X23468985Y-13242481D01*
X23375853Y-13103100D01*
X23311703Y-12948228D01*
X23279000Y-12783816D01*
X23279000Y-12616184D01*
X23311703Y-12451772D01*
X23375853Y-12296900D01*
X23468985Y-12157519D01*
X23587519Y-12038985D01*
X23726900Y-11945853D01*
X23881772Y-11881703D01*
X24046184Y-11849000D01*
X24213816Y-11849000D01*
X24378228Y-11881703D01*
G37*
G36*
X21838228Y-11881703D02*
G01*
X21993100Y-11945853D01*
X22132481Y-12038985D01*
X22251015Y-12157519D01*
X22344147Y-12296900D01*
X22408297Y-12451772D01*
X22441000Y-12616184D01*
X22441000Y-12783816D01*
X22408297Y-12948228D01*
X22344147Y-13103100D01*
X22251015Y-13242481D01*
X22132481Y-13361015D01*
X21993100Y-13454147D01*
X21838228Y-13518297D01*
X21673816Y-13551000D01*
X21506184Y-13551000D01*
X21341772Y-13518297D01*
X21186900Y-13454147D01*
X21047519Y-13361015D01*
X20928985Y-13242481D01*
X20835853Y-13103100D01*
X20771703Y-12948228D01*
X20739000Y-12783816D01*
X20739000Y-12616184D01*
X20771703Y-12451772D01*
X20835853Y-12296900D01*
X20928985Y-12157519D01*
X21047519Y-12038985D01*
X21186900Y-11945853D01*
X21341772Y-11881703D01*
X21506184Y-11849000D01*
X21673816Y-11849000D01*
X21838228Y-11881703D01*
G37*
G36*
X60054903Y-10537075D02*
G01*
X60232088Y-10610467D01*
X60282571Y-10631378D01*
X60487466Y-10768285D01*
X60661715Y-10942534D01*
X60798622Y-11147429D01*
X60798623Y-11147431D01*
X60892925Y-11375097D01*
X60941000Y-11616786D01*
X60941000Y-11863214D01*
X60892925Y-12104903D01*
X60813398Y-12296900D01*
X60798622Y-12332571D01*
X60661715Y-12537466D01*
X60487466Y-12711715D01*
X60282571Y-12848622D01*
X60282570Y-12848623D01*
X60282569Y-12848623D01*
X60054903Y-12942925D01*
X59813214Y-12991000D01*
X59566786Y-12991000D01*
X59325097Y-12942925D01*
X59097431Y-12848623D01*
X59097430Y-12848623D01*
X59097429Y-12848622D01*
X58892534Y-12711715D01*
X58718285Y-12537466D01*
X58581378Y-12332571D01*
X58566603Y-12296900D01*
X58487075Y-12104903D01*
X58439000Y-11863214D01*
X58439000Y-11616786D01*
X58487075Y-11375097D01*
X58581377Y-11147431D01*
X58581378Y-11147429D01*
X58718285Y-10942534D01*
X58892534Y-10768285D01*
X59097429Y-10631378D01*
X59147913Y-10610467D01*
X59325097Y-10537075D01*
X59566786Y-10489000D01*
X59813214Y-10489000D01*
X60054903Y-10537075D01*
G37*
G36*
X6031000Y-11111000D02*
G01*
X4129000Y-11111000D01*
X4129000Y-9209000D01*
X6031000Y-9209000D01*
X6031000Y-11111000D01*
G37*
G36*
X7897395Y-9245546D02*
G01*
X8070466Y-9317234D01*
X8070467Y-9317235D01*
X8226227Y-9421310D01*
X8358690Y-9553773D01*
X8358691Y-9553775D01*
X8462766Y-9709534D01*
X8534454Y-9882605D01*
X8571000Y-10066333D01*
X8571000Y-10253667D01*
X8534454Y-10437395D01*
X8462766Y-10610466D01*
X8448793Y-10631378D01*
X8358690Y-10766227D01*
X8226227Y-10898690D01*
X8147818Y-10951081D01*
X8070466Y-11002766D01*
X7897395Y-11074454D01*
X7713667Y-11111000D01*
X7526333Y-11111000D01*
X7342605Y-11074454D01*
X7169534Y-11002766D01*
X7092182Y-10951081D01*
X7013773Y-10898690D01*
X6881310Y-10766227D01*
X6791207Y-10631378D01*
X6777234Y-10610466D01*
X6705546Y-10437395D01*
X6669000Y-10253667D01*
X6669000Y-10066333D01*
X6705546Y-9882605D01*
X6777234Y-9709534D01*
X6881309Y-9553775D01*
X6881310Y-9553773D01*
X7013773Y-9421310D01*
X7169533Y-9317235D01*
X7169534Y-9317234D01*
X7342605Y-9245546D01*
X7526333Y-9209000D01*
X7713667Y-9209000D01*
X7897395Y-9245546D01*
G37*
G36*
X60054903Y-7037075D02*
G01*
X60282571Y-7131378D01*
X60487466Y-7268285D01*
X60661715Y-7442534D01*
X60798622Y-7647429D01*
X60892925Y-7875097D01*
X60941000Y-8116787D01*
X60941000Y-8363213D01*
X60892925Y-8604903D01*
X60798622Y-8832571D01*
X60661715Y-9037466D01*
X60487466Y-9211715D01*
X60282571Y-9348622D01*
X60282570Y-9348623D01*
X60282569Y-9348623D01*
X60054903Y-9442925D01*
X59813214Y-9491000D01*
X59566786Y-9491000D01*
X59325097Y-9442925D01*
X59097431Y-9348623D01*
X59097430Y-9348623D01*
X59097429Y-9348622D01*
X58892534Y-9211715D01*
X58718285Y-9037466D01*
X58581378Y-8832571D01*
X58487075Y-8604903D01*
X58439000Y-8363213D01*
X58439000Y-8116787D01*
X58487075Y-7875097D01*
X58581378Y-7647429D01*
X58718285Y-7442534D01*
X58892534Y-7268285D01*
X59097429Y-7131378D01*
X59325097Y-7037075D01*
X59566786Y-6989000D01*
X59813214Y-6989000D01*
X60054903Y-7037075D01*
G37*
M02*
