G04 #@! TF.GenerationSoftware,KiCad,Pcbnew,5.0.2-bee76a0~70~ubuntu18.04.1*
G04 #@! TF.CreationDate,2019-07-28T20:07:08-04:00*
G04 #@! TF.ProjectId,knuth-gateway,6b6e7574-682d-4676-9174-657761792e6b,rev?*
G04 #@! TF.SameCoordinates,Original*
G04 #@! TF.FileFunction,Copper,L1,Top*
G04 #@! TF.FilePolarity,Positive*
%FSLAX46Y46*%
G04 Gerber Fmt 4.6, Leading zero omitted, Abs format (unit mm)*
G04 Created by KiCad (PCBNEW 5.0.2-bee76a0~70~ubuntu18.04.1) date Sun 28 Jul 2019 08:07:08 PM EDT*
%MOMM*%
%LPD*%
G01*
G04 APERTURE LIST*
G04 #@! TA.AperFunction,ComponentPad*
%ADD10R,1.700000X1.700000*%
G04 #@! TD*
G04 #@! TA.AperFunction,ComponentPad*
%ADD11O,1.700000X1.700000*%
G04 #@! TD*
G04 #@! TA.AperFunction,ComponentPad*
%ADD12O,1.600000X1.600000*%
G04 #@! TD*
G04 #@! TA.AperFunction,ComponentPad*
%ADD13C,1.600000*%
G04 #@! TD*
G04 #@! TA.AperFunction,ComponentPad*
%ADD14C,2.400000*%
G04 #@! TD*
G04 #@! TA.AperFunction,ComponentPad*
%ADD15R,2.400000X2.400000*%
G04 #@! TD*
G04 #@! TA.AperFunction,ViaPad*
%ADD16C,3.000000*%
G04 #@! TD*
G04 APERTURE END LIST*
D10*
G04 #@! TO.P,R_Delay1,1*
G04 #@! TO.N,GND*
X246380000Y-81280000D03*
D11*
G04 #@! TO.P,R_Delay1,2*
G04 #@! TO.N,Net-(R_Delay1-Pad2)*
X246380000Y-83820000D03*
G04 #@! TD*
D10*
G04 #@! TO.P,U4,1*
G04 #@! TO.N,SWITCHED_LOAD*
X252730000Y-78740000D03*
D11*
G04 #@! TO.P,U4,2*
G04 #@! TO.N,GND*
X252730000Y-81280000D03*
G04 #@! TO.P,U4,3*
G04 #@! TO.N,Net-(R_Delay1-Pad2)*
X252730000Y-83820000D03*
G04 #@! TO.P,U4,4*
G04 #@! TO.N,VBUS*
X252730000Y-86360000D03*
G04 #@! TO.P,U4,5*
G04 #@! TO.N,D10*
X252730000Y-88900000D03*
G04 #@! TD*
G04 #@! TO.P,1-Wire1,3*
G04 #@! TO.N,D5*
X252730000Y-116840000D03*
G04 #@! TO.P,1-Wire1,2*
G04 #@! TO.N,+3V3*
X252730000Y-114300000D03*
D10*
G04 #@! TO.P,1-Wire1,1*
G04 #@! TO.N,GND*
X252730000Y-111760000D03*
G04 #@! TD*
G04 #@! TO.P,EC-5,1*
G04 #@! TO.N,A0*
X252730000Y-99060000D03*
D11*
G04 #@! TO.P,EC-5,2*
G04 #@! TO.N,GND*
X252730000Y-101600000D03*
G04 #@! TO.P,EC-5,3*
G04 #@! TO.N,+3V3*
X252730000Y-104140000D03*
G04 #@! TD*
D10*
G04 #@! TO.P,J1,1*
G04 #@! TO.N,N/C*
X218440000Y-102870000D03*
D11*
G04 #@! TO.P,J1,2*
X218440000Y-100330000D03*
G04 #@! TO.P,J1,3*
G04 #@! TO.N,VBUS*
X218440000Y-97790000D03*
G04 #@! TO.P,J1,4*
G04 #@! TO.N,N/C*
X218440000Y-95250000D03*
G04 #@! TO.P,J1,5*
X218440000Y-92710000D03*
G04 #@! TO.P,J1,6*
X218440000Y-90170000D03*
G04 #@! TO.P,J1,7*
G04 #@! TO.N,D10*
X218440000Y-87630000D03*
G04 #@! TO.P,J1,8*
G04 #@! TO.N,N/C*
X218440000Y-85090000D03*
G04 #@! TO.P,J1,9*
X218440000Y-82550000D03*
G04 #@! TO.P,J1,10*
G04 #@! TO.N,D5*
X218440000Y-80010000D03*
G04 #@! TO.P,J1,11*
G04 #@! TO.N,N/C*
X218440000Y-77470000D03*
G04 #@! TO.P,J1,12*
X218440000Y-74930000D03*
G04 #@! TD*
D10*
G04 #@! TO.P,J2,1*
G04 #@! TO.N,N/C*
X238760000Y-113030000D03*
D11*
G04 #@! TO.P,J2,2*
G04 #@! TO.N,+3V3*
X238760000Y-110490000D03*
G04 #@! TO.P,J2,3*
G04 #@! TO.N,N/C*
X238760000Y-107950000D03*
G04 #@! TO.P,J2,4*
G04 #@! TO.N,GND*
X238760000Y-105410000D03*
G04 #@! TO.P,J2,5*
G04 #@! TO.N,A0*
X238760000Y-102870000D03*
G04 #@! TO.P,J2,6*
G04 #@! TO.N,N/C*
X238760000Y-100330000D03*
G04 #@! TO.P,J2,7*
X238760000Y-97790000D03*
G04 #@! TO.P,J2,8*
X238760000Y-95250000D03*
G04 #@! TO.P,J2,9*
X238760000Y-92710000D03*
G04 #@! TO.P,J2,10*
G04 #@! TO.N,A5*
X238760000Y-90170000D03*
G04 #@! TO.P,J2,11*
G04 #@! TO.N,N/C*
X238760000Y-87630000D03*
G04 #@! TO.P,J2,12*
X238760000Y-85090000D03*
G04 #@! TO.P,J2,13*
X238760000Y-82550000D03*
G04 #@! TO.P,J2,14*
X238760000Y-80010000D03*
G04 #@! TO.P,J2,15*
X238760000Y-77470000D03*
G04 #@! TO.P,J2,16*
X238760000Y-74930000D03*
G04 #@! TD*
D10*
G04 #@! TO.P,switch1,1*
G04 #@! TO.N,LOAD*
X264541000Y-67310000D03*
D11*
G04 #@! TO.P,switch1,2*
G04 #@! TO.N,SWITCHED_LOAD*
X262001000Y-67310000D03*
G04 #@! TO.P,switch1,3*
G04 #@! TO.N,N/C*
X259461000Y-67310000D03*
G04 #@! TD*
D12*
G04 #@! TO.P,RD1,2*
G04 #@! TO.N,A5*
X244348000Y-77216000D03*
D13*
G04 #@! TO.P,RD1,1*
G04 #@! TO.N,BATT*
X244348000Y-69596000D03*
G04 #@! TD*
G04 #@! TO.P,RD2,1*
G04 #@! TO.N,A5*
X245110000Y-95250000D03*
D12*
G04 #@! TO.P,RD2,2*
G04 #@! TO.N,GND*
X245110000Y-102870000D03*
G04 #@! TD*
D13*
G04 #@! TO.P,RP1,1*
G04 #@! TO.N,D5*
X245110000Y-116205000D03*
D12*
G04 #@! TO.P,RP1,2*
G04 #@! TO.N,+3V3*
X245110000Y-108585000D03*
G04 #@! TD*
D10*
G04 #@! TO.P,J3,1*
G04 #@! TO.N,BATT*
X249428000Y-65532000D03*
D11*
G04 #@! TO.P,J3,2*
G04 #@! TO.N,GND*
X249428000Y-62992000D03*
G04 #@! TD*
G04 #@! TO.P,J4,2*
G04 #@! TO.N,GND*
X253492000Y-62992000D03*
D10*
G04 #@! TO.P,J4,1*
G04 #@! TO.N,LOAD*
X253492000Y-65532000D03*
G04 #@! TD*
D14*
G04 #@! TO.P,J5,3*
G04 #@! TO.N,GND*
X259080000Y-110856000D03*
G04 #@! TO.P,J5,2*
G04 #@! TO.N,+3V3*
X259080000Y-114356000D03*
D15*
G04 #@! TO.P,J5,1*
G04 #@! TO.N,D5*
X259080000Y-117856000D03*
G04 #@! TD*
D14*
G04 #@! TO.P,J6,3*
G04 #@! TO.N,A0*
X259080000Y-98664000D03*
G04 #@! TO.P,J6,2*
G04 #@! TO.N,GND*
X259080000Y-102164000D03*
D15*
G04 #@! TO.P,J6,1*
G04 #@! TO.N,+3V3*
X259080000Y-105664000D03*
G04 #@! TD*
D16*
G04 #@! TO.N,*
X267843000Y-58166000D03*
X212852000Y-58166000D03*
X267843000Y-123317000D03*
X212852000Y-123317000D03*
G04 #@! TD*
M02*
