M48
;DRILL file {KiCad 5.0.2-bee76a0~70~ubuntu18.04.1} date Sun 28 Jul 2019 08:06:52 PM EDT
;FORMAT={-:-/ absolute / inch / decimal}
FMAT,2
INCH,TZ
T1C0.0315
T2C0.0394
T3C0.0472
T4C0.0787
%
G90
G05
T1
X9.62Y-2.74
X9.62Y-3.04
X9.65Y-3.75
X9.65Y-4.05
X9.65Y-4.275
X9.65Y-4.575
T2
X9.95Y-4.4
X9.95Y-4.5
X9.95Y-4.6
X9.7Y-3.2
X9.7Y-3.3
X9.95Y-3.1
X9.95Y-3.2
X9.95Y-3.3
X9.95Y-3.4
X9.95Y-3.5
X9.98Y-2.48
X9.98Y-2.58
X9.4Y-2.95
X9.4Y-3.05
X9.4Y-3.15
X9.4Y-3.25
X9.4Y-3.35
X9.4Y-3.45
X9.4Y-3.55
X9.4Y-3.65
X9.4Y-3.75
X9.4Y-3.85
X9.4Y-3.95
X9.4Y-4.05
X9.4Y-4.15
X9.4Y-4.25
X9.4Y-4.35
X9.4Y-4.45
X8.6Y-2.95
X8.6Y-3.05
X8.6Y-3.15
X8.6Y-3.25
X8.6Y-3.35
X8.6Y-3.45
X8.6Y-3.55
X8.6Y-3.65
X8.6Y-3.75
X8.6Y-3.85
X8.6Y-3.95
X8.6Y-4.05
X10.215Y-2.65
X10.315Y-2.65
X10.415Y-2.65
X9.95Y-3.9
X9.95Y-4.
X9.95Y-4.1
X9.82Y-2.48
X9.82Y-2.58
T3
X10.2Y-3.8844
X10.2Y-4.0222
X10.2Y-4.16
X10.2Y-4.3644
X10.2Y-4.5022
X10.2Y-4.64
T4
X8.38Y-2.29
X8.38Y-4.855
X10.545Y-2.29
X10.545Y-4.855
T0
M30
