M48
;DRILL file {KiCad 5.0.2-bee76a0~70~ubuntu18.04.1} date Sun 28 Jul 2019 11:15:50 PM EDT
;FORMAT={-:-/ absolute / inch / decimal}
FMAT,2
INCH,TZ
T1C0.0315
T2C0.0350
T3C0.0394
T4C0.0472
T5C0.0787
%
G90
G05
T1
X8.335Y-2.71
X9.62Y-2.74
X9.62Y-3.04
X9.65Y-3.75
X9.65Y-4.05
X9.165Y-2.745
X9.165Y-3.145
X9.65Y-4.275
X9.65Y-4.575
X8.735Y-2.71
T2
X10.3025Y-3.14
X10.445Y-3.345
T3
X9.42Y-2.1425
X9.52Y-2.1425
X9.62Y-2.1425
X10.03Y-2.0375
X10.03Y-2.1375
X9.82Y-2.63
X9.82Y-2.73
X9.95Y-3.1
X9.95Y-3.2
X9.95Y-3.3
X9.95Y-3.4
X9.95Y-3.5
X8.6Y-2.95
X8.6Y-3.05
X8.6Y-3.15
X8.6Y-3.25
X8.6Y-3.35
X8.6Y-3.45
X8.6Y-3.55
X8.6Y-3.65
X8.6Y-3.75
X8.6Y-3.85
X8.6Y-3.95
X8.6Y-4.05
X9.7Y-3.2
X9.7Y-3.3
X9.4Y-2.95
X9.4Y-3.05
X9.4Y-3.15
X9.4Y-3.25
X9.4Y-3.35
X9.4Y-3.45
X9.4Y-3.55
X9.4Y-3.65
X9.4Y-3.75
X9.4Y-3.85
X9.4Y-3.95
X9.4Y-4.05
X9.4Y-4.15
X9.4Y-4.25
X9.4Y-4.35
X9.4Y-4.45
X10.288Y-2.652
X10.388Y-2.652
X10.488Y-2.652
X10.056Y-2.628
X10.056Y-2.728
X9.95Y-4.4
X9.95Y-4.5
X9.95Y-4.6
X8.99Y-2.0425
X8.99Y-2.1425
X9.95Y-3.9
X9.95Y-4.
X9.95Y-4.1
T4
X10.2Y-3.8844
X10.2Y-4.0222
X10.2Y-4.16
X10.2372Y-2.0675
X10.375Y-2.0675
X10.2Y-4.3644
X10.2Y-4.5022
X10.2Y-4.64
X8.5972Y-2.0825
X8.735Y-2.0825
T5
X8.305Y-4.79
X8.3075Y-2.0325
X10.6675Y-4.79
X10.67Y-2.0325
T0
M30
