M48
;DRILL file {KiCad 5.0.2-bee76a0~70~ubuntu18.04.1} date Fri 26 Jul 2019 08:49:24 PM EDT
;FORMAT={-:-/ absolute / inch / decimal}
FMAT,2
INCH,TZ
T1C0.0315
T2C0.0394
T3C0.0787
%
G90
G05
T1
X9.575Y-2.825
X9.875Y-2.825
X9.65Y-4.275
X9.65Y-4.575
X9.65Y-3.75
X9.65Y-4.05
T2
X9.95Y-4.4
X9.95Y-4.5
X9.95Y-4.6
X9.4Y-2.95
X9.4Y-3.05
X9.4Y-3.15
X9.4Y-3.25
X9.4Y-3.35
X9.4Y-3.45
X9.4Y-3.55
X9.4Y-3.65
X9.4Y-3.75
X9.4Y-3.85
X9.4Y-3.95
X9.4Y-4.05
X9.4Y-4.15
X9.4Y-4.25
X9.4Y-4.35
X9.4Y-4.45
X9.95Y-3.9
X9.95Y-4.
X9.95Y-4.1
X8.6Y-2.95
X8.6Y-3.05
X8.6Y-3.15
X8.6Y-3.25
X8.6Y-3.35
X8.6Y-3.45
X8.6Y-3.55
X8.6Y-3.65
X8.6Y-3.75
X8.6Y-3.85
X8.6Y-3.95
X8.6Y-4.05
X9.7Y-3.2
X9.7Y-3.3
X9.702Y-2.18
X9.802Y-2.18
X9.95Y-3.1
X9.95Y-3.2
X9.95Y-3.3
X9.95Y-3.4
X9.95Y-3.5
X10.1Y-2.75
X10.2Y-2.75
X10.3Y-2.75
T3
X8.35Y-2.1
X8.35Y-4.85
X10.55Y-2.1
X10.55Y-4.85
T0
M30
